<svg xmlns="http://www.w3.org/2000/svg" xmlns:xlink="http://www.w3.org/1999/xlink" width="252" height="131" viewBox="0 0 252 131">
    <defs>
        <path id="b" d="M17.1 1.92c3.88 1.36 4.1 2.62.66 3.78-3.92-2.12-7.2-1.36-9.84 2.28C6 13.66 5.04 19.08 5.04 24.24v.6c0 .6.9 2.66 2.7 6.18l4.62.54c4.12-1 6.38-3.12 6.78-6.36l1.92-.42.72 1.38v.48c0 3.64-1.72 5.68-5.16 6.12-2.44.92-3.66 1.52-3.66 1.8-6.72 0-10.08-2.6-10.08-7.8-.32 0-.48-.44-.48-1.32v-.6C1.6 7.32 5.72-.34 14.76 1.86c.76.08 1.54.1 2.34.06zm8.94 10.5c3.24.44 5.1 1.4 5.58 2.88h.72c2.64-1.84 4.82-2.76 6.54-2.76h1.8c.72.24 1.08.96 1.08 2.16-2.64.72-4.7 1.52-6.18 2.4-1.2 1.32-1.8 2.28-1.8 2.88 0 2 .12 3.12.36 3.36.08 3.72-.16 6.66-.72 8.82-.2.84-.37 1.3-.51 1.38-.14.08-.37.12-.69.12-.2 0-.36-.02-.48-.06a1.56 1.56 0 0 0-.48-.06c-.52 0-1.36-1.44-2.52-4.32.48-.96.84-3.64 1.08-8.04-.48-3.84-1.86-6.28-4.14-7.32 0-.24-.12-.6-.36-1.08l.72-.36zM54 14.16c4.32.44 6.48 2.12 6.48 5.04.96.12 1.44.48 1.44 1.08 0 .92-4.2 2-12.6 3.24-1.2 0-1.8.48-1.8 1.44 1.32 4.4 3.84 6.6 7.56 6.6 3.12.32 4.68.8 4.68 1.44 0 .36-.36.72-1.08 1.08H55.8c-5.92 0-9.76-2.56-11.52-7.68-.48-1.56-.72-2.64-.72-3.24.72-5.76 3.12-8.64 7.2-8.64 0-.24.36-.36 1.08-.36H54zm-1.44 5.04l1.8-.36c0-.48-.84-.96-2.52-1.44-1.92.44-2.88.92-2.88 1.44v.36h3.6zm16.62-5.4c1.8-.88 3.46-1.32 4.98-1.32 2 0 3.57.71 4.71 2.13 1.14 1.42 1.71 3.19 1.71 5.31 0 .32-.03.8-.09 1.44-.06.64-.09 1.24-.09 1.8 0 .68.06 1.44.18 2.28.6.04.9.32.9.84v.42c-.48.76-.92 1.92-1.32 3.48l.42 2.52c-.52 1.32-1.08 2.04-1.68 2.16-1.44-.72-2.16-1.72-2.16-3l-2.58.42c-5.44 0-8.16-2-8.16-6 0-.08-.01-.19-.03-.33-.02-.14-.01-.31.03-.51 1-3.72 3.26-5.88 6.78-6.48.32-.04.83-.12 1.53-.24.7-.12 1.24-.26 1.62-.42.38-.16.57-.36.57-.6v-.84c0-.36-.23-.67-.69-.93-.46-.26-1.07-.39-1.83-.39-1.72 0-3.58.6-5.58 1.8l-1.68-1.74c0-.2.28-.49.84-.87.56-.38 1.1-.69 1.62-.93zm.24 13.32c0 .48.44.92 1.32 1.32h3c1.32 0 1.98-2.04 1.98-6.12v-.42c-3 0-5.1 1.46-6.3 4.38v.84zm21.9-24.6c.6.52 1.68 1.6 3.24 3.24v.36c0 .72-.2 2.28-.6 4.68h.36c.28 0 1.08-.12 2.4-.36 2.24 0 4.04 1.2 5.4 3.6 0 1.04-2.88 1.64-8.64 1.8l-.36.72v2.16c0 1.68-.06 2.64-.18 2.88-.12.24-.18.48-.18.72l.12 4.44c-.52 1.8 1.84 2.84 7.08 3.12l1.44 2.16c-1.6 1.2-3.76 1.8-6.48 1.8h1.44c-5.12.76-7.52-2.24-7.2-9 0-.76.08-3.36.24-7.8-3.08-.04-4.72-1.28-4.92-3.72 1.52-.72 3.56-1.32 6.12-1.8v-5.4c0-.52.12-1 .36-1.44-.24-.4-.36-.88-.36-1.44.08-.48.32-.72.72-.72zm23.04 11.64c4.32.44 6.48 2.12 6.48 5.04.96.12 1.44.48 1.44 1.08 0 .92-4.2 2-12.6 3.24-1.2 0-1.8.48-1.8 1.44 1.32 4.4 3.84 6.6 7.56 6.6 3.12.32 4.68.8 4.68 1.44 0 .36-.36.72-1.08 1.08h-2.88c-5.92 0-9.76-2.56-11.52-7.68-.48-1.56-.72-2.64-.72-3.24.72-5.76 3.12-8.64 7.2-8.64 0-.24.36-.36 1.08-.36h2.16zm-1.44 5.04l1.8-.36c0-.48-.84-.96-2.52-1.44-1.92.44-2.88.92-2.88 1.44v.36h3.6zm39.06-15.96c1.6-.52 3.22-.76 4.86-.72l3.78 1.2c3.12 2.04 4.68 7.26 4.68 15.66v1.02c0 2-3.18 5.46-9.54 10.38h-3.78c-5.24-3.12-7.86-6.6-7.86-10.44v-3.66c1.44-5.4 3.42-9.16 5.94-11.28 1.2-1.32 1.84-2.04 1.92-2.16zm4.92 4.38c-2.4-.56-4.64.38-6.72 2.82-1.08 1.76-1.92 4.16-2.52 7.2v1.14c.84 5.04 2.64 7.76 5.4 8.16h2.4c4.32-5.6 6.48-9.2 6.48-10.8v-.54c0-5.32-1.68-7.98-5.04-7.98zm12.72 4.8c3.24.44 5.1 1.4 5.58 2.88h.72c2.64-1.84 4.82-2.76 6.54-2.76h1.8c.72.24 1.08.96 1.08 2.16-2.64.72-4.7 1.52-6.18 2.4-1.2 1.32-1.8 2.28-1.8 2.88 0 2 .12 3.12.36 3.36.08 3.72-.16 6.66-.72 8.82-.2.84-.37 1.3-.51 1.38-.14.08-.37.12-.69.12-.2 0-.36-.02-.48-.06a1.56 1.56 0 0 0-.48-.06c-.52 0-1.36-1.44-2.52-4.32.48-.96.84-3.64 1.08-8.04-.48-3.84-1.86-6.28-4.14-7.32 0-.24-.12-.6-.36-1.08l.72-.36zm29.04-9.6c3.12 1.08 4.68 2.52 4.68 4.32-.48.8-.72 1.52-.72 2.16v6.6c0 .16-.36 1.34-1.08 3.54 0 .56.12 1.04.36 1.44-.16 8.4-.88 12.6-2.16 12.6l-2.16-.36c-1.6.24-2.92.36-3.96.36-3.6-1.4-5.4-3.98-5.4-7.74v-.96c0-5.64 3-8.44 9-8.4.84 0 1.44-2.96 1.8-8.88 0-.6-.48-1.68-1.44-3.24.36-.96.72-1.44 1.08-1.44zm-7.14 23.82c.52.84 1.04 1.54 1.56 2.1.76.52 1.3.9 1.62 1.14.32.24.92.36 1.8.36l.72-9.72-.72-.36-2.16.36c-3.52 1.32-4.46 3.36-2.82 6.12zm25.74-12.48c4.32.44 6.48 2.12 6.48 5.04.96.12 1.44.48 1.44 1.08 0 .92-4.2 2-12.6 3.24-1.2 0-1.8.48-1.8 1.44 1.32 4.4 3.84 6.6 7.56 6.6 3.12.32 4.68.8 4.68 1.44 0 .36-.36.72-1.08 1.08h-2.88c-5.92 0-9.76-2.56-11.52-7.68-.48-1.56-.72-2.64-.72-3.24.72-5.76 3.12-8.64 7.2-8.64 0-.24.36-.36 1.08-.36h2.16zm-1.44 5.04l1.8-.36c0-.48-.84-.96-2.52-1.44-1.92.44-2.88.92-2.88 1.44v.36h3.6zm12.48-6.78c3.24.44 5.1 1.4 5.58 2.88h.72c2.64-1.84 4.82-2.76 6.54-2.76h1.8c.72.24 1.08.96 1.08 2.16-2.64.72-4.7 1.52-6.18 2.4-1.2 1.32-1.8 2.28-1.8 2.88 0 2 .12 3.12.36 3.36.08 3.72-.16 6.66-.72 8.82-.2.84-.37 1.3-.51 1.38-.14.08-.37.12-.69.12-.2 0-.36-.02-.48-.06a1.56 1.56 0 0 0-.48-.06c-.52 0-1.36-1.44-2.52-4.32.48-.96.84-3.64 1.08-8.04-.48-3.84-1.86-6.28-4.14-7.32 0-.24-.12-.6-.36-1.08l.72-.36zM23.28 61.56c1.56 1.32 2.34 2.46 2.34 3.42v.42c0 .28-2.38.72-7.14 1.32l-.72 1.14v4.5C16.72 82.64 15.54 90 14.22 94.44h-.06c-1.36 0-2.2-2-2.52-6 2.08-8.6 3.12-14.56 3.12-17.88l-.66-2.64-2.46.36c0-.52-.58-.78-1.74-.78l-2.94.48-5.76-2.04v-.48c.4 0 1.12-.4 2.16-1.2l.84.3c10.2-2 16.56-3 19.08-3zM38.7 72.72c3.88.28 6.14 3.38 6.78 9.3l-.18 4.02c-1.08 4.36-2.72 6.54-4.92 6.54-.72.68-1.72 1.04-3 1.08-2.16-.48-3.9-1.38-5.22-2.7-2.36-2.08-3.38-4.78-3.06-8.1v-.72c0-2.16 2.18-5.26 6.54-9.3l3.06-.12zm-5.88 11.34c-.32 2.76 1.56 4.52 5.64 5.28 2.12-1.56 3.08-3.12 2.88-4.68V82.5c0-1.32-.6-3.24-1.8-5.76l-2.4-.06c-3.2 2.32-4.64 4.78-4.32 7.38zm37.276-23.798c3.51 3.685 5.264 7.858 5.264 12.518 1.24 2.8 1.86 4.94 1.86 6.42h1.74c1.12-5.2 3-10.74 5.64-16.62l2.82-.36c0 .28.3.66.9 1.14 0 .2-.1.62-.3 1.26 0 3.36.54 8.28 1.62 14.76 2.12 8.08 3.18 12.7 3.18 13.86l-.3.24c-1.44 0-2.54-3.08-3.3-9.24-.64-1.28-1.72-6.28-3.24-15h-1.26C81.84 80.4 80.4 86.46 80.4 87.42c.24.64.36 1.06.36 1.26l-1.02 1.2c-2.2 0-3.82-5.2-4.86-15.6-.4 0-.72-1.16-.96-3.48h-1.26c-.72 2.28-1.3 7.78-1.74 16.5-.76 5.72-1.3 8.58-1.62 8.58h-.06c-1.48-1.48-2.22-3.64-2.22-6.48v-1.02c1.48-8.56 2.78-17.46 3.9-26.7-.48 0-.72-.16-.72-.48v-.6c.024-.193.005-.328-.059-.405l-.045.067zm.045-.067c-.042-.05-.102-.075-.181-.075l.136.142.045-.067zM99.66 62.46c3.36 1.08 5.04 2.52 5.04 4.32-.96.2-1.92.8-2.88 1.8h-.72l-.72-.36.36-1.8c0-.52-1.08-1.36-3.24-2.52 0-.48.72-.96 2.16-1.44zm.72 10.68c1.88 1.04 3.2 2.12 3.96 3.24.24 1.12.26 2.28.06 3.48-.08.56-.1 1.96-.06 4.2l-.72 2.16.36.72c-.36 4.56-1.08 6.84-2.16 6.84-1.68-.76-2.52-2.56-2.52-5.4l.36-.72c0-.24-.12-.36-.36-.36l1.08-7.56v-4.8l-.72-1.08c.08-.48.32-.72.72-.72zm10.794 16.053c-.036.04-.054-.07-.054-.333l.054.333zm0 0c.1-.116.343-1.427.726-3.933l.06-2.76.36-4.14c0-.36-.94-1.26-2.82-2.7 0-.44.4-.86 1.2-1.26l1.02-.72c2.88-1.6 4.58-1.26 5.1 1.02l4.08-.42c4.28-.12 6.32 1.94 6.12 6.18v1.62c0 1.4-.14 2.18-.42 2.34v4.02c0 3.84-.96 5.76-2.88 5.76-1.32-2.04-1.98-3.82-1.98-5.34v-5.28c0-.2.12-.14.36.18-.24-.48-.36-1.04-.36-1.68v-.42l.36-2.04-.78-.84c-3 .48-4.5 1.04-4.5 1.68v1.62c0 .64-.05 1.17-.15 1.59-.1.42-.27 1.23-.51 2.43l-.06.3c-.88 4.48-1.46 7.08-1.74 7.8h-.78c-1.046 0-1.848-1.67-2.406-5.007zM141.96 74.16c4.32.44 6.48 2.12 6.48 5.04.96.12 1.44.48 1.44 1.08 0 .92-4.2 2-12.6 3.24-1.2 0-1.8.48-1.8 1.44 1.32 4.4 3.84 6.6 7.56 6.6 3.12.32 4.68.8 4.68 1.44 0 .36-.36.72-1.08 1.08h-2.88c-5.92 0-9.76-2.56-11.52-7.68-.48-1.56-.72-2.64-.72-3.24.72-5.76 3.12-8.64 7.2-8.64 0-.24.36-.36 1.08-.36h2.16zm-1.44 5.04l1.8-.36c0-.48-.84-.96-2.52-1.44-1.92.44-2.88.92-2.88 1.44v.36h3.6zm32.94-17.82c2.84 1.24 6.64 2.18 11.4 2.82 3.96 2.48 5.94 5.72 5.94 9.72v1.98c-3.24 9.56-6.38 14.34-9.42 14.34-1.28 1.68-3.84 3.24-7.68 4.68l-1.5-.36.42-5.88c0-.76-.14-1.46-.42-2.1 1.68-7.28 2.52-13.38 2.52-18.3 0-.96-.54-1.44-1.62-1.44-.52.32-.9.48-1.14.48l-1.44-2.64v-.48h.36l3.72-.6-1.14-2.04v-.18zm2.76 9.06l.72 1.5c-.6 4.04-.9 7.26-.9 9.66v4.5l-.54 1.62h1.26c7.6-3.64 11.4-8.8 11.4-15.48-2.16-3.6-5.28-5.4-9.36-5.4-1.52.12-2.28.62-2.28 1.5l.36 2.1h-.66zm28.44-7.2c1.6-.52 3.22-.76 4.86-.72l3.78 1.2c3.12 2.04 4.68 7.26 4.68 15.66v1.02c0 2-3.18 5.46-9.54 10.38h-3.78c-5.24-3.12-7.86-6.6-7.86-10.44v-3.66c1.44-5.4 3.42-9.16 5.94-11.28 1.2-1.32 1.84-2.04 1.92-2.16zm4.92 4.38c-2.4-.56-4.64.38-6.72 2.82-1.08 1.76-1.92 4.16-2.52 7.2v1.14c.84 5.04 2.64 7.76 5.4 8.16h2.4c4.32-5.6 6.48-9.2 6.48-10.8v-.54c0-5.32-1.68-7.98-5.04-7.98zm34.08-6.06c1.56 1.32 2.34 2.46 2.34 3.42v.42c0 .28-2.38.72-7.14 1.32l-.72 1.14v4.5c-1.04 10.28-2.22 17.64-3.54 22.08h-.06c-1.36 0-2.2-2-2.52-6 2.08-8.6 3.12-14.56 3.12-17.88l-.66-2.64-2.46.36c0-.52-.58-.78-1.74-.78l-2.94.48-5.76-2.04v-.48c.4 0 1.12-.4 2.16-1.2l.84.3c10.2-2 16.56-3 19.08-3z"/>
        <filter id="a" width="111.4%" height="129.1%" x="-5.7%" y="-10.6%" filterUnits="objectBoundingBox">
            <feOffset dy="4" in="SourceAlpha" result="shadowOffsetOuter1"/>
            <feGaussianBlur in="shadowOffsetOuter1" result="shadowBlurOuter1" stdDeviation="4"/>
            <feColorMatrix in="shadowBlurOuter1" values="0 0 0 0 0.0156862745 0 0 0 0 0.0509803922 0 0 0 0 0.282352941 0 0 0 1 0"/>
        </filter>
    </defs>
    <g fill="none" fill-rule="evenodd">
        <g transform="translate(3 17)">
            <use fill="#000" filter="url(#a)" xlink:href="#b"/>
            <use fill="#FE7918" xlink:href="#b"/>
        </g>
        <path fill="#FFF" fill-opacity=".8" d="M19.1 17.92c3.88 1.36 4.1 2.62.66 3.78-3.92-2.12-7.2-1.36-9.84 2.28C8 29.66 7.04 35.08 7.04 40.24v.6c0 .6.9 2.66 2.7 6.18l4.62.54c4.12-1 6.38-3.12 6.78-6.36l1.92-.42.72 1.38v.48c0 3.64-1.72 5.68-5.16 6.12-2.44.92-3.66 1.52-3.66 1.8-6.72 0-10.08-2.6-10.08-7.8-.32 0-.48-.44-.48-1.32v-.6c-.8-17.52 3.32-25.18 12.36-22.98.76.08 1.54.1 2.34.06zm8.94 10.5c3.24.44 5.1 1.4 5.58 2.88h.72c2.64-1.84 4.82-2.76 6.54-2.76h1.8c.72.24 1.08.96 1.08 2.16-2.64.72-4.7 1.52-6.18 2.4-1.2 1.32-1.8 2.28-1.8 2.88 0 2 .12 3.12.36 3.36.08 3.72-.16 6.66-.72 8.82-.2.84-.37 1.3-.51 1.38-.14.08-.37.12-.69.12-.2 0-.36-.02-.48-.06a1.56 1.56 0 0 0-.48-.06c-.52 0-1.36-1.44-2.52-4.32.48-.96.84-3.64 1.08-8.04-.48-3.84-1.86-6.28-4.14-7.32 0-.24-.12-.6-.36-1.08l.72-.36zM56 30.16c4.32.44 6.48 2.12 6.48 5.04.96.12 1.44.48 1.44 1.08 0 .92-4.2 2-12.6 3.24-1.2 0-1.8.48-1.8 1.44 1.32 4.4 3.84 6.6 7.56 6.6 3.12.32 4.68.8 4.68 1.44 0 .36-.36.72-1.08 1.08H57.8c-5.92 0-9.76-2.56-11.52-7.68-.48-1.56-.72-2.64-.72-3.24.72-5.76 3.12-8.64 7.2-8.64 0-.24.36-.36 1.08-.36H56zm-1.44 5.04l1.8-.36c0-.48-.84-.96-2.52-1.44-1.92.44-2.88.92-2.88 1.44v.36h3.6zm16.62-5.4c1.8-.88 3.46-1.32 4.98-1.32 2 0 3.57.71 4.71 2.13 1.14 1.42 1.71 3.19 1.71 5.31 0 .32-.03.8-.09 1.44-.06.64-.09 1.24-.09 1.8 0 .68.06 1.44.18 2.28.6.04.9.32.9.84v.42c-.48.76-.92 1.92-1.32 3.48l.42 2.52c-.52 1.32-1.08 2.04-1.68 2.16-1.44-.72-2.16-1.72-2.16-3l-2.58.42c-5.44 0-8.16-2-8.16-6 0-.08-.01-.19-.03-.33-.02-.14-.01-.31.03-.51 1-3.72 3.26-5.88 6.78-6.48.32-.04.83-.12 1.53-.24.7-.12 1.24-.26 1.62-.42.38-.16.57-.36.57-.6v-.84c0-.36-.23-.67-.69-.93-.46-.26-1.07-.39-1.83-.39-1.72 0-3.58.6-5.58 1.8l-1.68-1.74c0-.2.28-.49.84-.87.56-.38 1.1-.69 1.62-.93zm.24 13.32c0 .48.44.92 1.32 1.32h3c1.32 0 1.98-2.04 1.98-6.12v-.42c-3 0-5.1 1.46-6.3 4.38v.84zm21.9-24.6c.6.52 1.68 1.6 3.24 3.24v.36c0 .72-.2 2.28-.6 4.68h.36c.28 0 1.08-.12 2.4-.36 2.24 0 4.04 1.2 5.4 3.6 0 1.04-2.88 1.64-8.64 1.8l-.36.72v2.16c0 1.68-.06 2.64-.18 2.88-.12.24-.18.48-.18.72l.12 4.44c-.52 1.8 1.84 2.84 7.08 3.12l1.44 2.16c-1.6 1.2-3.76 1.8-6.48 1.8h1.44c-5.12.76-7.52-2.24-7.2-9 0-.76.08-3.36.24-7.8-3.08-.04-4.72-1.28-4.92-3.72 1.52-.72 3.56-1.32 6.12-1.8v-5.4c0-.52.12-1 .36-1.44-.24-.4-.36-.88-.36-1.44.08-.48.32-.72.72-.72zm23.04 11.64c4.32.44 6.48 2.12 6.48 5.04.96.12 1.44.48 1.44 1.08 0 .92-4.2 2-12.6 3.24-1.2 0-1.8.48-1.8 1.44 1.32 4.4 3.84 6.6 7.56 6.6 3.12.32 4.68.8 4.68 1.44 0 .36-.36.72-1.08 1.08h-2.88c-5.92 0-9.76-2.56-11.52-7.68-.48-1.56-.72-2.64-.72-3.24.72-5.76 3.12-8.64 7.2-8.64 0-.24.36-.36 1.08-.36h2.16zm-1.44 5.04l1.8-.36c0-.48-.84-.96-2.52-1.44-1.92.44-2.88.92-2.88 1.44v.36h3.6zm39.06-15.96c1.6-.52 3.22-.76 4.86-.72l3.78 1.2c3.12 2.04 4.68 7.26 4.68 15.66v1.02c0 2-3.18 5.46-9.54 10.38h-3.78c-5.24-3.12-7.86-6.6-7.86-10.44v-3.66c1.44-5.4 3.42-9.16 5.94-11.28 1.2-1.32 1.84-2.04 1.92-2.16zm4.92 4.38c-2.4-.56-4.64.38-6.72 2.82-1.08 1.76-1.92 4.16-2.52 7.2v1.14c.84 5.04 2.64 7.76 5.4 8.16h2.4c4.32-5.6 6.48-9.2 6.48-10.8v-.54c0-5.32-1.68-7.98-5.04-7.98zm12.72 4.8c3.24.44 5.1 1.4 5.58 2.88h.72c2.64-1.84 4.82-2.76 6.54-2.76h1.8c.72.24 1.08.96 1.08 2.16-2.64.72-4.7 1.52-6.18 2.4-1.2 1.32-1.8 2.28-1.8 2.88 0 2 .12 3.12.36 3.36.08 3.72-.16 6.66-.72 8.82-.2.84-.37 1.3-.51 1.38-.14.08-.37.12-.69.12-.2 0-.36-.02-.48-.06a1.56 1.56 0 0 0-.48-.06c-.52 0-1.36-1.44-2.52-4.32.48-.96.84-3.64 1.08-8.04-.48-3.84-1.86-6.28-4.14-7.32 0-.24-.12-.6-.36-1.08l.72-.36zm29.04-9.6c3.12 1.08 4.68 2.52 4.68 4.32-.48.8-.72 1.52-.72 2.16v6.6c0 .16-.36 1.34-1.08 3.54 0 .56.12 1.04.36 1.44-.16 8.4-.88 12.6-2.16 12.6l-2.16-.36c-1.6.24-2.92.36-3.96.36-3.6-1.4-5.4-3.98-5.4-7.74v-.96c0-5.64 3-8.44 9-8.4.84 0 1.44-2.96 1.8-8.88 0-.6-.48-1.68-1.44-3.24.36-.96.72-1.44 1.08-1.44zm-7.14 23.82c.52.84 1.04 1.54 1.56 2.1.76.52 1.3.9 1.62 1.14.32.24.92.36 1.8.36l.72-9.72-.72-.36-2.16.36c-3.52 1.32-4.46 3.36-2.82 6.12zm25.74-12.48c4.32.44 6.48 2.12 6.48 5.04.96.12 1.44.48 1.44 1.08 0 .92-4.2 2-12.6 3.24-1.2 0-1.8.48-1.8 1.44 1.32 4.4 3.84 6.6 7.56 6.6 3.12.32 4.68.8 4.68 1.44 0 .36-.36.72-1.08 1.08h-2.88c-5.92 0-9.76-2.56-11.52-7.68-.48-1.56-.72-2.64-.72-3.24.72-5.76 3.12-8.64 7.2-8.64 0-.24.36-.36 1.08-.36h2.16zm-1.44 5.04l1.8-.36c0-.48-.84-.96-2.52-1.44-1.92.44-2.88.92-2.88 1.44v.36h3.6zm12.48-6.78c3.24.44 5.1 1.4 5.58 2.88h.72c2.64-1.84 4.82-2.76 6.54-2.76h1.8c.72.24 1.08.96 1.08 2.16-2.64.72-4.7 1.52-6.18 2.4-1.2 1.32-1.8 2.28-1.8 2.88 0 2 .12 3.12.36 3.36.08 3.72-.16 6.66-.72 8.82-.2.84-.37 1.3-.51 1.38-.14.08-.37.12-.69.12-.2 0-.36-.02-.48-.06a1.56 1.56 0 0 0-.48-.06c-.52 0-1.36-1.44-2.52-4.32.48-.96.84-3.64 1.08-8.04-.48-3.84-1.86-6.28-4.14-7.32 0-.24-.12-.6-.36-1.08l.72-.36zM25.28 77.56c1.56 1.32 2.34 2.46 2.34 3.42v.42c0 .28-2.38.72-7.14 1.32l-.72 1.14v4.5c-1.04 10.28-2.22 17.64-3.54 22.08h-.06c-1.36 0-2.2-2-2.52-6 2.08-8.6 3.12-14.56 3.12-17.88l-.66-2.64-2.46.36c0-.52-.58-.78-1.74-.78l-2.94.48-5.76-2.04v-.48c.4 0 1.12-.4 2.16-1.2l.84.3c10.2-2 16.56-3 19.08-3zM40.7 88.72c3.88.28 6.14 3.38 6.78 9.3l-.18 4.02c-1.08 4.36-2.72 6.54-4.92 6.54-.72.68-1.72 1.04-3 1.08-2.16-.48-3.9-1.38-5.22-2.7-2.36-2.08-3.38-4.78-3.06-8.1v-.72c0-2.16 2.18-5.26 6.54-9.3l3.06-.12zm-5.88 11.34c-.32 2.76 1.56 4.52 5.64 5.28 2.12-1.56 3.08-3.12 2.88-4.68V98.5c0-1.32-.6-3.24-1.8-5.76l-2.4-.06c-3.2 2.32-4.64 4.78-4.32 7.38zm37.276-23.798c3.51 3.685 5.264 7.858 5.264 12.518 1.24 2.8 1.86 4.94 1.86 6.42h1.74c1.12-5.2 3-10.74 5.64-16.62l2.82-.36c0 .28.3.66.9 1.14 0 .2-.1.62-.3 1.26 0 3.36.54 8.28 1.62 14.76 2.12 8.08 3.18 12.7 3.18 13.86l-.3.24c-1.44 0-2.54-3.08-3.3-9.24-.64-1.28-1.72-6.28-3.24-15h-1.26c-2.88 11.16-4.32 17.22-4.32 18.18.24.64.36 1.06.36 1.26l-1.02 1.2c-2.2 0-3.82-5.2-4.86-15.6-.4 0-.72-1.16-.96-3.48h-1.26c-.72 2.28-1.3 7.78-1.74 16.5-.76 5.72-1.3 8.58-1.62 8.58h-.06c-1.48-1.48-2.22-3.64-2.22-6.48v-1.02c1.48-8.56 2.78-17.46 3.9-26.7-.48 0-.72-.16-.72-.48v-.6c.024-.193.005-.328-.059-.405l-.045.067zm.045-.067c-.042-.05-.102-.075-.181-.075l.136.142.045-.067zm29.519 2.265c3.36 1.08 5.04 2.52 5.04 4.32-.96.2-1.92.8-2.88 1.8h-.72l-.72-.36.36-1.8c0-.52-1.08-1.36-3.24-2.52 0-.48.72-.96 2.16-1.44zm.72 10.68c1.88 1.04 3.2 2.12 3.96 3.24.24 1.12.26 2.28.06 3.48-.08.56-.1 1.96-.06 4.2l-.72 2.16.36.72c-.36 4.56-1.08 6.84-2.16 6.84-1.68-.76-2.52-2.56-2.52-5.4l.36-.72c0-.24-.12-.36-.36-.36l1.08-7.56v-4.8l-.72-1.08c.08-.48.32-.72.72-.72zm10.794 16.053c-.036.04-.054-.07-.054-.333l.054.333zm0 0c.1-.116.343-1.427.726-3.933l.06-2.76.36-4.14c0-.36-.94-1.26-2.82-2.7 0-.44.4-.86 1.2-1.26l1.02-.72c2.88-1.6 4.58-1.26 5.1 1.02l4.08-.42c4.28-.12 6.32 1.94 6.12 6.18v1.62c0 1.4-.14 2.18-.42 2.34v4.02c0 3.84-.96 5.76-2.88 5.76-1.32-2.04-1.98-3.82-1.98-5.34v-5.28c0-.2.12-.14.36.18-.24-.48-.36-1.04-.36-1.68v-.42l.36-2.04-.78-.84c-3 .48-4.5 1.04-4.5 1.68v1.62c0 .64-.05 1.17-.15 1.59-.1.42-.27 1.23-.51 2.43l-.06.3c-.88 4.48-1.46 7.08-1.74 7.8h-.78c-1.046 0-1.848-1.67-2.406-5.007zM143.96 90.16c4.32.44 6.48 2.12 6.48 5.04.96.12 1.44.48 1.44 1.08 0 .92-4.2 2-12.6 3.24-1.2 0-1.8.48-1.8 1.44 1.32 4.4 3.84 6.6 7.56 6.6 3.12.32 4.68.8 4.68 1.44 0 .36-.36.72-1.08 1.08h-2.88c-5.92 0-9.76-2.56-11.52-7.68-.48-1.56-.72-2.64-.72-3.24.72-5.76 3.12-8.64 7.2-8.64 0-.24.36-.36 1.08-.36h2.16zm-1.44 5.04l1.8-.36c0-.48-.84-.96-2.52-1.44-1.92.44-2.88.92-2.88 1.44v.36h3.6zm32.94-17.82c2.84 1.24 6.64 2.18 11.4 2.82 3.96 2.48 5.94 5.72 5.94 9.72v1.98c-3.24 9.56-6.38 14.34-9.42 14.34-1.28 1.68-3.84 3.24-7.68 4.68l-1.5-.36.42-5.88c0-.76-.14-1.46-.42-2.1 1.68-7.28 2.52-13.38 2.52-18.3 0-.96-.54-1.44-1.62-1.44-.52.32-.9.48-1.14.48l-1.44-2.64v-.48h.36l3.72-.6-1.14-2.04v-.18zm2.76 9.06l.72 1.5c-.6 4.04-.9 7.26-.9 9.66v4.5l-.54 1.62h1.26c7.6-3.64 11.4-8.8 11.4-15.48-2.16-3.6-5.28-5.4-9.36-5.4-1.52.12-2.28.62-2.28 1.5l.36 2.1h-.66zm28.44-7.2c1.6-.52 3.22-.76 4.86-.72l3.78 1.2c3.12 2.04 4.68 7.26 4.68 15.66v1.02c0 2-3.18 5.46-9.54 10.38h-3.78c-5.24-3.12-7.86-6.6-7.86-10.44v-3.66c1.44-5.4 3.42-9.16 5.94-11.28 1.2-1.32 1.84-2.04 1.92-2.16zm4.92 4.38c-2.4-.56-4.64.38-6.72 2.82-1.08 1.76-1.92 4.16-2.52 7.2v1.14c.84 5.04 2.64 7.76 5.4 8.16h2.4c4.32-5.6 6.48-9.2 6.48-10.8v-.54c0-5.32-1.68-7.98-5.04-7.98zm34.08-6.06c1.56 1.32 2.34 2.46 2.34 3.42v.42c0 .28-2.38.72-7.14 1.32l-.72 1.14v4.5c-1.04 10.28-2.22 17.64-3.54 22.08h-.06c-1.36 0-2.2-2-2.52-6 2.08-8.6 3.12-14.56 3.12-17.88l-.66-2.64-2.46.36c0-.52-.58-.78-1.74-.78l-2.94.48-5.76-2.04v-.48c.4 0 1.12-.4 2.16-1.2l.84.3c10.2-2 16.56-3 19.08-3z"/>
    </g>
</svg>
