<svg xmlns="http://www.w3.org/2000/svg" xmlns:xlink="http://www.w3.org/1999/xlink" width="252" height="131" viewBox="0 0 252 131">
    <defs>
        <path id="b" d="M4.09 40.696c.248 0 1.013-.404 2.293-1.212a116.6 116.6 0 0 0 4.122-2.733 167.07 167.07 0 0 1 4.214-2.827c1.343-.87 2.097-1.45 2.262-1.74.165-1.077.248-1.885.248-2.423v-3.23l-.248-.374c-.661 0-1.301.3-1.921.901-.62.6-1.24.901-1.86.901-.33 0-.888-.124-1.673-.373-.95-.704-1.787-1.325-2.51-1.864-.723-.538-1.642-.952-2.758-1.242l.248-.187c.661 0 1.591-.093 2.79-.28a24.183 24.183 0 0 0 3.718-.9c1.28-.414 2.396-.89 3.346-1.43.95-.538 1.426-1.2 1.426-1.987.124-1.533.186-2.827.186-3.884v-5.436c0-.704-.33-1.19-.992-1.46-.661-.27-.992-.59-.992-.963 1.488 0 2.965.29 4.432.87 1.466.58 2.2 1.76 2.2 3.541 0 1.077-.258 2.123-.775 3.138-.516 1.015-.775 2.413-.775 4.194v.559c.661 0 1.457.103 2.386.31.93.208 1.395.787 1.395 1.74 0 .497-.165.86-.496 1.087a3.96 3.96 0 0 1-1.115.529c-.414.124-.816.29-1.209.497-.392.207-.713.559-.96 1.056-.331.58-.496 1.284-.496 2.112v.746l.248.248h.247c.372-.29.827-.642 1.364-1.056a8.49 8.49 0 0 1 1.611-.994c0 .124.031.331.093.621s.093.497.093.622v.186c0 .414-.268.818-.806 1.212-.537.393-.743.735-.62 1.025 0 .373.228.559.682.559h1.178c.29 0 .96-.124 2.014-.373a53.991 53.991 0 0 0 3.316-.9c1.157-.353 2.2-.726 3.13-1.12.93-.393 1.394-.651 1.394-.776v-2.299c-1.487-.124-2.562-.352-3.223-.683-.66-.331-1.528-1.036-2.603-2.112a2.48 2.48 0 0 0-.526-.59c-.186-.146-.341-.363-.465-.653h.186c.248 0 .444.031.588.093.145.062.362.093.651.093.248 0 .682-.062 1.302-.186s1.29-.29 2.014-.497a14.658 14.658 0 0 0 1.921-.684c.558-.248.837-.538.837-.87V9.942c0-.953-.414-1.843-1.24-2.672l.186-.186c.372.248.785.456 1.24.621.247.29.547.497.898.622.351.124.65.31.899.559a8.483 8.483 0 0 1 2.076 2.05c.6.829.899 1.781.899 2.858 0 .539-.093 1.046-.28 1.522-.185.477-.278 1.046-.278 1.709h6.26c1.197 0 1.797.538 1.797 1.615 0 .953-.434 1.626-1.302 2.02-.868.393-1.87.693-3.006.9a25.891 25.891 0 0 0-3.005.715c-.868.27-1.302.673-1.302 1.212v3.044c0 .124.124.186.372.186.95 0 1.86-.238 2.727-.714.867-.476 1.714-.715 2.54-.715.125 0 .249.032.373.094a.823.823 0 0 0 .371.093h4.835c.33 0 .65.145.96.435.31.29.61.559.899.807v.87c0 1.16-.455 1.74-1.364 1.74a8.726 8.726 0 0 1-1.89-.186 8.104 8.104 0 0 0-1.766-.187c-.124 0-.868.104-2.231.31-1.364.208-2.82.446-4.37.715-1.549.27-2.933.539-4.152.808l-1.828.404v.186c2.024 0 3.987.477 5.888 1.43.413.248.65.548.712.9.062.352.3.59.713.715.826.124 1.735.331 2.727.621.991.29 1.487.953 1.487 1.988 0 .829-.34 1.243-1.022 1.243-.682 0-1.457.062-2.324.186-.868.125-1.632.56-2.293 1.305-.662.746-.992 2.278-.992 4.598.95 0 1.86-.042 2.727-.125a30.874 30.874 0 0 1 2.913-.124c1.487 0 3.202.249 5.144.746 1.941.497 2.912 1.802 2.912 3.914 0 .58-.475.87-1.425.87-.95 0-1.725-.31-2.324-.932-.6-.621-1.291-.932-2.076-.932H37.99a.594.594 0 0 1-.434.186c-1.446.29-3.244.736-5.392 1.336-2.149.6-3.987.901-5.516.901h-1.177c-.703-.124-1.415-.735-2.139-1.833-.723-1.097-1.29-1.833-1.704-2.205h.186c.537 0 1.012.207 1.426.62.413.415.95.622 1.61.622.414 0 1.116-.072 2.108-.217a76.137 76.137 0 0 0 3.13-.528 73.26 73.26 0 0 0 2.85-.59c.806-.187 1.271-.425 1.395-.715.248-.663.485-1.336.713-2.02.227-.683.34-1.377.34-2.08v-.56c0-.124-.144-.186-.433-.186a8.68 8.68 0 0 0-2.107.28 8.908 8.908 0 0 1-2.17.279c-.66 0-1.466-.497-2.417-1.491-.95-.994-1.425-1.844-1.425-2.548.33 0 .62.145.868.435.248.29.66.435 1.24.435.247 0 .743-.114 1.487-.342.743-.227 1.549-.466 2.417-.714a22.687 22.687 0 0 0 2.293-.777c.66-.269.991-.466.991-.59v-2.299c0-.663-.33-1.056-.991-1.18-.661-.125-1.199-.187-1.612-.187-1.322 0-2.592.342-3.811 1.025a7.8 7.8 0 0 1-3.874 1.026l-3.222-3.107h-.186c-.413 0-.785.207-1.116.621-.33.415-.495.829-.495 1.243 0 .248-.042.787-.124 1.615-.083.829-.124 1.367-.124 1.616v13.11a14.77 14.77 0 0 1-.372 3.261c-.248 1.098-.992 1.647-2.231 1.647-.827 0-1.54-.342-2.138-1.025-.6-.684-1.188-1.502-1.767-2.455a69.245 69.245 0 0 1-1.58-2.733c-.475-.87-1.064-1.554-1.766-2.05v-.25c.702.29 1.487.633 2.355 1.026.867.394 1.632.59 2.293.59.289 0 .588-.041.898-.124.31-.083.465-.249.465-.497v-8.885c-.496 0-1.146.373-1.952 1.119a123.74 123.74 0 0 0-2.448 2.33 53.755 53.755 0 0 1-2.541 2.33c-.868.745-1.632 1.118-2.293 1.118-.95 0-1.673-.27-2.17-.808l-2.664-2.672v-.372c.248 0 .475.03.682.093.206.062.454.093.743.093zm109.696-3.293c0 .539-.29.808-.868.808h-4.834c-.62-.373-1.735-.6-3.347-.684-2.066-.083-3.49-.124-4.276-.124h-8.305c-.289 0-.495.124-.62.373.042.621.063 1.512.063 2.671 0 2.03-.124 4.08-.372 6.151-.248 2.03-.537 4.971-.868 8.823a4.39 4.39 0 0 1-.31.715 6.111 6.111 0 0 0-.31.652c-.289.538-.62.808-.991.808h-.434c-.29-2.734-.434-5.178-.434-7.332l.062-2.485a34.25 34.25 0 0 0-1.053-9.817c-2.355 0-4.649.31-6.88.932a25.749 25.749 0 0 1-6.817.932c-1.074 0-2.272-.455-3.594-1.367-1.405-.911-2.108-1.802-2.108-2.671.868 0 1.653.269 2.356.807.702.539 1.549.808 2.54.808.414 0 1.281-.083 2.603-.248.703-.083 2.314-.353 4.834-.808 1.736-.373 3.347-.684 4.834-.932l2.232-.435v-3.417c0-.58-.124-1.264-.372-2.05 0-.125-.124-.187-.372-.187a9.01 9.01 0 0 0-1.488.124c-.247.042-.723.062-1.425.062-1.24 0-2.066-.269-2.479-.807-.454-.497-.806-1.16-1.054-1.989-.165-.538-.33-1.429-.495-2.671a9.448 9.448 0 0 0-.744-2.61c-.661-.911-1.26-1.636-1.797-2.174-.744-.746-1.116-1.657-1.116-2.734.413 0 .91.29 1.488.87l4.834 4.784c.578 0 1.446-.145 2.603-.435 1.24-.331 1.983-.642 2.23-.932l.187-.249v-.559c0-1.118-.124-1.74-.372-1.864-.207-.124-.744-.31-1.612-.559-.66-.373-1.012-.58-1.053-.621-.124-.166-.455-.249-.992-.249-.454 0-.93.042-1.425.125-.579.082-1.033.124-1.364.124v-.249c0-.124.29-.269.868-.435a17.076 17.076 0 0 0 1.55-.559c1.032-.248 1.859-.373 2.478-.373.62 0 1.322-.207 2.107-.62.538-.374 1.157-.974 1.86-1.803.66-.787 1.466-1.864 2.417-3.23.991-1.657 1.694-2.88 2.107-3.666.62-1.201.93-2.071.93-2.61 0-.58-.29-.87-.868-.87 0-.414.165-.724.496-.932 1.074 0 2.23.187 3.47.56 1.281.372 1.921 1.325 1.921 2.858 0 1.2-.537 2.216-1.61 3.044a25.728 25.728 0 0 1-3.533 2.113c-1.694.787-2.851 1.366-3.471 1.74-.992.496-1.487 1.159-1.487 1.987l.433-.186c1.818-.331 3.202-.56 4.153-.683a23.108 23.108 0 0 1 4.152-.373c1.777 0 3.243.476 4.4 1.429 1.074.952 1.612 2.36 1.612 4.225 0 .662-.166 1.263-.496 1.802-.372.455-.682 1.014-.93 1.677 0 .083-.144.539-.434 1.367l-.372 1.18-1.301 3.418c-.537 1.284-1.074 2.299-1.611 3.044-.62.87-1.26 1.305-1.922 1.305-.578 0-.991-.187-1.239-.56-.413-.703-.64-1.118-.682-1.242-.206-.331-.372-.745-.496-1.243-.124-.414-.31-.62-.557-.62h-1.674c-.537 0-.805.455-.805 1.366v3.107c0 .497.082 1.056.248 1.677h1.363c1.983 0 3.904-.145 5.764-.435 1.074-.165 2.995-.435 5.763-.807l-.186-.622c-.165-.29-.31-.828-.433-1.615l-.186-1.616c.454.29.867.684 1.24 1.18.164.25.33.488.495.715.165.228.33.466.496.715.248.456.764.828 1.55 1.118l2.478.932 2.231.808c.661.248.992.456.992.621l.434 1.802zM80.07 7.829c-.082-.208-.268-.477-.557-.808a1.239 1.239 0 0 1-.31-.808h2.417c.248 0 .557.207.93.621.289.415.578.622.867.622 1.818 0 3.491-.58 5.02-1.74a14.296 14.296 0 0 1 4.71-2.485l-.186.186c0 .124-.062.187-.186.187l-1.177.932c-.414.29-.765.58-1.054.87-.372.29-.785.683-1.24 1.18l-1.177 1.243-.558 1.429c-.206.538-.413 1.242-.62 2.112l-.557 2.05c-.207.58-.455.87-.744.87-1.735 0-2.975-.766-3.718-2.299a83.403 83.403 0 0 1-1.86-4.162zM90.98 18.39c.496.787.826 1.18.991 1.18l2.232.435c.247 0 .495.414.743 1.243 0 .248.062.56.186.932 0 .456-.496.787-1.487.994-.992.166-1.488.642-1.488 1.429v.497c0 .249.062.373.186.373l1.24.124c.33.042.723.062 1.177.062.248 0 .579-.497.992-1.49.413-1.16.62-1.761.62-1.803l.743-2.671c.29-1.326.538-2.237.744-2.734.124-.332.186-.808.186-1.43-.248 0-.723.084-1.425.25l-2.79.372-2.726.373-1.178.186c.083.249.434.808 1.054 1.678zm-4.648 7.828c.372-.124.558-.435.558-.932 0-.455-.186-.683-.558-.683-.744 0-1.302.124-1.674.373-.413.207-1.012.31-1.797.31l1.426-1.429-.186-.434h-2.045c0 1.242.144 2.464.433 3.665 0 .125.248.187.744.187l3.099-1.057zm74.493 4.785c.579.62 1.178.849 1.798.683.248-.124.413-.155.495-.093.083.062.207.093.372.093.744-.456 1.55-.57 2.417-.342.868.228 1.384.632 1.55 1.212a.81.81 0 0 1 .093.652c-.062.228-.176.342-.341.342-.124 0-.186.031-.186.093v.218c0 .082-.041.124-.124.124-.083 0-.186.062-.31.186-.33.207-.496.352-.496.435 0 .083-.113.228-.34.435-.228.207-.548.621-.961 1.243-1.281 1.49-2.314 2.464-3.099 2.92-.29.207-.434.373-.434.497s-.113.3-.34.528c-.228.228-.341.425-.341.59a9.44 9.44 0 0 0-.403.59l-.217.342h-.186c.124.166 0 .394-.372.684-.372.29-.558.372-.558.248-.165 0-.248.031-.248.093 0 .063.083.094.248.094 0 .165-.144.393-.434.683a6.642 6.642 0 0 0-1.301 2.299c-.455.787-.723 1.18-.806 1.18-.082 0-.124.145-.124.435 0 .29-.03.435-.093.435-.062 0-.093.042-.093.125 0 .082-.062.269-.186.559 0 .165.031.331.093.497.062.165.383.331.961.497a9.886 9.886 0 0 0 3.099.714c1.033.062 2.582-.134 4.648-.59 1.611-.414 2.768-.621 3.47-.621.455 0 1.054-.083 1.798-.249.413-.165.692-.28.836-.342.145-.062.383-.258.713-.59.537-.87.888-2.236 1.054-4.1.165-1.036.165-1.782 0-2.237-.248-.663-.269-1.025-.062-1.087.206-.063.537.134.991.59.29.331.579.559.868.683.578 0 .93.456 1.054 1.367 0 .29.082.663.247 1.118.166.456.248.725.248.808 0 .083.145.435.434 1.056.29.622.403 1.046.341 1.274-.062.228-.031.404.093.528v.715c0 .476-.062.797-.186.963 0 .083-.041.362-.124.839-.083.476-.434 1.004-1.053 1.584-.29.497-.538.777-.744.839-.207.062-.765.259-1.674.59l-2.169.31c-.578.083-1.456.083-2.634 0-1.177-.082-2.055-.082-2.633 0-.579.083-.91.052-.992-.093-.083-.145-.165-.103-.248.125-.083.227-.196.3-.34.217-.145-.083-1.023-.207-2.635-.373-1.446 0-2.355-.03-2.727-.093-.371-.062-.847-.259-1.425-.59-.455-.124-.94-.414-1.456-.87-.517-.456-.775-.766-.775-.932 0-.124-.372-.973-1.116-2.547-.124-.29-.186-.777-.186-1.46V45.2c0-.601.062-.901.186-.901l.465-1.026c.31-.683.537-1.108.682-1.273a.868.868 0 0 0 .217-.59c0-.228.144-.539.434-.932.289-.394.433-.653.433-.777s.031-.186.093-.186.176-.166.341-.498a3.59 3.59 0 0 1 .682-.932l.434-.497-.682.311c-.454 0-.806.062-1.054.186-.289.166-.919.28-1.89.342-.97.062-1.456.031-1.456-.093 0-.166-.062-.249-.186-.249-.165.166-.527.083-1.085-.248a12.724 12.724 0 0 0-1.766-.87c-.413-.456-.692-.683-.837-.683-.144 0-.444-.083-.898-.249-.455-.166-.537-.331-.248-.497.454-.124.764-.041.93.249h2.2c.144 0 .423-.042.836-.125.413-.082.62-.155.62-.217s.083-.093.248-.093c0 .124.32.083.96-.125.64-.207 1.002-.341 1.085-.403.083-.063.31-.135.682-.218.372-.083.64-.228.805-.435.124-.124.59-.373 1.395-.745a25.78 25.78 0 0 1 2.076-.87c.62-.124.992-.332 1.116-.622.124-.29.186-.6.186-.931l-.186-.249.433.249zm2.17-8.45c.165.124.62.186 1.363.186.868 0 2.252.476 4.152 1.43.785.33 1.24.703 1.364 1.117.413.622.588 1.191.527 1.71-.062.517-.3.776-.713.776-.165 0-.32.083-.465.248a.707.707 0 0 1-.558.249c-.227 0-.34.041-.34.124 0 .083-.166.124-.496.124-.414 0-.476-.165-.186-.497.124 0 .186-.041.186-.124 0-.083-.062-.124-.186-.124h-.093c-.062 0-.062-.031 0-.094.062-.062.062-.093 0-.093h-.341a.42.42 0 0 1-.31-.124c-.083-.083-.382-.124-.899-.124-.516 0-.805-.031-.867-.093-.062-.063-.166-.094-.31-.094-.145 0-.3-.114-.465-.341-.165-.228-.351-.342-.558-.342h-1.425v-.249c.165 0 .423-.186.774-.559.352-.373.527-.704.527-.994l-.093-.155c-.062-.104-.258-.156-.588-.156-.414 0-.878-.03-1.395-.093a16.95 16.95 0 0 1-1.828-.341c-.785-.166-1.178-.311-1.178-.435.166-.166.475-.249.93-.249l1.301-.373c.29-.083.723-.124 1.302-.124.578 0 .868-.062.868-.186zm-8.553.186c0-.248.072-.373.217-.373.145 0 .3.125.465.373.165.166.454.331.867.497.455.29.827.518 1.116.684.29.165.578.248.868.248.289.124.547.342.774.652.228.311.403.611.527.901.165.497.29.86.372 1.088.083.227-.031.372-.341.435a4.18 4.18 0 0 1-.806.093c-.227 0-.402.114-.526.341-.124.228-.269.342-.434.342-.166 0-.248.083-.248.249 0 .165-.031.248-.093.248s-.31.197-.744.59c-.434.394-.836.694-1.208.901-.372.208-.64.311-.806.311-.702.787-1.136 1.18-1.301 1.18 0-.165-.228-.103-.682.187h-.558c-.083 0-.248-.062-.496-.186a4.064 4.064 0 0 1-.62-.497c-.165-.332-.31-.498-.433-.498-.166 0-.248.083-.248.249 0 .166-.083-.062-.248-.683.33-.125.775-.456 1.332-.995.558-.538.837-.89.837-1.056.165 0 .393-.145.682-.435.289-.29.434-.662.434-1.118.165-.331.382-.684.65-1.056.269-.373.486-.787.651-1.243.165-.456.207-.725.124-.808-.083-.082-.124-.29-.124-.62zm3.533-15.036c0-.165.433-.165 1.301 0 .868.29 1.529.55 1.983.777.455.228.992.9 1.612 2.02.247.413.516 1.076.805 1.987.166.456.176.767.031.932-.144.166-.65.394-1.518.684-.62 0-.971.124-1.054.373-.082.248-.392.372-.93.372-.454 0-.753-.051-.898-.155-.145-.103-.382-.3-.713-.59l-.62-.684-.433.684c-.29.29-.475.435-.558.435-.083 0-.041-.228.124-.684l.186-.435v-.248l.124.124c.082.083.165.083.248 0a.422.422 0 0 0 .124-.31c0-.332.062-.498.186-.498s.155-.269.093-.807c-.062-.539-.238-.953-.527-1.243-.29-.29-.372-.497-.248-.621h-.186c0 .124-.227.02-.682-.31-.702-.746-1.508-1.202-2.417-1.368-.867-.29-.723-.435.434-.435h3.533zm-20.886-.87c.29 0 .517.073.682.218.165.145.32.217.465.217.144 0 .392.114.743.342.352.228.64.342.868.342.227 0 .568.114 1.023.342.454.227.743.341.867.341s.186.031.186.093c0 .063.165.176.496.342.744.497 1.115.89 1.115 1.18 0 .166.062.29.186.373.166.166.248.446.248.84 0 .393-.082.672-.248.838-.124.124-.186.342-.186.652 0 .311-.113.88-.34 1.709-.228.828-.341 1.367-.341 1.615 0 .249-.083.373-.248.373v.87c.165 0 .65-.114 1.456-.342.806-.228 1.281-.3 1.426-.217.144.083.506.124 1.084.124.455 0 .796.042 1.023.124.227.083.485.27.774.56.29.29.465.476.527.559.062.083.093.269.093.559v.683l.434-.683c.29-.456.434-.766.434-.932 0-.124-.072-.414-.217-.87l-.217-.683.992.683c.66.456.991.746.991.87.124.166.258.321.403.466.145.145.29.373.434.683.145.311.3.518.465.622.165.103.392.051.681-.156.248-.165.713-.362 1.395-.59.682-.228 1.229-.487 1.642-.777.91-.455 2.376-.973 4.4-1.553.29 0 .476-.041.558-.124.083-.083.196-.166.341-.249.145-.082.134-.124-.03-.124h.247c.165.166.465.124.899-.124.433-.249.681-.373.743-.373.062 0 .176-.062.341-.186.124-.125.888-.228 2.293-.311 1.405-.083 2.335-.041 2.79.124.578.125 1.011.187 1.3.187.29 0 .662.114 1.116.341.455.228.806.508 1.054.84.454.58.754 1.024.898 1.335.145.31.217.756.217 1.336 0 .787-.072 1.18-.217 1.18-.144 0-.217.104-.217.311a.948.948 0 0 1-.217.59c-.144.187-.216.238-.216.156 0-.083-.083-.052-.248.093-.166.145-.269.186-.31.124-.042-.062-.145-.031-.31.093-.165.166-.434.249-.806.249h-.991c-.248-.166-.455-.166-.62 0-.165.165-.475.041-.93-.373-.454-.414-.681-.683-.681-.808 0-.29-.269-.373-.806-.248-.29.165-.6.248-.93.248-.124 0-.041-.145.248-.435.165-.124.31-.186.434-.186.29-.166.65-.487 1.085-.963.433-.476.65-.777.65-.901l-.867-.249c-.29-.165-.506-.248-.651-.248-.145 0-.506.083-1.085.248-.578.166-.94.28-1.084.342-.145.062-.3.093-.465.093 0 .166-.29.207-.868.125l-.867-.125c0-.124-.145-.124-.434 0-.165 0-.764.083-1.797.249-.29 0-.692.072-1.209.217-.516.145-1.436.26-2.758.342-1.322.083-2.272.29-2.85.621-.414.166-.662.28-.744.342-.083.062-.124.238-.124.528-.166.622-.166 1.16 0 1.616.165.455.206.683.124.683-.083 0-.124.228-.124.684 0 .29-.042.517-.124.683-.083.166-.351.456-.806.87-.496.828-.744 1.274-.744 1.336 0 .062-.04.093-.124.093-.082 0-.31.228-.681.683-.372.456-.672.684-.899.684-.227 0-.372-.114-.434-.342a1.734 1.734 0 0 0-.279-.59c-.165-.29-.33-1.346-.495-3.169-.124-.621-.186-1.098-.186-1.429-.33-.58-.269-1.118.186-1.615.578-.539.805-.89.681-1.057-.124-.124-.268-.041-.434.249-.165.124-.433.259-.805.404-.372.145-.6.217-.682.217a.73.73 0 0 0-.31.093.956.956 0 0 1-.434.094c0 .207-.03.31-.093.31-.062 0-.63.145-1.704.435l-1.301.684-.186 1.367c-.166.91-.28 1.75-.341 2.516a23.932 23.932 0 0 0-.093 1.833c-.165.29-.176.435-.031.435s.444-.145.899-.435c.454-.456.743-.684.867-.684v.435c0 .166-.062.249-.186.249v.807c0 .539-.227 1.077-.681 1.616-.455.538-.744.87-.868.994-.33.166-.496 1.533-.496 4.1 0 1.202-.041 1.906-.124 2.113-.165.124-.248 2.465-.248 7.02 0 1.12.083 2.113.248 2.983v1.18c-.165 0-.206.384-.124 1.15a6.961 6.961 0 0 1-.124 2.268c-.165.746-.248 1.243-.248 1.491 0 .249-.144.476-.433.684-.29.207-.806.269-1.55.186a10.798 10.798 0 0 1-2.23-.497c-1.57-.953-2.5-1.74-2.79-2.361-.165-.29-.33-.497-.496-.621-.867-.663-1.301-1.222-1.301-1.678-.124-.248-.258-.373-.403-.373-.144 0-.217-.124-.217-.373 0-.248-.268-.517-.805-.807-.538-.29-.734-.487-.59-.59.145-.104.517-.073 1.116.093.6.165.93.248.992.248h.093c.165.166.795.29 1.89.373 1.095.083 1.87.041 2.324-.124.413-.166.703-.28.868-.342.165-.062.248-.197.248-.404v-1.553c.124-.746.227-2.31.31-4.691.082-2.382.124-3.655.124-3.821 0-.083-.083-.083-.248 0-.29.373-.95 1.18-1.984 2.423-.413.414-.62.539-.62.373-.165 0-.247.041-.247.124v.218c0 .062-.042.093-.124.093h-.124c0 .165-.103.331-.31.497a12.24 12.24 0 0 1-.992.683c-.454.166-.681.332-.681.497l-.744.062c-.496.042-.888.063-1.178.063-.454 0-.826-.063-1.115-.187-.29-.124-.806-.58-1.55-1.367-.702-.704-1.136-1.056-1.3-1.056l-.342-.28a2.622 2.622 0 0 1-.558-.62l-.216-.343c0-.124.371-.041 1.115.249.413.166.775.207 1.085.124.31-.083.754-.352 1.332-.808.248-.124.455-.186.62-.186.165 0 .392-.155.682-.466.289-.31.66-.694 1.115-1.15.29-.33.64-.641 1.054-.931a99.64 99.64 0 0 1 2.572-1.833c.93-.642 1.477-.963 1.642-.963.124 0 .413-.124.868-.373.33-.166.526-.321.588-.466.062-.145.093-.61.093-1.398.166-.911.28-1.978.341-3.2.062-1.222.031-1.978-.093-2.267 0-.125-.113-.187-.34-.187-.228 0-.651.145-1.271.435-.868.414-1.446.663-1.735.746-.29.082-.785.041-1.488-.125-.909 0-1.466-.041-1.673-.124-.207-.083-.754-.456-1.642-1.118-.889-.663-1.591-1.15-2.108-1.46-.516-.311-.774-.497-.774-.56 0-.062.372-.093 1.115-.093.703 0 1.725-.207 3.068-.621 1.343-.414 2.076-.683 2.2-.808.165-.165.31-.248.434-.248l2.85-1.367c.455-.124.827-.27 1.116-.435h.434v-6.151c0-1.491-.072-2.434-.217-2.827-.144-.394-.671-1.046-1.58-1.957l-1.054-1.367.62.248zm102.196 10.159v.093l-.124.124a2.331 2.331 0 0 0-.216.249l-.093.124c-.166-.166-.248-.166-.248 0 0 .29-1.508.58-4.524.87-.331.166-.64.28-.93.342-.29.062-.589.093-.899.093-.31 0-.764.124-1.363.373-.6.248-1.054.372-1.364.372-.31 0-.857.083-1.642.249-1.777.538-3.12.808-4.028.808h-1.302c-1.24.497-1.973.787-2.2.87-.227.082-.175.33.155.745.413.456.475.746.186.87v.777c0 .145.062.3.186.466 0 .248-.031.528-.093.838-.062.311-.093.808-.093 1.492 0 .683-.072 1.211-.217 1.584a6.782 6.782 0 0 0-.34 1.243c-.083.455-.207.766-.373.931 0 .125-.072.456-.217.995-.144.538-.134.807.031.807 0 .125-.113.466-.34 1.025a7.215 7.215 0 0 0-.465 1.74c-.083.6-.31 1.274-.682 2.02-.372.745-.64 1.346-.806 1.801-.289 1.201-.681 2.133-1.177 2.796-.248.249-.486.642-.713 1.18-.227.54-.413.85-.558.933-.144.082-.258.227-.34.434-.083.208-.176.311-.28.311-.103 0-.154.083-.154.249 0 .124-.073.31-.217.559a4.086 4.086 0 0 1-.403.59l-.186.218c0 .165-.072.434-.217.807a1.45 1.45 0 0 1-.713.808c-.33.29-.495.518-.495.683l-.775 1.026c-.517.683-1.002 1.17-1.456 1.46-1.075.745-1.84 1.429-2.294 2.05-.289.331-.723.621-1.301.87-.33 0-.826.041-1.487.124-.661.083-1.075.042-1.24-.124 0-.124.072-.3.217-.528.145-.228.362-.342.65-.342.331-.166.796-.549 1.395-1.15.6-.6.96-1.045 1.085-1.335l.496-.684c.123-.165.485-.714 1.084-1.646.6-.932.981-1.46 1.147-1.585 0-.124.31-.559.93-1.304 1.693-2.568 3.201-5.758 4.523-9.568.33-1.036.496-1.637.496-1.802.29-.125.558-1.201.806-3.231.206-.29.372-.808.496-1.553.62-2.113.97-3.366 1.053-3.76.083-.393.042-1.025-.124-1.894 0-.787-.041-1.284-.124-1.492-.082-.207-.35-.31-.805-.31-.124 0-.3-.3-.527-.901-.227-.6-.341-.984-.341-1.15l1.116-.186c.743 0 1.952-.238 3.625-.714 1.673-.477 3.11-.943 4.307-1.398 1.53-.622 2.366-.932 2.51-.932.145 0 .444-.114.899-.342a4.352 4.352 0 0 1 1.363-.435c.455-.062.682-.145.682-.249 0-.103.062-.155.186-.155.165 0 .475-.03.93-.093.454-.062.681-.155.681-.28.33-.165.672-.32 1.023-.466.351-.145.899-.176 1.642-.093.744.083 1.415.156 2.014.218.6.062.94.165 1.023.31.083.145.372.383.868.715.454.124.805.383 1.053.776.248.394.269.59.062.59-.165.125-.31.187-.434.187v-.093zm-30.801-4.008c.413-.165 1.24-.248 2.479-.248 1.24 0 2.004.083 2.293.248.248.166.444.332.589.497.144.166.34.322.589.466.247.145.34.363.278.653-.062.29-.134.435-.216.435-.083 0-.124.062-.124.186 0 .207-.186.425-.558.653a4.762 4.762 0 0 1-1.24.528c-.495.165-.919.362-1.27.59-.351.228-.65.342-.899.342-.248 0-.599.082-1.053.248-.744.124-1.343.414-1.798.87-.289.166-.516.249-.681.249-.166.124-.33.352-.496.683-.165.331-.145.56.062.683 0 .125-.072.497-.217 1.119-.145.621-.3 1.077-.465 1.367-.29.29-.516.683-.682 1.18a.422.422 0 0 1-.124.31l-.124.125c-.123-.166-.268-.135-.433.093a1.29 1.29 0 0 0-.248.777c0 .124-.145.424-.434.9-.29.477-.517.715-.682.715-.124 0-.279.187-.465.56-.186.372-.278.642-.278.807 0 .124.092.156.278.093.186-.062.424-.093.713-.093.29-.165 1.24-.538 2.85-1.118a10.763 10.763 0 0 1 4.401-.932c.29 0 .661.155 1.116.466.454.31.681.528.681.652 0 .125.083.27.248.435.166.166.352.663.558 1.491.207.829.31 1.388.31 1.678-.124.497-.186.849-.186 1.056 0 .207-.196.549-.589 1.025a8.03 8.03 0 0 0-.93 1.367c-.227.435-.443.808-.65 1.119-.207.31-.31.548-.31.714 0 .166-.083.249-.248.249-.165 0-.33.207-.496.62 0 .332-.072.529-.217.591a22.77 22.77 0 0 0-1.146.59c-.744.456-1.725.715-2.944.777-1.219.062-1.89.166-2.014.31-.124.146-.186.529-.186 1.15 0 .456-.041.808-.124 1.056-.083.249-.269.373-.558.373-.372.083-.847-.083-1.425-.497a20.072 20.072 0 0 1-.992-.839c-.248-.228-.454-.57-.62-1.025a7.882 7.882 0 0 1-.65-1.895c-.145-.683-.217-1.17-.217-1.46 0-.166-.062-.58-.186-1.243l-.186-.994c-.207 0-.537.26-.992.777-.454.518-.743.86-.867 1.025a7.17 7.17 0 0 1-.589.87l-.34.435-.125.248c-.082.166-.351.477-.805.932a274.673 274.673 0 0 0-2.232 2.486c-.165.124-.33.352-.495.683-.29.331-.734.673-1.333 1.025-.599.352-.981.528-1.146.528-.166 0-.372.083-.62.249l-.496.497v-.497c0-.332-.155-.528-.465-.59l-.465-.094c0-.165.114-.434.341-.807l.341-.56c.165 0 .475-.341.93-1.025.454-.683.878-1.211 1.27-1.584l.59-.56.898-.9c.599-.6 1.198-1.315 1.797-2.144.6-.828 1.012-1.325 1.24-1.49.227-.166.34-.332.34-.498 0-.165.114-.352.341-.559a3.23 3.23 0 0 0 .558-.652c.145-.228.3-.57.465-1.026.578-.62.64-1.076.186-1.366-.124-.166-.186-.321-.186-.466 0-.145.144-.135.434.03.289.125.475.187.557.187.083 0 .186-.145.31-.435.166-.166.362-.466.589-.9.227-.436.424-.736.589-.902a274.1 274.1 0 0 1 1.55-2.299c.619-.91.846-1.45.68-1.615.166 0 .559-.518 1.178-1.553.62-1.036.93-1.616.93-1.74h-1.24c-.826 0-1.239-.103-1.239-.31h-.496c-.496 0-.816-.114-.96-.342-.145-.228-.445-.456-.899-.684-.455-.228-.744-.57-.868-1.025-.454-.58-.65-.953-.588-1.118.062-.166.32-.249.774-.249.62 0 1.828-.217 3.626-.652a47.936 47.936 0 0 0 5.237-1.585c.62-.33 1.156-.497 1.611-.497zm-.248 16.59c0-.29-.454-.29-1.363 0-.496.29-.961.434-1.395.434-.434 0-.713.083-.836.249 0 .166-.424.28-1.27.342a28.71 28.71 0 0 1-1.953.093c-.579 0-.579.331 0 .994v.186c.454.29.837.55 1.146.777.31.228.507.642.59 1.243.082.6.04 1.15-.125 1.646v.684c.165 0 .661-.114 1.488-.342.826-.228 1.322-.425 1.487-.59h.279c.103 0 .3-.104.589-.311.165 0 .248-.073.248-.218v-.838c0-.787.144-1.326.433-1.616.166-.414.362-.973.59-1.677.226-.704.257-1.056.092-1.056zm13.573-22.927c.165-.166.878-.135 2.138.093 1.26.228 2.22.425 2.882.59.289.208.516.311.681.311.455.083 1.054.476 1.797 1.18.744.705 1.116 1.14 1.116 1.305 0 .083.072.239.217.466.145.228.258.539.34.932.083.394.052.694-.092.901-.145.207-.527.394-1.147.56l-.867.496-.992-.497c-.413-.248-.764-.33-1.053-.248-.166 0-.28-.02-.341-.062-.062-.042-.093-.145-.093-.31-.166-.29-.558-.83-1.178-1.616-1.776-1.533-2.747-2.444-2.913-2.734 0-.166-.124-.394-.372-.684-.247-.29-.289-.517-.123-.683zM28.013 72.862c.62-.124 1.136-.062 1.549.186.29.166.578.249.868.249.33 0 .63.114.898.342.269.227.475.455.62.683.145.228.3.404.465.528.165.332.32.632.465.901.144.27.134.487-.031.652l-.186.435c0 .29-.114.539-.341.746-.227.207-.424.31-.589.31-.124 0-.29.083-.496.25a1.026 1.026 0 0 1-.65.248c-.228 0-.383.072-.465.217-.083.145-.3.259-.651.342l-.527.124c0 .124-.268.332-.805.621-.538.29-.868.435-.992.435-.165 0-.248.063-.248.187 0 .165.372.248 1.116.248a.97.97 0 0 1 .743.342c.207.228.579.414 1.116.56.537.144.878.403 1.022.776.145.373.393.776.744 1.211.351.435.527.767.527.995 0 .227.196.714.589 1.46.392.745.65 1.253.774 1.522.124.269.413 1.004.868 2.205.744 2.196 1.26 3.293 1.55 3.293v.218c0 .145.061.3.185.466.166.166.362.466.589.9.227.436.403.715.527.84 0 .62.372 1.366 1.115 2.236.29.456.434.715.434.777 0 .062.186.31.558.745.372.435.671.912.899 1.43.227.517.485 1.004.774 1.46.29.455.434.714.434.776 0 .062.217.352.65.87.435.518.755 1.005.961 1.46.207.456.507.818.9 1.087.392.27.588.446.588.529 0 .082.248.372.744.87.495.496.97.828 1.425.994.29.165.475.32.558.466.082.144.526.465 1.332.963.806.497 1.498.828 2.076.994 1.033.621 1.55.994 1.55 1.118l-.248.249c-.413.165-.93.165-1.55 0a6.276 6.276 0 0 0-1.735-.249c-1.322.166-2.83.249-4.524.249s-2.541-.083-2.541-.249c0-.124-.062-.124-.186 0-.33.166-1.074-.414-2.231-1.74-.702-.745-1.054-1.232-1.054-1.46 0-.228-.113-.631-.34-1.211a70.089 70.089 0 0 0-1.023-2.423c-.454-1.036-.744-1.771-.868-2.206-.124-.435-.413-1.087-.867-1.957-1.157-2.361-2.19-4.95-3.099-7.767-1.942-4.846-2.913-7.414-2.913-7.704 0-.166-.206-.746-.62-1.74-.289-.745-.506-1.19-.65-1.335-.145-.145-.444-.363-.899-.653-.413-.29-.62-.518-.62-.683-.165-.456-.361-.684-.588-.684-.228 0-.754.228-1.58.684-.455.165-.94.362-1.457.59-.517.228-.775.404-.775.528l.186.218a.557.557 0 0 0 .434.217c.165 0 .248.031.248.093s.186.135.557.218c.372.083.734.383 1.085.9.351.518.6.922.744 1.212.144.29.33.621.558.994.227.373.34.994.34 1.864 0 .621-.072 1.295-.217 2.02-.144.724-.3 1.17-.464 1.335-.124.29-.269.87-.434 1.74-.29.87-.64 2.257-1.054 4.163-.165.455-.31.911-.434 1.367-.33.994-.557 2.526-.681 4.597 0 .29-.083.663-.248 1.119-.165.455-.31.911-.434 1.367 0 .538-.072 1.139-.217 1.801-.145.663-.279.995-.403.995v.248a.562.562 0 0 0 .403.186c.145 0 .506-.227 1.085-.683 1.033-.414 1.776-.694 2.23-.839a3.592 3.592 0 0 0 1.21-.652c.35-.29.609-.435.774-.435.29 0 .207-.29-.248-.87a4.246 4.246 0 0 0-.868-.435c-.454-.331-.681-.528-.681-.59 0-.062-.104-.135-.31-.218-.207-.082-.31-.207-.31-.372 0-.249.599-.311 1.797-.187h.837c.31 0 .465.031.465.093 0 .063.144.094.433.094.29-.125.91.114 1.86.714.95.6 1.714 1.191 2.293 1.77l.93 1.12c0 .124.103.269.31.434.206.166.423.497.65.994.227.497.34.89.34 1.18v.498c.29.083.393.28.31.59-.082.31-.237.694-.464 1.15-.227.455-.486.745-.775.87-.248.124-.599.124-1.053 0-.744-.125-1.26-.3-1.55-.529-.289-.228-.516-.652-.681-1.273-.29-.29-.476-.435-.558-.435-.083 0-.238-.218-.465-.653-.227-.435-.382-.797-.465-1.087 0-.29-.041-.518-.124-.683a12.813 12.813 0 0 1-.34-.777c-.145-.352-.259-.528-.341-.528-.083 0-.352.31-.806.932-.703.87-1.715 1.947-3.037 3.23-.29.332-.351.56-.186.684h-.248c0-.124-.186-.041-.558.249l-.557.434h-.248c.165.166.103.311-.186.435-.29.125-.434.228-.434.311 0 .083-.227.352-.682.808-.454.455-.681.745-.681.87.165.29.062.58-.31.87-.372.29-.703.434-.992.434-.867.166-1.508-.331-1.921-1.49-.455-.788-.723-1.181-.806-1.181-.082 0-.165-.104-.248-.311a1.459 1.459 0 0 0-.31-.497c-.33-.166-.413-.435-.247-.808.165-.373.475-.559.93-.559.288-.166.64-.393 1.053-.683.578-.249.95-.642 1.115-1.18.166-.54.455-1.678.868-3.418.29-2.361.434-5.737.434-10.127 0-3.563.041-5.344.124-5.344.082 0 .155-1.056.217-3.168.062-2.113.03-3.397-.093-3.853-.166-.455-.29-.724-.372-.807a.42.42 0 0 0-.31-.125c-.413 0-.847.114-1.301.342-.455.228-1.013.3-1.674.218-.66-.083-1.033-.083-1.115 0-.083.082-.083.414 0 .994.082.58.165 1.2.248 1.864.082.662.154 1.222.216 1.677.062.456.062 1.305 0 2.548a66.046 66.046 0 0 0-.092 3.23v1.616c0 .083-.083.528-.248 1.336-.166.807-.248 1.387-.248 1.74 0 .351-.031.569-.093.652-.062.083-.176.414-.341.994-.124.745-.475 1.78-1.054 3.106-.289.58-.516 1.18-.681 1.802 0 .29-.114.58-.341.87-.228.29-.403.58-.527.87-.124.29-.186.549-.186.776 0 .228-.186.518-.558.87-.372.352-.558.642-.558.87 0 .228-.04.342-.123.342-.083 0-.197.155-.341.466-.145.31-.32.6-.527.87-.207.269-.393.404-.558.404h-.248c.165.33-.124.87-.867 1.615l-.434.373c0 .29-.372.828-1.116 1.615-1.157 1.16-1.88 1.595-2.169 1.305-.165 0-.537.145-1.115.435-1.199.29-1.86.352-1.984.186-.165 0 .124-.373.868-1.118 1.777-1.616 3.099-3.148 3.966-4.598.455-.58.827-1.16 1.116-1.74l.96-1.832c.228-.435.486-1.15.775-2.144a64.897 64.897 0 0 0 1.116-3.541c.578-2.03 1.012-5.199 1.301-9.506.165-1.036.29-1.916.372-2.641.083-.725.041-1.087-.124-1.087s-.165-.073 0-.218c.165-.145.165-.652 0-1.522a32.753 32.753 0 0 0-.682-4.039c-.289-.704-.475-1.17-.557-1.398-.083-.227.04-.424.371-.59.414 0 1.064.114 1.953.342.888.228 1.332.507 1.332.839l.248.186c.248.124 1.405-.248 3.47-1.118.62-.29 1.333-.653 2.139-1.088a89.68 89.68 0 0 0 1.642-.9c.124-.125.33-.27.62-.435 1.487-.87 2.85-1.75 4.09-2.641 1.24-.89 1.86-1.48 1.86-1.77 0-.166-.145-.477-.434-.933-.124-.29-.186-.466-.186-.528s.062-.093.186-.093zm52.12 4.35h.806c1.611.206 2.727.58 3.347 1.118.413.414.671.745.774.994.104.248.217.745.341 1.49 0 .167-.03.467-.093.902-.062.435-.144.683-.248.745-.103.062-.155.176-.155.342 0 .29-.03.58-.093.87-.062.29-.175.435-.34.435-.124 0-.186.072-.186.217 0 .145-.259.735-.775 1.771-.517 1.036-.775 1.584-.775 1.646 0 .063-.113.27-.34.622-.228.352-.527.921-.9 1.708-.371.787-.598 1.18-.681 1.18-.083 0-.124.063-.124.187 0 .125-.093.218-.279.28l-.279.093c0 .166-.196.507-.588 1.025l-.59.777c-.454 0-.888.31-1.3.932-.166.166-.331.248-.496.248-.414 0-.62.176-.62.528 0 .353.144.674.434.964.454.455 1.26.6 2.417.434 1.942-.124 2.974-.269 3.098-.434v-.125a.298.298 0 0 0-.093-.217l-.217-.218a1.619 1.619 0 0 0-.34-.248l-.217-.124c.124-.125.34-.187.65-.187s.527.062.651.187l.682.248c.578 0 1.55-.27 2.913-.808l.62-.559c.33 0 .93-.207 1.797-.621 1.776-.704 3.532-1.056 5.268-1.056.826 0 1.508.072 2.045.217.537.145 1.095.507 1.673 1.087.661.622 1.054.932 1.178.932.247 0 .371.642.371 1.926 0 .87-.062 1.492-.185 1.864a4.14 4.14 0 0 0-.186 1.305c0 .124-.083.518-.248 1.18-.166.663-.31 1.078-.434 1.243 0 .125-.083.477-.248 1.056a22.09 22.09 0 0 0-.34 1.305c-.063.29-.26.953-.59 1.988a31.531 31.531 0 0 1-1.487 4.474c-.455 1.16-.806 1.988-1.054 2.485 0 .083-.051.207-.155.373-.103.166-.185.248-.247.248h-.093c0 .083-.217.404-.651.964-.434.559-.765.838-.992.838h-.34c0-.165-.145-.29-.434-.373-.29-.082-.517-.04-.682.125-.165.165-.362.165-.589 0-.227-.166-.403-.249-.527-.249s-.258-.083-.403-.248c-.144-.166-.3-.249-.464-.249l-1.116-1.056c0-.58-.144-1.087-.434-1.522-.289-.435-.64-.735-1.053-.901-.496-.124-.744-.352-.744-.684 0-.124-.145-.372-.434-.745-.289-.373-.496-.56-.62-.56-.165 0-.433.26-.805.777-.372.518-.703.953-.992 1.305-.289.352-.434.6-.434.746 0 .145-.113.217-.34.217-.228 0-.486.083-.775.249-.29.165-.568.28-.837.341a1.134 1.134 0 0 0-.65.404c-.62.414-1.281.539-1.984.373l-.496.248c-.165 0-.464.114-.898.342-.434.228-.723.342-.868.342-.144 0-.516.103-1.115.31-.6.208-1.157.394-1.674.56-.516.165-.878.31-1.084.435-.207.124-.393.186-.558.186-.29 0-.062-.207.682-.621.289-.166.599-.332.93-.497 3.387-1.781 5.742-3.915 7.064-6.4.166-.29.393-.745.682-1.367.248-.414.558-.921.93-1.522.372-.6.63-1.046.774-1.336.145-.29.217-.497.217-.621.29-.29.661-1.243 1.116-2.858.454-1.201.62-2.009.496-2.423-.207 0-1.075-.052-2.603-.156-1.529-.103-2.459-.217-2.79-.341-1.156-.58-1.879-1.16-2.168-1.74-.165-.456-.393-.538-.682-.248-.578.455-.93.683-1.054.683v-.435l-.247-.248c0 .165-.155.32-.465.466-.31.144-.506.217-.589.217-.29-.166-1.632-.249-4.028-.249-1.777 0-2.727-.072-2.851-.217-.124-.145 0-.217.372-.217.165-.166.413-.249.743-.249.414 0 1.384-.352 2.913-1.056.372-.125 1.043-.642 2.014-1.554.971-.91 1.746-1.74 2.324-2.485.29-.414.982-1.097 2.077-2.05 1.094-.953 1.725-1.574 1.89-1.864 1.322-1.823 2.066-2.962 2.23-3.417.125-.249.414-1.015.869-2.3.454-1.283.64-2.101.557-2.453-.082-.352-.35-.528-.805-.528-1.116-.29-1.674-.663-1.674-1.119zm13.883 17.955c-.33-.124-.579-.186-.744-.186-.868 0-1.735.29-2.603.87-.578.455-1.59.89-3.037 1.304l-.743.249v.621c.165.622.33.994.495 1.119.166.165.248.693.248 1.584 0 .89-.124 1.512-.372 1.864-.247.352-.516.9-.805 1.646-.29.746-.651 1.605-1.085 2.579-.434.973-.65 1.522-.65 1.646 0 .166.485.497 1.456.994.97.497 1.807.829 2.51.994.867.29 1.446.404 1.735.342.29-.062.558-.28.806-.652.248-.373.372-.642.372-.808 0-.166.217-.797.65-1.895.434-1.098.682-1.864.744-2.299a81.65 81.65 0 0 1 .279-1.77c.62-1.782.96-3.563 1.023-5.344.062-1.78-.031-2.734-.28-2.858zm-6.88-22.554c.166 0 .827.063 1.984.187a6.867 6.867 0 0 1 2.665 1.553c.289.166.578.394.867.684.413.29.981.776 1.705 1.46.723.683 1.187 1.087 1.394 1.211.165.125.423.404.775.839.35.435 1.146 1.19 2.386 2.268 2.892 2.94 5.02 4.908 6.383 5.902.248.497.527.777.837.84.31.061.61.196.898.403.29.207 1.023.652 2.2 1.336 1.178.683 1.798 1.087 1.86 1.211.062.125.134.187.217.187.082 0 .33.228.743.683.496.166.775.321.837.466.062.145.093.445.093.901 0 .58.03.942.093 1.087.062.145.062.249 0 .311s-.424.145-1.085.249c-.66.103-.991.103-.991 0 0-.104-.073-.063-.217.124-.145.186-.692.186-1.643 0-.95-.187-1.549-.31-1.797-.373a29.463 29.463 0 0 1-1.363-.404c-.661-.207-1.405-.6-2.231-1.18-.62-.497-1.364-1.18-2.231-2.05-.868-.87-1.488-1.533-1.86-1.989a15.371 15.371 0 0 0-.743-.87c-1.24-1.325-3.326-4.142-6.26-8.45a46.594 46.594 0 0 0-1.24-1.522 46.594 46.594 0 0 1-1.239-1.522c-.537-1.036-1.198-1.553-1.983-1.553-.124 0-.186-.094-.186-.28 0-.186-.062-.186-.186 0s-.227.238-.31.155c-.082-.082-.568-.124-1.456-.124h-1.58c-.124.166-.341.207-.651.124-.31-.082-.465-.227-.465-.434 0-.208.888-.56 2.665-1.057.744-.124 1.115-.248 1.115-.373z"/>
        <filter id="a" width="111.7%" height="124.3%" x="-5.9%" y="-8.7%" filterUnits="objectBoundingBox">
            <feOffset dy="4" in="SourceAlpha" result="shadowOffsetOuter1"/>
            <feGaussianBlur in="shadowOffsetOuter1" result="shadowBlurOuter1" stdDeviation="4"/>
            <feColorMatrix in="shadowBlurOuter1" values="0 0 0 0 0.0142263621 0 0 0 0 0.0505987194 0 0 0 0 0.282233206 0 0 0 1 0"/>
        </filter>
        <path id="d" d="M151.36 69.86h1.26c.72 0 1.15.1 1.29.3.14.2.36.45.66.75.3.3.51.73.63 1.29.16.44.2.97.12 1.59-.08.62-.24 1.23-.48 1.83-.32.4-.48.74-.48 1.02s-.11.53-.33.75c-.22.22-.3.33-.24.33s-.05.18-.33.54c-.28.36-.31.54-.09.54s.52-.1.9-.3c.38-.2.77-.3 1.17-.3.56-.32.92-.51 1.08-.57.16-.06.24-.17.24-.33.12-.28.36-.46.72-.54.36-.08.57-.15.63-.21.06-.06.34.01.84.21.5.2.89.3 1.17.3.44 0 .91.15 1.41.45.5.3.75.57.75.81.32.88.32 1.6 0 2.16-.28.44-.48.88-.6 1.32-.12.84-.5 1.62-1.14 2.34-.56.44-.91.87-1.05 1.29-.14.42-.35.77-.63 1.05l-.54.54c-.08.08.04.24.36.48.12.28.18.5.18.66 0 1.28-.14 2.06-.42 2.34-.16.16-.31.24-.45.24s-.29.14-.45.42h-1.44c-.6-.16-.93-.2-.99-.12-.06.08-.17.23-.33.45s-.24.39-.24.51c-.12.28-.76.86-1.92 1.74-.4.4-.6.52-.6.36 0-.12-.16-.12-.48 0-.44.44-.86.44-1.26 0-.28-.12-.53-.18-.75-.18-.22 0-.69-.03-1.41-.09s-1.22-.03-1.5.09l-.48.18.48.42c.28.32.42.79.42 1.41 0 .62.08 1.01.24 1.17.12.16 1.54-.06 4.26-.66.44 0 .94-.03 1.5-.09s1.21-.19 1.95-.39 1.33-.3 1.77-.3h1.44c.44.12.66.22.66.3 0 .08.28.08.84 0 .56-.08.95-.05 1.17.09.22.14.49.21.81.21.84.28 1.64.78 2.4 1.5.4.28.6.7.6 1.26.12.72-.04 1.16-.48 1.32-.08.12-.34.15-.78.09s-.66-.17-.66-.33-.18-.27-.54-.33c-.36-.06-.57-.02-.63.12-.06.14-.39.17-.99.09-.6-.08-1.18-.18-1.74-.3-.12-.16-.4-.27-.84-.33-.44-.06-.8-.06-1.08 0l-.42.09-.21.12c-.14.08-.25.08-.33 0l-.12-.12h-1.71c-1.02 0-1.85.11-2.49.33-.64.22-1.52.25-2.64.09h-1.98v.24c0 .16.07.31.21.45.14.14.35.27.63.39.6.44 1.47 1.08 2.61 1.92 1.14.84 1.81 1.34 2.01 1.5l1.08.87c.52.42 1.28.92 2.28 1.5 1 .58 1.68 1 2.04 1.26.36.26.75.54 1.17.84.42.3.77.52 1.05.66s.75.35 1.41.63c.66.28 1.21.48 1.65.6.68.6 1.88 1.18 3.6 1.74.92.28 1.66.56 2.22.84.56.28.92.42 1.08.42.12 0 .32.11.6.33l.42.33c0 .12-.2.4-.6.84l-.66.42h-1.92c-.32 0-.63.04-.93.12-.3.08-.55.12-.75.12h-.3c0 .12-.29.18-.87.18-.58 0-1.19-.03-1.83-.09-.64-.06-1.1-.17-1.38-.33-.12 0-.18.04-.18.12 0 .08-.06.18-.18.3-.2 0-.52-.06-.96-.18h-1.05c-.42 0-1.13-.22-2.13-.66-.56-.44-1.02-.8-1.38-1.08-.36-.28-.98-.84-1.86-1.68-2.56-2.56-4.24-4.3-5.04-5.22-.8-.92-1.34-1.58-1.62-1.98-.28-.44-.72-1.04-1.32-1.8-.84-.8-1.26-1-1.26-.6 0 .16-.1.38-.3.66-.2.28-.44.77-.72 1.47-.28.7-.46 1.05-.54 1.05-.08 0-.15.15-.21.45-.06.3-.17.45-.33.45h-.24c0 .28-.14.63-.42 1.05-.28.42-.52.63-.72.63-.24.16-.36.3-.36.42 0 .28-.14.36-.42.24v.18c.12.16.04.38-.24.66-.28.28-.64.48-1.08.6-.4.32-.67.55-.81.69-.14.14-.29.21-.45.21-.16 0-.35.11-.57.33-.22.22-.4.33-.54.33s-.27.06-.39.18-.45.36-.99.72-.87.54-.99.54h-.24c-.12.16-.39.34-.81.54-.42.2-.71.24-.87.12-.16 0-.24.03-.24.09s-.21.09-.63.09c-.42 0-.77.07-1.05.21-.28.14-.59.14-.93 0-.34-.14-.78-.14-1.32 0s-.87.21-.99.21c-.12-.12-.06-.26.18-.42.16 0 .7-.2 1.62-.6.52-.16 1.42-.66 2.7-1.5 2.2-1.44 3.92-3.06 5.16-4.86.6-.88 1.04-1.46 1.32-1.74.4-.4.86-1.25 1.38-2.55.52-1.3.7-2.03.54-2.19 0-.12-.86.04-2.58.48-1.12.28-1.87.42-2.25.42-.38 0-.71.11-.99.33-.28.22-.42.39-.42.51 0 .28-.18.45-.54.51-.36.06-1.1.09-2.22.09-1.56 0-2.42-.06-2.58-.18-1.6-.84-2.62-1.56-3.06-2.16-.52-.68-.58-1.02-.18-1.02.12 0 .26.08.42.24.72.4 1.22.46 1.5.18.28 0 .75-.03 1.41-.09.66-.06 1.02-.13 1.08-.21.06-.08.35-.16.87-.24.52-.08.84-.19.96-.33s.36-.21.72-.21.72-.07 1.08-.21c.36-.14.83-.21 1.41-.21s.95-.08 1.11-.24c1.12-.24 2.62-.5 4.5-.78.84 0 1.34-.08 1.5-.24.28-.28.64-.92 1.08-1.92.16-.44.24-.73.24-.87s-.08-.43-.24-.87c-.28-.4-.57-.71-.87-.93-.3-.22-.41-.4-.33-.54.08-.14.26-.21.54-.21.6 0 1.32.28 2.16.84.44.32.72.48.84.48s.32-.16.6-.48c.32-.28.62-.48.9-.6.44-.32.99-.69 1.65-1.11.66-.42 1.16-.81 1.5-1.17l.51-.54.84-1.02c.32-.44.48-.77.48-.99 0-.22-.16-.45-.48-.69-.44-.32-.69-.4-.75-.24-.06.16-.09.16-.09 0v-.24c-.16.16-.34.13-.54-.09s-.36-.33-.48-.33c-1.08-.12-1.62-.26-1.62-.42 0-.16-.06-.24-.18-.24s-.22-.03-.3-.09c-.08-.06-.26.02-.54.24s-.67.33-1.17.33c-.5 0-.79.03-.87.09-.08.06-.26.09-.54.09-.28-.12-.84-.12-1.68 0-.16.16-.24.16-.24 0 0-.28.16-.5.48-.66.28 0 .45-.13.51-.39s.09-.33.09-.21c0 .28.42-.08 1.26-1.08.16-.16.24-.3.24-.42.56-.44.84-.72.84-.84s.32-.65.96-1.59c.64-.94 1.12-1.63 1.44-2.07 1.84-3.56 2.84-5.68 3-6.36.28-.84.28-1.48 0-1.92-.16-.16-.24-.31-.24-.45s.08-.27.24-.39zm4.08 13.2l.33-.33c.06-.06.31-.55.75-1.47.44-.92.66-1.42.66-1.5 0-.08-.04-.15-.12-.21-.08-.06-.26-.03-.54.09-.28.16-.53.27-.75.33-.22.06-.33.13-.33.21 0 .08-.29.26-.87.54-.58.28-1.34.42-2.28.42-.94 0-1.41.07-1.41.21 0 .14-.2.43-.6.87-.72.68-1 1.02-.84 1.02l-.24.42c-.12.16-.22.28-.3.36-.08.08-.05.15.09.21s.29.09.45.09h.66c.52 0 1.04.04 1.56.12.52.08 1.02.16 1.5.24.48.08.8.18.96.3 0 .12.15.01.45-.33.3-.34.59-.87.87-1.59zm-17.4-13.02c0-.28.48-.14 1.44.42 2.04 1 3.06 2.42 3.06 4.26 0 .76.04 1.27.12 1.53.08.26.08.75 0 1.47s-.19 1.75-.33 3.09c-.14 1.34-.28 2.51-.42 3.51-.14 1-.26 1.82-.36 2.46-.1.64-.18 1.31-.24 2.01-.06.7-.06 1.41 0 2.13s.03 1.14-.09 1.26c-.12.44-.26 1.66-.42 3.66 0 .28-.14.48-.42.6-.6.44-1.1.32-1.5-.36-.84-1.72-1.26-2.72-1.26-3 0-.28-.11-.71-.33-1.29-.22-.58-.26-.9-.12-.96.14-.06.21-.41.21-1.05 0-.64-.07-1.14-.21-1.5-.14-.36-.25-.51-.33-.45-.08.06-.12.25-.12.57 0 .28-.06.49-.18.63s-.4.35-.84.63c-1.88 1.56-3.12 2.34-3.72 2.34-.84 0-1.26.22-1.26.66-.16.4-.58.54-1.26.42-.44-.16-1.09-.7-1.95-1.62-.86-.92-1.29-1.55-1.29-1.89 0-.34-.08-.59-.24-.75-.16-.28-.16-.61 0-.99s.38-.69.66-.93c.44-.28.76-.6.96-.96.2-.36.6-.96 1.2-1.8 1-1.44 1.64-2.55 1.92-3.33.28-.78.28-1.53 0-2.25-.16-.4-.48-.78-.96-1.14-.48-.36-.72-.62-.72-.78l.42-.09c.28-.06.45-.09.51-.09s.41.03 1.05.09c.64.06 1.25.2 1.83.42.58.22.97.33 1.17.33.2 0 .52.22.96.66.76.56.92 1.26.48 2.1-.32.84-.62 1.34-.9 1.5-.16.16-.3.24-.42.24-.28.44-.64.36-1.08-.24-.44-.44-.66-.52-.66-.24l-.39.24c-.26.16-.43.35-.51.57-.08.22-.19.36-.33.42s-.21.16-.21.3c0 .14-.04.21-.12.21-.08 0-.23.21-.45.63-.22.42-.36.63-.42.63s-.16.14-.3.42c-.14.28-.43.64-.87 1.08-.88.72-1.26 1.28-1.14 1.68.16.28.3.36.42.24.64-.16 1.18-.44 1.62-.84.24-.16.93-.59 2.07-1.29 1.14-.7 1.87-1.13 2.19-1.29.4-.28.67-.49.81-.63s.57-.35 1.29-.63c.72-.28 1.24-.42 1.56-.42.44 0 .8-.44 1.08-1.32.12-.84.28-2.18.48-4.02.2-1.84.24-3.12.12-3.84-.16-.56-.34-1.2-.54-1.92s-.36-1.08-.48-1.08c-.16-.12-.24-.26-.24-.42zm71.66 20.22c.16-.16.88-.3 2.16-.42 1.28-.12 2.42-.18 3.42-.18.56 0 .94.06 1.14.18.2.12.46.32.78.6.56.6.84 1.01.84 1.23 0 .22-.22.43-.66.63-.44.2-.86.3-1.26.3-.28 0-.49.07-.63.21-.14.14-.57.21-1.29.21-.72.16-1.5.35-2.34.57-.84.22-1.3.39-1.38.51-.08.12-.4.18-.96.18-.88 0-1.02.22-.42.66.16.16.36.3.6.42.6.44 1.1 1 1.5 1.68.16.32.34.55.54.69.2.14.38.21.54.21.56 0 .84-.07.84-.21 0-.14.64-.07 1.92.21 1 .16 1.64.31 1.92.45s.64.33 1.08.57c.84 1.04.84 1.56 0 1.56-.44 0-1.37.13-2.79.39s-2.41.39-2.97.39c-.84 0-1.4.44-1.68 1.32-.16.56-.02.84.42.84.12 0 .6-.14 1.44-.42 1.16-.4 2.24-.54 3.24-.42 1.56.16 2.68.66 3.36 1.5.32.28.51.49.57.63.06.14.09.43.09.87-.12 1-.82 1.84-2.1 2.52-.6.28-1.35.7-2.25 1.26-.9.56-1.87 1.14-2.91 1.74-1.4.88-1.74 1.38-1.02 1.5.4 0 1.12-.06 2.16-.18.96-.16 2.58-.38 4.86-.66 2.28-.28 4.06-.36 5.34-.24 1.24.32 2.15.58 2.73.78.58.2 1.29.5 2.13.9.44.32.66.76.66 1.32s-.07.95-.21 1.17c-.14.22-.51.33-1.11.33-.52-.16-.85-.17-.99-.03s-.37.15-.69.03c-.12-.16-.29-.2-.51-.12-.22.08-.69.26-1.41.54-.28.16-.66.27-1.14.33-.48.06-.76.09-.84.09h-.36v.18c0 .16-.07.24-.21.24a.84.84 0 0 1-.42-.12c-.14-.08-.29-.18-.45-.3-.12-.28-.32-.32-.6-.12-.28.2-.42.24-.42.12s.21-.33.63-.63c.42-.3.63-.73.63-1.29l.18-.6-3.12.18c-2 0-3.47.07-4.41.21-.94.14-1.41.14-1.41 0s-.13-.11-.39.09-1.47.3-3.63.3h-2.76c-.44 0-.94.16-1.5.48-.96.4-3.08 1.1-6.36 2.1-1.16.28-1.92.46-2.28.54-.36.08-.74-.02-1.14-.3-.32 0-.72-.25-1.2-.75l-1.35-1.41c-.42-.44-.57-.66-.45-.66 0-.12.39-.04 1.17.24.78.28 1.45.42 2.01.42.72.16 2.18-.04 4.38-.6 2.2-.56 3.3-.92 3.3-1.08 0-.16.08-.16.24 0 .16 0 .65-.15 1.47-.45.82-.3 1.23-.51 1.23-.63.16-.28.07-.92-.27-1.92-.34-1-.65-1.56-.93-1.68-.16 0-.54.14-1.14.42-.96.4-1.74.48-2.34.24-.96-.72-1.74-2.02-2.34-3.9-.4-1.56-.32-2.34.24-2.34.28 0 .42.07.42.21 0 .14.18.25.54.33.36.08.62.12.78.12.16 0 .41.18.75.54.34.36.51.68.51.96 0 .12.28.44.84.96.56.52.98.78 1.26.78.16 0 .66-.22 1.5-.66l1.08-.66v-3.6h-2.58c-1.56.12-2.55.11-2.97-.03-.42-.14-.99-.49-1.71-1.05-.84-.84-1.26-1.48-1.26-1.92 0-.28.1-.24.3.12.2.36.48.54.84.54s.65.03.87.09c.22.06.69.09 1.41.09.56-.12 1.62-.36 3.18-.72s2.34-.62 2.34-.78c.16-.16.31-.76.45-1.8l.21-1.56c-.56-.88-1.22-1.32-1.98-1.32-.8 0-2.36-.5-4.68-1.5-.4-.12-.6-.26-.6-.42h.24c.16-.16.5-.24 1.02-.24 4.84-.68 7.68-1.38 8.52-2.1zm4.5 13.62c-.12-.16-.44-.24-.96-.24s-1.09.11-1.71.33c-.62.22-1.01.49-1.17.81-.16.28-.2 1.13-.12 2.55.08 1.42.26 2.27.54 2.55.16.16.48-.19.96-1.05.48-.86 1.01-1.79 1.59-2.79.58-1 .87-1.72.87-2.16zm-9.6-32.16c.16-.12.3-.15.42-.09s.58.23 1.38.51c.8.28 1.56.64 2.28 1.08.44.4.9.93 1.38 1.59.48.66.58 1.07.3 1.23-.28.24-.5.72-.66 1.44.16 0 .27.07.33.21.06.14.53.29 1.41.45 1.44.4 3.08 1.24 4.92 2.52 4.12 2.72 7.38 4.78 9.78 6.18.44.32.8.58 1.08.78.28.2.52.3.72.3.2 0 .6.28 1.2.84.68.6 1.95 1.43 3.81 2.49 1.86 1.06 3.01 1.59 3.45 1.59.12 0 .18.1.18.3 0 .2-.78.52-2.34.96-2.28.72-3.95 1.19-5.01 1.41-1.06.22-2.03.11-2.91-.33-.28-.16-.77-.59-1.47-1.29-.7-.7-.99-1.13-.87-1.29v-.12c0-.08-.06-.12-.18-.12l-1.26-1.02c-1.88-1.84-4.38-4.04-7.5-6.6-.96-.88-1.96-1.8-3-2.76-1.4-1.44-2.49-2.23-3.27-2.37-.78-.14-1.75.27-2.91 1.23-.68.88-1.35 1.92-2.01 3.12-.66 1.2-1.01 1.84-1.05 1.92-.04.08-.43.69-1.17 1.83a77.31 77.31 0 0 0-1.71 2.73c-.56.88-1.31 1.74-2.25 2.58-.94.84-1.58 1.59-1.92 2.25-.34.66-.55.99-.63.99-.08 0-.26.2-.54.6-.12.28-.65.92-1.59 1.92-.94 1-1.61 1.64-2.01 1.92-.28.16-.98.16-2.1 0-.88-.12-1.32-.26-1.32-.42v-.24c.28-.12.63-.35 1.05-.69.42-.34 1.15-.95 2.19-1.83 1.12-.84 1.86-1.48 2.22-1.92.36-.44 1.1-1.44 2.22-3 3.52-5.24 6.5-10.42 8.94-15.54.84-1.72 1.3-2.75 1.38-3.09.08-.34-.16-.73-.72-1.17-.56-.6-.78-.96-.66-1.08h.42z"/>
        <filter id="c" width="125.2%" height="157.8%" x="-12.6%" y="-20.6%" filterUnits="objectBoundingBox">
            <feOffset dy="4" in="SourceAlpha" result="shadowOffsetOuter1"/>
            <feGaussianBlur in="shadowOffsetOuter1" result="shadowBlurOuter1" stdDeviation="4"/>
            <feColorMatrix in="shadowBlurOuter1" values="0 0 0 0 0.0156862745 0 0 0 0 0.0509803922 0 0 0 0 0.282352941 0 0 0 1 0"/>
        </filter>
    </defs>
    <g fill="none" fill-rule="evenodd">
        <g transform="translate(5 2)">
            <use fill="#000" filter="url(#a)" xlink:href="#b"/>
            <use fill="#FE7918" xlink:href="#b"/>
        </g>
        <path fill="#FFF" fill-opacity=".8" d="M8.057 41.66c.248 0 1.013-.403 2.293-1.211a116.6 116.6 0 0 0 4.122-2.734 167.07 167.07 0 0 1 4.214-2.827c1.343-.87 2.097-1.45 2.262-1.74.165-1.076.248-1.884.248-2.423v-3.23l-.248-.373c-.66 0-1.301.3-1.921.9-.62.601-1.24.902-1.86.902-.33 0-.888-.125-1.673-.373-.95-.704-1.787-1.326-2.51-1.864-.723-.539-1.642-.953-2.757-1.243l.247-.186c.662 0 1.591-.093 2.79-.28a24.183 24.183 0 0 0 3.718-.9c1.28-.415 2.396-.891 3.346-1.43.95-.538 1.426-1.2 1.426-1.988.124-1.532.186-2.827.186-3.883V11.34c0-.704-.33-1.19-.992-1.46-.66-.269-.991-.59-.991-.963 1.487 0 2.964.29 4.43.87 1.468.58 2.2 1.76 2.2 3.542 0 1.077-.257 2.122-.774 3.137-.516 1.015-.775 2.413-.775 4.194v.56c.662 0 1.457.103 2.387.31.93.207 1.394.787 1.394 1.74 0 .497-.165.86-.496 1.087a3.96 3.96 0 0 1-1.115.528c-.414.124-.816.29-1.209.497-.392.207-.713.56-.96 1.056-.331.58-.496 1.284-.496 2.113v.745l.248.249h.247c.372-.29.827-.642 1.364-1.056a8.49 8.49 0 0 1 1.611-.994c0 .124.031.33.093.62s.093.498.093.622v.187c0 .414-.268.818-.805 1.211-.538.394-.744.735-.62 1.025 0 .373.227.56.682.56h1.177c.29 0 .96-.125 2.014-.373a53.991 53.991 0 0 0 3.316-.901c1.157-.352 2.2-.725 3.13-1.119.93-.393 1.394-.652 1.394-.776v-2.3c-1.487-.123-2.562-.351-3.223-.683-.66-.33-1.528-1.035-2.603-2.112a2.48 2.48 0 0 0-.526-.59c-.186-.145-.341-.363-.465-.653h.186c.248 0 .444.031.588.094.145.062.362.093.651.093.248 0 .682-.062 1.302-.187.62-.124 1.29-.29 2.014-.497a14.658 14.658 0 0 0 1.921-.683c.558-.249.837-.539.837-.87v-9.258c0-.952-.413-1.843-1.24-2.671l.186-.187c.372.249.785.456 1.24.622.248.29.547.497.898.621s.651.31.899.56a8.483 8.483 0 0 1 2.076 2.05c.6.828.899 1.78.899 2.858 0 .538-.093 1.046-.28 1.522-.185.476-.278 1.046-.278 1.708h6.26c1.198 0 1.797.539 1.797 1.616 0 .953-.434 1.626-1.302 2.02-.867.393-1.87.693-3.006.9a25.891 25.891 0 0 0-3.005.715c-.868.269-1.302.673-1.302 1.211v3.045c0 .124.124.186.372.186.95 0 1.86-.238 2.727-.715.868-.476 1.715-.714 2.54-.714.125 0 .249.031.373.093a.823.823 0 0 0 .372.093h4.834c.33 0 .65.145.96.435.31.29.61.56.899.808v.87c0 1.16-.455 1.74-1.364 1.74a8.726 8.726 0 0 1-1.89-.187 8.104 8.104 0 0 0-1.766-.186c-.124 0-.868.103-2.231.31-1.364.207-2.82.446-4.37.715-1.549.27-2.933.538-4.152.808l-1.828.403v.187c2.025 0 3.987.476 5.888 1.429.413.248.65.549.712.9.062.353.3.591.713.715.826.124 1.735.332 2.727.622.992.29 1.487.952 1.487 1.988 0 .828-.34 1.242-1.022 1.242-.682 0-1.457.062-2.324.187-.868.124-1.632.559-2.293 1.305-.661.745-.992 2.278-.992 4.597.95 0 1.86-.041 2.727-.124a30.874 30.874 0 0 1 2.913-.124c1.487 0 3.202.248 5.144.745 1.942.497 2.912 1.802 2.912 3.915 0 .58-.475.87-1.425.87-.95 0-1.725-.311-2.324-.933-.6-.62-1.291-.932-2.076-.932h-9.296a.594.594 0 0 1-.434.187c-1.446.29-3.244.735-5.392 1.336-2.148.6-3.987.9-5.516.9H29.44c-.703-.124-1.415-.735-2.138-1.832-.723-1.098-1.292-1.833-1.705-2.206h.186c.537 0 1.012.207 1.426.621.413.415.95.622 1.611.622.413 0 1.115-.073 2.107-.218a76.137 76.137 0 0 0 3.13-.528 73.26 73.26 0 0 0 2.85-.59c.806-.187 1.271-.425 1.395-.715.248-.662.486-1.335.713-2.019.227-.683.34-1.377.34-2.081v-.56c0-.124-.144-.186-.433-.186a8.68 8.68 0 0 0-2.107.28 8.908 8.908 0 0 1-2.17.28c-.66 0-1.466-.498-2.416-1.492s-1.426-1.843-1.426-2.547c.33 0 .62.145.868.435.248.29.66.435 1.24.435.247 0 .743-.114 1.487-.342.743-.228 1.549-.466 2.417-.715a22.687 22.687 0 0 0 2.293-.776c.66-.27.991-.466.991-.59v-2.3c0-.662-.33-1.056-.991-1.18-.661-.124-1.198-.186-1.612-.186-1.322 0-2.592.341-3.811 1.025a7.8 7.8 0 0 1-3.873 1.025l-3.223-3.107h-.186c-.413 0-.785.208-1.116.622-.33.414-.495.828-.495 1.242 0 .249-.042.787-.124 1.616-.083.828-.124 1.367-.124 1.615v13.11a14.77 14.77 0 0 1-.372 3.262c-.248 1.098-.992 1.646-2.231 1.646-.827 0-1.54-.341-2.138-1.025-.6-.683-1.188-1.501-1.767-2.454a69.245 69.245 0 0 1-1.58-2.734c-.475-.87-1.064-1.553-1.766-2.05v-.249c.702.29 1.487.632 2.355 1.026.867.393 1.632.59 2.293.59.289 0 .589-.042.898-.125.31-.082.465-.248.465-.497V38.43c-.496 0-1.146.372-1.952 1.118a123.74 123.74 0 0 0-2.448 2.33 53.755 53.755 0 0 1-2.54 2.33c-.869.745-1.633 1.118-2.294 1.118-.95 0-1.673-.269-2.17-.807l-2.664-2.672v-.373c.248 0 .475.031.682.093.206.062.454.093.743.093zm109.696-3.292c0 .538-.29.807-.868.807h-4.834c-.62-.373-1.735-.6-3.347-.683-2.065-.083-3.49-.124-4.276-.124h-8.304c-.29 0-.496.124-.62.372.041.622.062 1.512.062 2.672 0 2.03-.124 4.08-.372 6.151-.248 2.03-.537 4.97-.868 8.823a4.39 4.39 0 0 1-.31.714 6.111 6.111 0 0 0-.31.652c-.289.539-.62.808-.991.808h-.434c-.29-2.734-.434-5.177-.434-7.331l.062-2.486a34.25 34.25 0 0 0-1.053-9.816c-2.355 0-4.648.31-6.88.932a25.749 25.749 0 0 1-6.817.932c-1.074 0-2.272-.456-3.594-1.367-1.405-.912-2.107-1.802-2.107-2.672.867 0 1.652.27 2.355.808.702.538 1.549.808 2.54.808.414 0 1.281-.083 2.604-.249.702-.083 2.313-.352 4.834-.808 1.735-.372 3.346-.683 4.834-.932l2.23-.435v-3.417c0-.58-.123-1.263-.371-2.05 0-.124-.124-.187-.372-.187a9.01 9.01 0 0 0-1.487.125c-.248.041-.723.062-1.426.062-1.24 0-2.066-.27-2.479-.808-.454-.497-.806-1.16-1.053-1.988-.166-.539-.33-1.43-.496-2.672a9.448 9.448 0 0 0-.744-2.61c-.661-.91-1.26-1.635-1.797-2.174-.744-.745-1.116-1.657-1.116-2.734.413 0 .91.29 1.488.87l4.834 4.784c.578 0 1.446-.145 2.603-.435 1.24-.33 1.983-.642 2.23-.932l.187-.248v-.56c0-1.118-.124-1.739-.372-1.863-.207-.124-.744-.31-1.612-.56-.66-.372-1.012-.58-1.053-.62-.124-.166-.455-.25-.992-.25-.454 0-.93.042-1.425.125-.579.083-1.033.124-1.364.124v-.248c0-.124.29-.27.868-.435a17.076 17.076 0 0 0 1.55-.56c1.032-.248 1.859-.372 2.478-.372.62 0 1.323-.207 2.108-.621.537-.373 1.156-.974 1.859-1.802.66-.787 1.467-1.864 2.417-3.231.991-1.657 1.694-2.879 2.107-3.666.62-1.201.93-2.07.93-2.61 0-.58-.29-.87-.868-.87 0-.413.165-.724.496-.931 1.074 0 2.23.186 3.47.56 1.281.372 1.922 1.325 1.922 2.857 0 1.201-.538 2.216-1.612 3.045a25.728 25.728 0 0 1-3.532 2.112c-1.694.787-2.851 1.367-3.47 1.74-.993.497-1.488 1.16-1.488 1.988l.433-.187c1.818-.33 3.203-.559 4.153-.683a23.108 23.108 0 0 1 4.152-.373c1.777 0 3.243.477 4.4 1.43 1.075.952 1.612 2.36 1.612 4.224 0 .663-.166 1.264-.496 1.802-.372.456-.682 1.015-.93 1.678 0 .082-.144.538-.434 1.366l-.371 1.181-1.302 3.417c-.537 1.284-1.074 2.299-1.611 3.045-.62.87-1.26 1.304-1.921 1.304-.579 0-.992-.186-1.24-.559-.413-.704-.64-1.118-.682-1.242-.206-.332-.372-.746-.495-1.243-.124-.414-.31-.621-.558-.621h-1.674c-.537 0-.805.455-.805 1.367v3.106c0 .497.082 1.056.248 1.678h1.363c1.983 0 3.905-.145 5.764-.435 1.074-.166 2.995-.435 5.763-.808l-.186-.621c-.165-.29-.31-.829-.433-1.616l-.186-1.615c.454.29.867.683 1.24 1.18.164.249.33.487.495.715.165.228.33.466.496.714.248.456.764.829 1.55 1.119l2.478.932 2.231.807c.661.249.992.456.992.622l.434 1.802zM84.038 8.793c-.082-.207-.268-.476-.557-.808a1.239 1.239 0 0 1-.31-.807h2.417c.248 0 .558.207.93.62.289.415.578.622.867.622 1.818 0 3.491-.58 5.02-1.74a14.296 14.296 0 0 1 4.71-2.485l-.186.187c0 .124-.062.186-.186.186l-1.177.932c-.413.29-.765.58-1.054.87-.372.29-.785.683-1.24 1.18l-1.177 1.243-.558 1.429c-.206.539-.413 1.243-.62 2.113l-.557 2.05c-.207.58-.455.87-.744.87-1.735 0-2.975-.767-3.718-2.3a83.403 83.403 0 0 1-1.86-4.162zm10.908 10.562c.496.787.826 1.18.992 1.18l2.23.436c.249 0 .496.414.744 1.242 0 .249.062.56.186.932 0 .456-.495.787-1.487.994-.992.166-1.487.642-1.487 1.43v.497c0 .248.061.372.185.372l1.24.125c.33.041.723.062 1.177.062.248 0 .579-.497.992-1.491.413-1.16.62-1.76.62-1.802l.743-2.672c.29-1.325.538-2.237.744-2.734.124-.331.186-.807.186-1.429-.248 0-.723.083-1.425.249l-2.79.373-2.726.372-1.178.187c.083.248.434.808 1.054 1.677zm-4.648 7.829c.372-.124.558-.435.558-.932 0-.456-.186-.684-.558-.684-.744 0-1.302.125-1.673.373-.414.207-1.013.31-1.798.31l1.426-1.428-.186-.435h-2.045c0 1.243.144 2.465.433 3.666 0 .124.248.186.744.186l3.099-1.056zm74.494 4.784c.578.621 1.177.85 1.797.683.248-.124.413-.155.496-.093.082.062.206.093.371.093.744-.455 1.55-.57 2.417-.341.868.228 1.385.631 1.55 1.211a.81.81 0 0 1 .093.653c-.062.227-.176.341-.341.341-.124 0-.186.031-.186.094v.217c0 .083-.041.124-.124.124-.083 0-.186.062-.31.187-.33.207-.496.352-.496.435 0 .082-.113.227-.34.435-.228.207-.548.62-.961 1.242-1.28 1.491-2.314 2.465-3.099 2.92-.29.207-.434.373-.434.497 0 .125-.113.3-.34.529-.228.227-.341.424-.341.59a9.44 9.44 0 0 0-.403.59l-.217.342h-.186c.124.165 0 .393-.372.683-.372.29-.558.373-.558.249-.165 0-.248.03-.248.093 0 .062.083.093.248.093 0 .166-.144.394-.434.684a6.642 6.642 0 0 0-1.301 2.298c-.454.787-.723 1.18-.806 1.18-.082 0-.124.146-.124.436 0 .29-.03.435-.093.435-.062 0-.093.041-.093.124 0 .083-.061.27-.185.56 0 .165.03.33.093.496.061.166.382.332.96.497a9.886 9.886 0 0 0 3.099.715c1.033.062 2.582-.135 4.648-.59 1.611-.415 2.768-.622 3.47-.622.455 0 1.054-.083 1.798-.248.413-.166.692-.28.836-.342.145-.062.383-.259.713-.59.537-.87.888-2.237 1.054-4.1.165-1.036.165-1.782 0-2.238-.248-.662-.269-1.025-.062-1.087.206-.062.537.135.991.59.29.332.579.56.868.684.578 0 .93.455 1.054 1.367 0 .29.082.662.247 1.118.166.456.248.725.248.808 0 .083.145.435.434 1.056.29.621.403 1.046.341 1.274-.062.227-.03.403.093.528v.714c0 .477-.062.798-.186.963 0 .083-.041.363-.124.839-.082.476-.434 1.004-1.053 1.584-.29.497-.538.777-.744.84-.207.061-.764.258-1.673.59l-2.17.31c-.578.083-1.456.083-2.633 0-1.178-.083-2.056-.083-2.634 0-.579.083-.91.052-.992-.093-.083-.145-.165-.104-.248.124-.083.228-.196.3-.34.218-.145-.083-1.023-.208-2.635-.373-1.446 0-2.355-.031-2.727-.093-.371-.063-.847-.26-1.425-.59-.454-.125-.94-.415-1.456-.87-.517-.456-.775-.767-.775-.932 0-.125-.372-.974-1.116-2.548-.124-.29-.186-.776-.186-1.46v-1.926c0-.6.062-.9.186-.9l.465-1.026c.31-.684.537-1.108.682-1.274a.868.868 0 0 0 .217-.59c0-.228.144-.538.434-.932.289-.393.433-.652.433-.777 0-.124.031-.186.093-.186s.176-.166.341-.497a3.59 3.59 0 0 1 .682-.932l.434-.497-.682.31c-.454 0-.806.063-1.053.187-.29.166-.92.28-1.89.342-.972.062-1.457.03-1.457-.094 0-.165-.062-.248-.186-.248-.165.166-.527.083-1.085-.249a12.724 12.724 0 0 0-1.766-.87c-.413-.455-.692-.683-.837-.683-.144 0-.444-.083-.898-.248-.455-.166-.537-.332-.248-.497.454-.125.764-.042.93.248h2.2c.144 0 .423-.041.836-.124.414-.083.62-.155.62-.218 0-.062.083-.093.248-.093 0 .124.32.083.96-.124.641-.207 1.003-.342 1.085-.404.083-.062.31-.135.682-.217.372-.083.64-.228.806-.435.124-.125.588-.373 1.394-.746a25.78 25.78 0 0 1 2.076-.87c.62-.124.992-.331 1.116-.621.124-.29.186-.6.186-.932l-.186-.249.434.249zm2.169-8.45c.165.124.62.187 1.363.187.868 0 2.252.476 4.152 1.429.785.33 1.24.704 1.364 1.118.413.621.589 1.19.527 1.709-.062.517-.3.776-.713.776-.165 0-.32.083-.465.249a.707.707 0 0 1-.558.248c-.227 0-.34.042-.34.124 0 .083-.166.125-.496.125-.414 0-.475-.166-.186-.497.124 0 .186-.042.186-.125 0-.082-.062-.124-.186-.124h-.093c-.062 0-.062-.03 0-.093.062-.062.062-.093 0-.093h-.341a.42.42 0 0 1-.31-.124c-.083-.083-.382-.125-.899-.125-.516 0-.805-.03-.867-.093-.062-.062-.166-.093-.31-.093-.145 0-.3-.114-.465-.342-.165-.228-.351-.342-.558-.342h-1.425v-.248c.165 0 .423-.187.775-.56.35-.372.526-.703.526-.993l-.093-.156c-.062-.103-.258-.155-.588-.155-.414 0-.878-.031-1.395-.093a16.95 16.95 0 0 1-1.828-.342c-.785-.166-1.178-.31-1.178-.435.166-.166.476-.248.93-.248l1.302-.373c.289-.083.723-.124 1.301-.124s.868-.063.868-.187zm-8.553.187c0-.249.072-.373.217-.373.145 0 .3.124.465.373.165.165.454.33.867.497.455.29.827.517 1.116.683.29.166.578.249.868.249.289.124.547.341.774.652.228.31.403.61.527.9.165.498.29.86.372 1.088.083.228-.031.373-.34.435a4.18 4.18 0 0 1-.807.093c-.227 0-.402.114-.526.342-.124.228-.269.342-.434.342-.165 0-.248.083-.248.248 0 .166-.031.249-.093.249s-.31.196-.744.59c-.434.393-.836.694-1.208.9-.372.208-.64.312-.806.312-.702.787-1.136 1.18-1.301 1.18 0-.166-.228-.104-.682.186h-.558c-.082 0-.248-.062-.496-.186a4.064 4.064 0 0 1-.62-.497c-.165-.331-.31-.497-.433-.497-.165 0-.248.083-.248.248 0 .166-.083-.062-.248-.683.33-.124.775-.456 1.332-.994.558-.539.837-.89.837-1.056.165 0 .393-.145.682-.435.289-.29.434-.663.434-1.119.165-.331.382-.683.65-1.056.269-.373.486-.787.651-1.242.165-.456.207-.725.124-.808-.083-.083-.124-.29-.124-.621zm3.533-15.036c0-.166.433-.166 1.301 0 .868.29 1.529.549 1.983.776.455.228.992.901 1.612 2.02.248.414.516 1.077.805 1.988.166.456.176.766.031.932-.144.166-.65.393-1.518.683-.62 0-.971.125-1.054.373-.082.249-.392.373-.93.373-.454 0-.753-.052-.898-.155-.144-.104-.382-.3-.713-.59l-.62-.684-.433.683c-.29.29-.475.435-.558.435-.083 0-.041-.228.124-.683l.186-.435v-.249l.124.125c.083.082.165.082.248 0a.422.422 0 0 0 .124-.311c0-.331.062-.497.186-.497s.155-.27.093-.808-.238-.953-.527-1.242c-.29-.29-.372-.498-.248-.622h-.186c0 .124-.227.02-.682-.31-.702-.746-1.508-1.202-2.417-1.367-.867-.29-.723-.435.434-.435h3.533zm-20.886-.87c.29 0 .517.072.682.217.165.145.32.218.465.218.144 0 .392.114.743.342.352.227.64.341.868.341.227 0 .568.114 1.023.342.454.228.743.342.867.342s.186.03.186.093c0 .062.165.176.496.342.744.497 1.116.89 1.116 1.18 0 .166.062.29.185.373.166.166.248.445.248.839 0 .393-.082.673-.248.838-.123.125-.185.342-.185.653 0 .31-.114.88-.341 1.708-.228.829-.341 1.367-.341 1.616 0 .248-.083.373-.248.373v.87c.165 0 .65-.114 1.456-.342.806-.228 1.281-.3 1.426-.218.144.083.506.125 1.084.125.455 0 .796.041 1.023.124.227.083.485.27.775.559.289.29.464.476.526.56.062.082.093.268.093.558v.684l.434-.684c.29-.455.434-.766.434-.932 0-.124-.072-.414-.217-.87l-.217-.683.992.684c.66.455.991.745.991.87.124.165.259.32.403.465.145.145.29.373.434.684.145.31.3.518.465.621.165.104.392.052.682-.155.247-.166.712-.363 1.394-.59.682-.228 1.23-.487 1.642-.777.91-.456 2.376-.973 4.4-1.553.29 0 .476-.042.558-.125.083-.082.197-.165.341-.248.145-.083.134-.124-.03-.124h.247c.165.165.465.124.899-.125.434-.248.681-.372.743-.372.062 0 .176-.063.341-.187.124-.124.889-.228 2.293-.31 1.405-.083 2.335-.042 2.79.124.578.124 1.011.186 1.3.186.29 0 .662.114 1.116.342.455.228.806.507 1.054.839.454.58.754 1.025.898 1.335.145.311.217.756.217 1.336 0 .787-.072 1.18-.217 1.18-.144 0-.217.104-.217.311a.948.948 0 0 1-.216.59c-.145.187-.217.239-.217.156 0-.083-.083-.052-.248.093-.166.145-.269.187-.31.125-.041-.063-.145-.032-.31.093-.165.165-.434.248-.806.248h-.991c-.248-.165-.455-.165-.62 0-.165.166-.475.042-.93-.373-.454-.414-.681-.683-.681-.807 0-.29-.269-.373-.806-.249-.29.166-.6.249-.93.249-.124 0-.041-.145.248-.435.166-.124.31-.187.434-.187.29-.165.65-.486 1.085-.963.433-.476.65-.776.65-.9l-.867-.249c-.29-.166-.506-.249-.651-.249-.145 0-.506.083-1.085.249-.578.166-.94.28-1.084.342-.145.062-.3.093-.465.093 0 .166-.29.207-.868.124l-.867-.124c0-.124-.145-.124-.434 0-.165 0-.764.083-1.797.248-.29 0-.692.073-1.209.218-.516.145-1.436.259-2.758.342-1.322.082-2.272.29-2.85.62-.414.167-.662.28-.744.343-.083.062-.124.238-.124.528-.165.621-.165 1.16 0 1.615.165.456.206.684.124.684-.083 0-.124.227-.124.683 0 .29-.042.518-.124.683-.083.166-.351.456-.806.87-.496.829-.744 1.274-.744 1.336 0 .062-.04.093-.123.093-.083 0-.31.228-.682.684-.372.455-.672.683-.899.683-.227 0-.372-.114-.434-.341a1.734 1.734 0 0 0-.279-.59c-.165-.29-.33-1.347-.495-3.17-.124-.62-.186-1.097-.186-1.428-.33-.58-.269-1.119.186-1.616.578-.538.805-.89.681-1.056-.124-.124-.268-.042-.433.248-.166.125-.434.26-.806.404-.372.145-.6.218-.682.218a.73.73 0 0 0-.31.093.956.956 0 0 1-.434.093c0 .207-.03.31-.092.31s-.63.146-1.705.436l-1.301.683-.186 1.367c-.165.911-.28 1.75-.341 2.516a23.932 23.932 0 0 0-.093 1.833c-.165.29-.176.435-.031.435s.444-.145.899-.435c.454-.455.743-.683.867-.683v.435c0 .165-.062.248-.186.248v.808c0 .538-.227 1.077-.681 1.615-.455.539-.744.87-.868.994-.33.166-.496 1.533-.496 4.101 0 1.201-.041 1.905-.124 2.113-.165.124-.248 2.464-.248 7.02 0 1.119.083 2.113.248 2.983v1.18c-.165 0-.206.383-.124 1.15a6.961 6.961 0 0 1-.124 2.267c-.165.746-.248 1.243-.248 1.492 0 .248-.144.476-.433.683-.29.207-.806.27-1.55.186a10.798 10.798 0 0 1-2.23-.497c-1.57-.952-2.5-1.74-2.79-2.36-.165-.29-.33-.498-.495-.622-.868-.663-1.302-1.222-1.302-1.677-.124-.249-.258-.373-.403-.373-.144 0-.217-.125-.217-.373 0-.249-.268-.518-.805-.808-.537-.29-.734-.486-.59-.59.145-.104.517-.072 1.116.093.6.166.93.249.992.249h.093c.165.165.795.29 1.89.373 1.095.082 1.87.04 2.324-.125.413-.165.703-.28.868-.341.165-.063.248-.197.248-.404v-1.554c.124-.745.227-2.309.31-4.69.082-2.382.124-3.656.124-3.822 0-.082-.083-.082-.248 0-.29.373-.95 1.18-1.983 2.424-.414.414-.62.538-.62.372-.165 0-.248.042-.248.125v.217c0 .062-.041.093-.124.093h-.124c0 .166-.103.332-.31.497a12.24 12.24 0 0 1-.991.684c-.455.165-.682.331-.682.497l-.744.062c-.496.041-.888.062-1.177.062-.455 0-.827-.062-1.116-.186-.29-.125-.806-.58-1.55-1.367-.702-.704-1.136-1.056-1.3-1.056l-.342-.28a2.622 2.622 0 0 1-.557-.621l-.217-.342c0-.124.372-.042 1.115.248.413.166.775.208 1.085.125.31-.083.754-.352 1.332-.808.248-.124.455-.186.62-.186.165 0 .392-.156.682-.466.289-.311.66-.694 1.115-1.15.29-.331.64-.642 1.054-.932.785-.58 1.642-1.19 2.572-1.833.93-.642 1.477-.963 1.642-.963.124 0 .413-.124.868-.373.33-.165.527-.32.588-.465.062-.145.093-.611.093-1.398.166-.912.28-1.978.341-3.2.062-1.222.031-1.978-.093-2.268 0-.124-.113-.186-.34-.186-.228 0-.651.145-1.271.435-.868.414-1.446.662-1.735.745-.29.083-.785.042-1.488-.124-.909 0-1.466-.042-1.673-.124-.207-.083-.754-.456-1.642-1.119-.889-.663-1.591-1.15-2.107-1.46-.517-.31-.775-.497-.775-.56 0-.061.372-.092 1.115-.092.703 0 1.725-.207 3.068-.622 1.343-.414 2.076-.683 2.2-.807.166-.166.31-.249.434-.249l2.85-1.367c.455-.124.827-.269 1.116-.435h.434v-6.15c0-1.492-.072-2.434-.217-2.828-.144-.393-.671-1.045-1.58-1.957l-1.054-1.367.62.249zm102.197 10.158v.094l-.124.124a2.331 2.331 0 0 0-.217.248l-.093.125c-.166-.166-.248-.166-.248 0 0 .29-1.508.58-4.524.87-.33.165-.64.28-.93.341-.29.062-.589.093-.899.093-.31 0-.764.125-1.363.373-.6.249-1.054.373-1.364.373-.31 0-.857.083-1.642.248-1.776.539-3.12.808-4.028.808h-1.302c-1.24.497-1.973.787-2.2.87-.227.083-.175.331.155.746.413.455.475.745.186.87v.776c0 .145.062.3.186.466 0 .249-.031.528-.093.839-.062.31-.093.808-.093 1.491s-.072 1.212-.217 1.584a6.782 6.782 0 0 0-.34 1.243c-.083.456-.207.766-.373.932 0 .124-.072.456-.216.994-.145.539-.135.808.03.808 0 .124-.113.466-.34 1.025a7.215 7.215 0 0 0-.465 1.74c-.083.6-.31 1.273-.682 2.019-.372.745-.64 1.346-.806 1.802-.289 1.2-.681 2.133-1.177 2.796-.248.248-.486.642-.713 1.18-.227.539-.413.85-.558.932-.144.083-.258.228-.34.435-.083.207-.176.31-.28.31-.103 0-.154.083-.154.25 0 .123-.073.31-.217.558a4.086 4.086 0 0 1-.403.59l-.186.218c0 .166-.072.435-.217.808a1.45 1.45 0 0 1-.712.807c-.331.29-.496.518-.496.684l-.775 1.025c-.516.684-1.002 1.17-1.456 1.46-1.075.746-1.839 1.43-2.293 2.05-.29.332-.723.622-1.302.87-.33 0-.826.042-1.487.125-.661.082-1.075.041-1.24-.125 0-.124.072-.3.217-.528.145-.228.362-.342.65-.342.331-.165.796-.548 1.395-1.149.6-.6.96-1.046 1.085-1.336l.496-.683c.124-.166.485-.715 1.084-1.647.6-.932.981-1.46 1.147-1.584 0-.124.31-.56.93-1.305 1.693-2.568 3.201-5.757 4.523-9.568.331-1.036.496-1.636.496-1.802.29-.124.558-1.201.806-3.23.207-.29.372-.808.496-1.554.62-2.112.97-3.365 1.053-3.759.083-.393.042-1.025-.124-1.895 0-.787-.04-1.284-.124-1.491-.082-.207-.35-.31-.805-.31-.124 0-.3-.301-.527-.902-.227-.6-.34-.983-.34-1.149l1.115-.186c.743 0 1.952-.239 3.625-.715 1.674-.476 3.11-.942 4.307-1.398 1.53-.621 2.366-.932 2.51-.932.145 0 .445-.114.899-.342a4.352 4.352 0 0 1 1.363-.434c.455-.063.682-.145.682-.249 0-.104.062-.155.186-.155.165 0 .475-.031.93-.094.454-.062.681-.155.681-.28.331-.165.672-.32 1.023-.465.351-.145.899-.176 1.642-.093.744.083 1.415.155 2.015.217.599.062.94.166 1.022.31.083.146.372.384.868.715.454.125.805.383 1.053.777.248.393.269.59.062.59-.165.124-.31.187-.433.187v-.094zM212.45 13.95c.413-.166 1.24-.249 2.48-.249 1.239 0 2.003.083 2.292.249.248.166.444.331.589.497.144.166.34.321.589.466.248.145.34.362.279.652-.062.29-.135.435-.217.435-.083 0-.124.062-.124.187 0 .207-.186.424-.558.652a4.762 4.762 0 0 1-1.24.528c-.495.166-.919.363-1.27.59-.351.228-.65.342-.899.342-.248 0-.599.083-1.053.249-.744.124-1.343.414-1.798.87-.289.165-.516.248-.681.248-.166.124-.33.352-.496.683-.165.332-.145.56.062.684 0 .124-.072.497-.217 1.118-.145.622-.3 1.077-.465 1.367-.289.29-.516.684-.682 1.18a.422.422 0 0 1-.123.311l-.124.125c-.124-.166-.269-.135-.434.093a1.29 1.29 0 0 0-.248.776c0 .125-.145.425-.434.901-.29.477-.516.715-.682.715-.124 0-.279.186-.465.559-.185.373-.278.642-.278.808 0 .124.093.155.278.093.186-.062.424-.093.713-.093.29-.166 1.24-.539 2.851-1.119a10.763 10.763 0 0 1 4.4-.932c.29 0 .661.156 1.116.466.454.311.682.528.682.653 0 .124.082.269.247.435.166.165.352.662.558 1.49.207.83.31 1.388.31 1.678-.124.497-.186.85-.186 1.057 0 .207-.196.548-.589 1.025a8.03 8.03 0 0 0-.93 1.367c-.226.435-.443.807-.65 1.118-.207.31-.31.549-.31.715 0 .165-.082.248-.248.248-.165 0-.33.207-.496.621 0 .332-.072.528-.216.59-.145.063-.527.26-1.147.59-.744.456-1.725.715-2.944.777-1.219.063-1.89.166-2.014.311-.124.145-.186.528-.186 1.15 0 .455-.041.807-.124 1.056-.082.248-.268.373-.558.373-.371.082-.847-.083-1.425-.497a20.073 20.073 0 0 1-.992-.84c-.248-.227-.454-.569-.62-1.024a7.882 7.882 0 0 1-.65-1.895c-.145-.684-.217-1.17-.217-1.46 0-.166-.062-.58-.186-1.243l-.186-.994c-.206 0-.537.259-.991.776-.455.518-.744.86-.868 1.026a7.17 7.17 0 0 1-.589.87l-.34.434-.125.249c-.082.166-.35.476-.805.932a274.673 274.673 0 0 0-2.231 2.485c-.166.124-.331.352-.496.684-.29.33-.734.673-1.333 1.025-.599.352-.981.528-1.146.528-.166 0-.372.083-.62.248l-.496.497v-.497c0-.331-.155-.528-.465-.59l-.464-.093c0-.166.113-.435.34-.808l.341-.559c.166 0 .475-.342.93-1.025.454-.684.878-1.212 1.27-1.585l.59-.559.898-.9c.599-.601 1.198-1.316 1.797-2.144.6-.829 1.012-1.326 1.24-1.491.227-.166.34-.332.34-.497 0-.166.114-.352.341-.56a3.23 3.23 0 0 0 .558-.652c.145-.228.3-.57.465-1.025.578-.621.64-1.077.186-1.367-.124-.166-.186-.32-.186-.466 0-.145.144-.135.434.031.289.124.475.187.557.187.083 0 .186-.145.31-.435.166-.166.362-.466.59-.901.226-.435.423-.736.588-.901.413-.622.93-1.388 1.55-2.299.619-.911.846-1.45.681-1.615.165 0 .558-.518 1.177-1.554.62-1.035.93-1.615.93-1.74h-1.24c-.826 0-1.239-.103-1.239-.31h-.496c-.495 0-.816-.114-.96-.342-.145-.228-.444-.455-.899-.683-.454-.228-.744-.57-.868-1.025-.454-.58-.65-.953-.588-1.119.062-.165.32-.248.774-.248.62 0 1.829-.218 3.626-.653a47.936 47.936 0 0 0 5.237-1.584c.62-.331 1.157-.497 1.611-.497zm-.248 16.589c0-.29-.454-.29-1.363 0-.496.29-.96.435-1.395.435-.434 0-.712.083-.836.248 0 .166-.424.28-1.27.342a28.71 28.71 0 0 1-1.953.093c-.578 0-.578.332 0 .994v.187c.454.29.837.549 1.146.776.31.228.507.643.59 1.243.082.6.04 1.15-.125 1.647v.683c.166 0 .661-.114 1.488-.342.826-.228 1.322-.424 1.487-.59h.279c.103 0 .3-.103.589-.31.165 0 .248-.073.248-.218v-.839c0-.787.144-1.325.433-1.615.166-.414.362-.974.59-1.678.226-.704.257-1.056.092-1.056zm13.573-22.926c.165-.166.878-.135 2.138.093 1.26.228 2.22.424 2.882.59.289.207.516.31.681.31.455.083 1.054.477 1.798 1.181.743.704 1.115 1.14 1.115 1.305 0 .083.072.238.217.466.145.228.258.538.34.932.084.393.053.694-.092.9-.145.208-.527.394-1.147.56l-.867.497-.992-.497c-.413-.249-.764-.331-1.053-.249-.166 0-.28-.02-.341-.062-.062-.041-.093-.145-.093-.31-.166-.29-.558-.829-1.178-1.616-1.776-1.532-2.747-2.444-2.913-2.734 0-.165-.124-.393-.371-.683-.248-.29-.29-.518-.124-.683zM31.98 73.826c.62-.124 1.136-.062 1.549.187.29.166.578.248.868.248.33 0 .63.114.898.342.269.228.475.456.62.684.145.227.3.403.465.528.165.331.32.631.465.9.144.27.134.487-.031.653l-.186.435c0 .29-.114.538-.341.745-.227.208-.424.311-.589.311-.124 0-.29.083-.496.249a1.026 1.026 0 0 1-.65.248c-.228 0-.383.073-.465.218-.083.145-.3.259-.65.341l-.528.125c0 .124-.268.331-.805.62-.538.29-.868.436-.992.436-.165 0-.248.062-.248.186 0 .166.372.249 1.116.249a.97.97 0 0 1 .743.341c.207.228.579.415 1.116.56.537.145.878.404 1.022.776.145.373.393.777.744 1.212.351.435.527.766.527.994 0 .228.196.714.589 1.46.392.746.65 1.253.774 1.522.124.27.414 1.005.868 2.206.744 2.195 1.26 3.293 1.55 3.293v.217c0 .145.061.3.185.466.166.166.362.466.59.901.226.435.402.715.526.839 0 .621.372 1.367 1.115 2.237.29.455.434.714.434.776 0 .063.186.311.558.746.372.435.671.911.899 1.429.227.518.485 1.004.774 1.46.29.456.434.715.434.777 0 .062.217.352.65.87.435.517.755 1.004.962 1.46.206.455.506.818.898 1.087.393.27.589.445.589.528 0 .083.248.373.744.87.495.497.97.828 1.425.994.29.166.475.321.558.466.082.145.527.466 1.332.963.806.497 1.498.828 2.076.994 1.033.621 1.55.994 1.55 1.118l-.248.249c-.413.166-.93.166-1.55 0a6.276 6.276 0 0 0-1.735-.249c-1.322.166-2.83.249-4.524.249s-2.54-.083-2.54-.249c0-.124-.063-.124-.187 0-.33.166-1.074-.414-2.23-1.74-.703-.745-1.054-1.231-1.054-1.46 0-.227-.114-.63-.341-1.21a70.088 70.088 0 0 0-1.023-2.424c-.454-1.035-.744-1.77-.868-2.206-.124-.435-.413-1.087-.867-1.957-1.157-2.36-2.19-4.95-3.099-7.766-1.942-4.846-2.913-7.415-2.913-7.704 0-.166-.206-.746-.62-1.74-.289-.746-.506-1.191-.65-1.336-.145-.145-.444-.362-.899-.652-.413-.29-.62-.518-.62-.684-.165-.455-.361-.683-.588-.683-.228 0-.754.228-1.58.683-.455.166-.94.363-1.457.59-.517.228-.775.404-.775.529l.186.217a.557.557 0 0 0 .434.217c.165 0 .248.032.248.094s.186.134.558.217c.371.083.733.383 1.084.901.351.518.6.922.744 1.212.144.29.33.62.558.994.227.373.34.994.34 1.864 0 .621-.072 1.294-.216 2.019-.145.725-.3 1.17-.465 1.336-.124.29-.269.87-.434 1.74-.29.87-.64 2.257-1.054 4.162-.165.456-.31.911-.433 1.367-.331.994-.558 2.527-.682 4.598 0 .29-.083.663-.248 1.118-.165.456-.31.911-.434 1.367 0 .539-.072 1.14-.217 1.802-.144.663-.279.994-.403.994v.249a.562.562 0 0 0 .403.186c.145 0 .506-.228 1.085-.684 1.033-.414 1.776-.693 2.23-.838a3.592 3.592 0 0 0 1.21-.653c.35-.29.609-.435.774-.435.29 0 .207-.29-.248-.87a4.246 4.246 0 0 0-.868-.434c-.454-.332-.681-.528-.681-.59 0-.063-.104-.135-.31-.218-.207-.083-.31-.207-.31-.373 0-.248.6-.31 1.797-.186h.837c.31 0 .465.03.465.093 0 .062.144.093.434.093.289-.124.909.114 1.859.715.95.6 1.714 1.19 2.293 1.77l.93 1.119c0 .124.103.269.31.435.206.165.423.497.65.994.227.497.341.89.341 1.18v.497c.29.083.392.28.31.59-.083.311-.238.694-.465 1.15-.227.456-.485.746-.775.87-.248.124-.599.124-1.053 0-.744-.124-1.26-.3-1.55-.528-.289-.228-.516-.653-.681-1.274-.29-.29-.475-.435-.558-.435-.083 0-.238-.217-.465-.652-.227-.435-.382-.798-.465-1.088 0-.29-.041-.517-.124-.683a12.813 12.813 0 0 1-.34-.777c-.145-.352-.259-.528-.341-.528-.083 0-.352.31-.806.932-.702.87-1.715 1.947-3.037 3.231-.289.331-.351.56-.186.683h-.248c0-.124-.186-.04-.557.249l-.558.435h-.248c.165.166.103.31-.186.435-.29.124-.434.228-.434.31 0 .083-.227.353-.682.808-.454.456-.681.746-.681.87.165.29.062.58-.31.87-.372.29-.703.435-.992.435-.867.165-1.508-.332-1.921-1.491-.454-.787-.723-1.18-.806-1.18-.082 0-.165-.104-.248-.312a1.459 1.459 0 0 0-.31-.497c-.33-.165-.413-.434-.247-.807.165-.373.475-.56.93-.56.289-.165.64-.393 1.053-.683.578-.248.95-.642 1.115-1.18.166-.539.455-1.678.868-3.418.29-2.36.434-5.736.434-10.127 0-3.562.041-5.343.124-5.343.082 0 .155-1.057.217-3.169s.03-3.397-.093-3.852c-.165-.456-.29-.725-.372-.808a.42.42 0 0 0-.31-.124c-.413 0-.847.114-1.301.342-.455.227-1.013.3-1.674.217-.66-.083-1.033-.083-1.115 0-.083.083-.083.414 0 .994.082.58.165 1.201.248 1.864.082.663.155 1.222.217 1.678.062.455.062 1.304 0 2.547a66.046 66.046 0 0 0-.093 3.23v1.616c0 .083-.083.528-.248 1.336-.166.808-.248 1.388-.248 1.74 0 .352-.031.57-.093.652-.062.083-.176.414-.341.994-.124.746-.475 1.781-1.054 3.107-.289.58-.516 1.18-.681 1.802 0 .29-.114.58-.341.87-.227.29-.403.58-.527.87-.124.29-.186.548-.186.776 0 .228-.186.518-.558.87-.372.352-.557.642-.557.87 0 .227-.042.341-.124.341-.083 0-.197.156-.341.466-.145.311-.32.6-.527.87-.207.27-.393.404-.558.404h-.248c.166.331-.124.87-.867 1.615l-.434.373c0 .29-.372.829-1.116 1.616-1.157 1.16-1.88 1.594-2.169 1.304-.165 0-.537.145-1.115.435-1.199.29-1.86.352-1.984.187-.165 0 .124-.373.868-1.119 1.777-1.615 3.099-3.148 3.966-4.597.455-.58.827-1.16 1.116-1.74l.96-1.833c.228-.435.486-1.15.775-2.143a64.897 64.897 0 0 0 1.116-3.542c.578-2.03 1.012-5.198 1.301-9.506.166-1.036.29-1.916.372-2.64.083-.725.041-1.088-.124-1.088s-.165-.072 0-.217c.165-.145.165-.653 0-1.523a32.753 32.753 0 0 0-.682-4.038c-.289-.704-.475-1.17-.557-1.398-.083-.228.041-.425.372-.59.413 0 1.063.114 1.952.341.888.228 1.332.508 1.332.84l.248.186c.248.124 1.405-.249 3.47-1.119.62-.29 1.333-.652 2.139-1.087a89.68 89.68 0 0 0 1.642-.901c.124-.124.33-.27.62-.435 1.487-.87 2.85-1.75 4.09-2.64 1.24-.891 1.86-1.481 1.86-1.771 0-.166-.145-.477-.434-.932-.124-.29-.186-.466-.186-.528s.062-.094.186-.094zm52.12 4.35h.806c1.611.207 2.727.58 3.347 1.118.413.414.671.746.774.994.104.249.217.746.341 1.491 0 .166-.03.466-.093.901-.062.435-.144.684-.248.746-.103.062-.155.176-.155.341 0 .29-.03.58-.092.87-.062.29-.176.435-.341.435-.124 0-.186.073-.186.218 0 .145-.259.735-.775 1.77-.516 1.036-.775 1.585-.775 1.647 0 .062-.113.27-.34.621-.228.352-.527.922-.9 1.709-.371.787-.598 1.18-.68 1.18-.084 0-.125.062-.125.187 0 .124-.093.217-.279.28l-.279.093c0 .165-.196.507-.588 1.025l-.59.776c-.454 0-.887.311-1.3.932-.166.166-.331.249-.496.249-.414 0-.62.176-.62.528 0 .352.144.673.434.963.454.456 1.26.6 2.417.435 1.942-.124 2.974-.27 3.098-.435v-.124a.298.298 0 0 0-.093-.218l-.216-.217a1.619 1.619 0 0 0-.341-.249l-.217-.124c.124-.124.34-.186.65-.186s.527.062.651.186l.682.249c.578 0 1.55-.27 2.913-.808l.62-.56c.33 0 .93-.206 1.797-.62 1.776-.705 3.532-1.057 5.268-1.057.826 0 1.508.073 2.045.218.537.145 1.095.507 1.673 1.087.661.621 1.054.932 1.178.932.248 0 .372.642.372 1.926 0 .87-.062 1.491-.186 1.864a4.14 4.14 0 0 0-.186 1.305c0 .124-.083.517-.248 1.18-.165.663-.31 1.077-.434 1.243 0 .124-.083.476-.248 1.056a22.09 22.09 0 0 0-.34 1.305c-.063.29-.259.952-.59 1.988a31.531 31.531 0 0 1-1.487 4.473c-.454 1.16-.806 1.989-1.054 2.486 0 .082-.051.207-.154.372-.104.166-.186.249-.248.249h-.093c0 .083-.217.404-.651.963-.434.56-.764.839-.992.839h-.34c0-.166-.145-.29-.434-.373-.29-.083-.517-.041-.682.124-.165.166-.362.166-.589 0-.227-.165-.403-.248-.527-.248s-.258-.083-.402-.249c-.145-.166-.3-.248-.465-.248l-1.116-1.057c0-.58-.144-1.087-.434-1.522-.289-.435-.64-.735-1.053-.9-.496-.125-.744-.353-.744-.684 0-.124-.144-.373-.434-.746-.289-.373-.496-.559-.62-.559-.165 0-.433.259-.805.777-.372.518-.703.952-.992 1.304-.289.353-.434.601-.434.746 0 .145-.113.218-.34.218-.228 0-.486.082-.775.248-.29.166-.568.28-.837.342a1.134 1.134 0 0 0-.65.404c-.62.414-1.281.538-1.984.372l-.495.249c-.166 0-.465.114-.9.342-.433.227-.722.341-.867.341-.144 0-.516.104-1.115.311-.6.207-1.157.394-1.674.56-.516.165-.878.31-1.084.434-.207.124-.393.187-.558.187-.29 0-.062-.208.682-.622.289-.165.599-.331.93-.497 3.387-1.78 5.742-3.914 7.065-6.4.165-.29.392-.745.681-1.366.248-.414.558-.922.93-1.522.372-.601.63-1.046.775-1.336.144-.29.216-.497.216-.622.29-.29.662-1.242 1.116-2.858.454-1.2.62-2.009.496-2.423-.207 0-1.074-.052-2.603-.155-1.529-.104-2.458-.218-2.789-.342-1.157-.58-1.88-1.16-2.17-1.74-.164-.455-.392-.538-.68-.248-.58.456-.93.683-1.054.683V97.5l-.248-.249c0 .166-.155.321-.465.466-.31.145-.506.217-.589.217-.29-.165-1.632-.248-4.028-.248-1.777 0-2.727-.073-2.851-.218-.124-.145 0-.217.372-.217.165-.166.413-.249.743-.249.414 0 1.385-.352 2.913-1.056.372-.124 1.044-.642 2.014-1.553.971-.911 1.746-1.74 2.325-2.485.289-.415.98-1.098 2.076-2.05 1.095-.953 1.725-1.575 1.89-1.865 1.322-1.822 2.066-2.961 2.231-3.417.124-.248.413-1.015.868-2.299.454-1.284.64-2.102.557-2.454-.082-.352-.35-.528-.805-.528-1.116-.29-1.674-.663-1.674-1.118zm13.883 17.956c-.33-.125-.579-.187-.744-.187-.868 0-1.735.29-2.603.87-.578.456-1.59.89-3.037 1.305l-.743.248v.622c.165.621.33.994.495 1.118.166.166.248.694.248 1.584 0 .89-.124 1.512-.371 1.864-.248.352-.517.901-.806 1.647-.29.745-.65 1.605-1.085 2.578-.434.974-.65 1.522-.65 1.647 0 .165.485.497 1.456.994.97.497 1.808.828 2.51.994.868.29 1.446.404 1.735.342.29-.062.558-.28.806-.653s.372-.642.372-.807c0-.166.217-.798.65-1.895.434-1.098.682-1.864.744-2.3a81.65 81.65 0 0 1 .28-1.77c.619-1.781.96-3.562 1.022-5.343.062-1.781-.031-2.734-.28-2.858zm-6.88-22.554c.166 0 .827.062 1.984.186a6.867 6.867 0 0 1 2.665 1.554c.289.165.578.393.867.683.413.29.982.777 1.705 1.46.723.684 1.187 1.087 1.394 1.212.165.124.424.404.775.839.35.434 1.146 1.19 2.386 2.267 2.892 2.941 5.02 4.909 6.383 5.903.248.497.527.776.837.839.31.062.61.196.898.403.29.208 1.023.653 2.2 1.336 1.178.684 1.798 1.088 1.86 1.212.062.124.134.186.217.186.082 0 .33.228.743.684.496.165.775.32.837.466.062.145.093.445.093.9 0 .58.031.943.093 1.088.062.145.062.248 0 .31-.062.063-.424.145-1.085.249-.66.104-.991.104-.991 0s-.072-.062-.217.124c-.145.187-.692.187-1.642 0-.95-.186-1.55-.31-1.798-.373a29.463 29.463 0 0 1-1.363-.403c-.661-.207-1.405-.601-2.231-1.18-.62-.498-1.364-1.181-2.231-2.051-.868-.87-1.488-1.533-1.86-1.988a15.371 15.371 0 0 0-.743-.87c-1.24-1.326-3.326-4.142-6.26-8.45a46.594 46.594 0 0 0-1.24-1.522 46.594 46.594 0 0 1-1.239-1.523c-.537-1.035-1.198-1.553-1.983-1.553-.124 0-.186-.093-.186-.28 0-.186-.062-.186-.186 0-.124.187-.227.239-.31.156-.082-.083-.568-.124-1.456-.124h-1.58c-.124.165-.341.207-.651.124-.31-.083-.465-.228-.465-.435s.888-.56 2.665-1.056c.744-.125 1.116-.249 1.116-.373z"/>
        <g transform="translate(5 2)">
            <use fill="#000" filter="url(#c)" xlink:href="#d"/>
            <use fill="#FE7918" xlink:href="#d"/>
        </g>
        <path fill="#FFF" fill-opacity=".8" d="M155.36 70.86h1.26c.72 0 1.15.1 1.29.3.14.2.36.45.66.75.3.3.51.73.63 1.29.16.44.2.97.12 1.59-.08.62-.24 1.23-.48 1.83-.32.4-.48.74-.48 1.02s-.11.53-.33.75c-.22.22-.3.33-.24.33s-.05.18-.33.54c-.28.36-.31.54-.09.54s.52-.1.9-.3c.38-.2.77-.3 1.17-.3.56-.32.92-.51 1.08-.57.16-.06.24-.17.24-.33.12-.28.36-.46.72-.54.36-.08.57-.15.63-.21.06-.06.34.01.84.21.5.2.89.3 1.17.3.44 0 .91.15 1.41.45.5.3.75.57.75.81.32.88.32 1.6 0 2.16-.28.44-.48.88-.6 1.32-.12.84-.5 1.62-1.14 2.34-.56.44-.91.87-1.05 1.29-.14.42-.35.77-.63 1.05l-.54.54c-.08.08.04.24.36.48.12.28.18.5.18.66 0 1.28-.14 2.06-.42 2.34-.16.16-.31.24-.45.24s-.29.14-.45.42h-1.44c-.6-.16-.93-.2-.99-.12-.06.08-.17.23-.33.45s-.24.39-.24.51c-.12.28-.76.86-1.92 1.74-.4.4-.6.52-.6.36 0-.12-.16-.12-.48 0-.44.44-.86.44-1.26 0-.28-.12-.53-.18-.75-.18-.22 0-.69-.03-1.41-.09s-1.22-.03-1.5.09l-.48.18.48.42c.28.32.42.79.42 1.41 0 .62.08 1.01.24 1.17.12.16 1.54-.06 4.26-.66.44 0 .94-.03 1.5-.09s1.21-.19 1.95-.39 1.33-.3 1.77-.3h1.44c.44.12.66.22.66.3 0 .08.28.08.84 0 .56-.08.95-.05 1.17.09.22.14.49.21.81.21.84.28 1.64.78 2.4 1.5.4.28.6.7.6 1.26.12.72-.04 1.16-.48 1.32-.08.12-.34.15-.78.09s-.66-.17-.66-.33-.18-.27-.54-.33c-.36-.06-.57-.02-.63.12-.06.14-.39.17-.99.09-.6-.08-1.18-.18-1.74-.3-.12-.16-.4-.27-.84-.33-.44-.06-.8-.06-1.08 0l-.42.09-.21.12c-.14.08-.25.08-.33 0l-.12-.12h-1.71c-1.02 0-1.85.11-2.49.33-.64.22-1.52.25-2.64.09h-1.98v.24c0 .16.07.31.21.45.14.14.35.27.63.39.6.44 1.47 1.08 2.61 1.92 1.14.84 1.81 1.34 2.01 1.5l1.08.87c.52.42 1.28.92 2.28 1.5 1 .58 1.68 1 2.04 1.26.36.26.75.54 1.17.84.42.3.77.52 1.05.66s.75.35 1.41.63c.66.28 1.21.48 1.65.6.68.6 1.88 1.18 3.6 1.74.92.28 1.66.56 2.22.84.56.28.92.42 1.08.42.12 0 .32.11.6.33l.42.33c0 .12-.2.4-.6.84l-.66.42h-1.92c-.32 0-.63.04-.93.12-.3.08-.55.12-.75.12h-.3c0 .12-.29.18-.87.18-.58 0-1.19-.03-1.83-.09-.64-.06-1.1-.17-1.38-.33-.12 0-.18.04-.18.12 0 .08-.06.18-.18.3-.2 0-.52-.06-.96-.18h-1.05c-.42 0-1.13-.22-2.13-.66-.56-.44-1.02-.8-1.38-1.08-.36-.28-.98-.84-1.86-1.68-2.56-2.56-4.24-4.3-5.04-5.22-.8-.92-1.34-1.58-1.62-1.98-.28-.44-.72-1.04-1.32-1.8-.84-.8-1.26-1-1.26-.6 0 .16-.1.38-.3.66-.2.28-.44.77-.72 1.47-.28.7-.46 1.05-.54 1.05-.08 0-.15.15-.21.45-.06.3-.17.45-.33.45h-.24c0 .28-.14.63-.42 1.05-.28.42-.52.63-.72.63-.24.16-.36.3-.36.42 0 .28-.14.36-.42.24v.18c.12.16.04.38-.24.66-.28.28-.64.48-1.08.6-.4.32-.67.55-.81.69-.14.14-.29.21-.45.21-.16 0-.35.11-.57.33-.22.22-.4.33-.54.33s-.27.06-.39.18-.45.36-.99.72-.87.54-.99.54h-.24c-.12.16-.39.34-.81.54-.42.2-.71.24-.87.12-.16 0-.24.03-.24.09s-.21.09-.63.09c-.42 0-.77.07-1.05.21-.28.14-.59.14-.93 0-.34-.14-.78-.14-1.32 0s-.87.21-.99.21c-.12-.12-.06-.26.18-.42.16 0 .7-.2 1.62-.6.52-.16 1.42-.66 2.7-1.5 2.2-1.44 3.92-3.06 5.16-4.86.6-.88 1.04-1.46 1.32-1.74.4-.4.86-1.25 1.38-2.55.52-1.3.7-2.03.54-2.19 0-.12-.86.04-2.58.48-1.12.28-1.87.42-2.25.42-.38 0-.71.11-.99.33-.28.22-.42.39-.42.51 0 .28-.18.45-.54.51-.36.06-1.1.09-2.22.09-1.56 0-2.42-.06-2.58-.18-1.6-.84-2.62-1.56-3.06-2.16-.52-.68-.58-1.02-.18-1.02.12 0 .26.08.42.24.72.4 1.22.46 1.5.18.28 0 .75-.03 1.41-.09.66-.06 1.02-.13 1.08-.21.06-.08.35-.16.87-.24.52-.08.84-.19.96-.33s.36-.21.72-.21.72-.07 1.08-.21c.36-.14.83-.21 1.41-.21s.95-.08 1.11-.24c1.12-.24 2.62-.5 4.5-.78.84 0 1.34-.08 1.5-.24.28-.28.64-.92 1.08-1.92.16-.44.24-.73.24-.87s-.08-.43-.24-.87c-.28-.4-.57-.71-.87-.93-.3-.22-.41-.4-.33-.54.08-.14.26-.21.54-.21.6 0 1.32.28 2.16.84.44.32.72.48.84.48s.32-.16.6-.48c.32-.28.62-.48.9-.6.44-.32.99-.69 1.65-1.11.66-.42 1.16-.81 1.5-1.17l.51-.54.84-1.02c.32-.44.48-.77.48-.99 0-.22-.16-.45-.48-.69-.44-.32-.69-.4-.75-.24-.06.16-.09.16-.09 0v-.24c-.16.16-.34.13-.54-.09s-.36-.33-.48-.33c-1.08-.12-1.62-.26-1.62-.42 0-.16-.06-.24-.18-.24s-.22-.03-.3-.09c-.08-.06-.26.02-.54.24s-.67.33-1.17.33c-.5 0-.79.03-.87.09-.08.06-.26.09-.54.09-.28-.12-.84-.12-1.68 0-.16.16-.24.16-.24 0 0-.28.16-.5.48-.66.28 0 .45-.13.51-.39s.09-.33.09-.21c0 .28.42-.08 1.26-1.08.16-.16.24-.3.24-.42.56-.44.84-.72.84-.84s.32-.65.96-1.59c.64-.94 1.12-1.63 1.44-2.07 1.84-3.56 2.84-5.68 3-6.36.28-.84.28-1.48 0-1.92-.16-.16-.24-.31-.24-.45s.08-.27.24-.39zm4.08 13.2l.33-.33c.06-.06.31-.55.75-1.47.44-.92.66-1.42.66-1.5 0-.08-.04-.15-.12-.21-.08-.06-.26-.03-.54.09-.28.16-.53.27-.75.33-.22.06-.33.13-.33.21 0 .08-.29.26-.87.54-.58.28-1.34.42-2.28.42-.94 0-1.41.07-1.41.21 0 .14-.2.43-.6.87-.72.68-1 1.02-.84 1.02l-.24.42c-.12.16-.22.28-.3.36-.08.08-.05.15.09.21s.29.09.45.09h.66c.52 0 1.04.04 1.56.12.52.08 1.02.16 1.5.24.48.08.8.18.96.3 0 .12.15.01.45-.33.3-.34.59-.87.87-1.59zm-17.4-13.02c0-.28.48-.14 1.44.42 2.04 1 3.06 2.42 3.06 4.26 0 .76.04 1.27.12 1.53.08.26.08.75 0 1.47s-.19 1.75-.33 3.09c-.14 1.34-.28 2.51-.42 3.51-.14 1-.26 1.82-.36 2.46-.1.64-.18 1.31-.24 2.01-.06.7-.06 1.41 0 2.13s.03 1.14-.09 1.26c-.12.44-.26 1.66-.42 3.66 0 .28-.14.48-.42.6-.6.44-1.1.32-1.5-.36-.84-1.72-1.26-2.72-1.26-3 0-.28-.11-.71-.33-1.29-.22-.58-.26-.9-.12-.96.14-.06.21-.41.21-1.05 0-.64-.07-1.14-.21-1.5-.14-.36-.25-.51-.33-.45-.08.06-.12.25-.12.57 0 .28-.06.49-.18.63s-.4.35-.84.63c-1.88 1.56-3.12 2.34-3.72 2.34-.84 0-1.26.22-1.26.66-.16.4-.58.54-1.26.42-.44-.16-1.09-.7-1.95-1.62-.86-.92-1.29-1.55-1.29-1.89 0-.34-.08-.59-.24-.75-.16-.28-.16-.61 0-.99s.38-.69.66-.93c.44-.28.76-.6.96-.96.2-.36.6-.96 1.2-1.8 1-1.44 1.64-2.55 1.92-3.33.28-.78.28-1.53 0-2.25-.16-.4-.48-.78-.96-1.14-.48-.36-.72-.62-.72-.78l.42-.09c.28-.06.45-.09.51-.09s.41.03 1.05.09c.64.06 1.25.2 1.83.42.58.22.97.33 1.17.33.2 0 .52.22.96.66.76.56.92 1.26.48 2.1-.32.84-.62 1.34-.9 1.5-.16.16-.3.24-.42.24-.28.44-.64.36-1.08-.24-.44-.44-.66-.52-.66-.24l-.39.24c-.26.16-.43.35-.51.57-.08.22-.19.36-.33.42s-.21.16-.21.3c0 .14-.04.21-.12.21-.08 0-.23.21-.45.63-.22.42-.36.63-.42.63s-.16.14-.3.42c-.14.28-.43.64-.87 1.08-.88.72-1.26 1.28-1.14 1.68.16.28.3.36.42.24.64-.16 1.18-.44 1.62-.84.24-.16.93-.59 2.07-1.29 1.14-.7 1.87-1.13 2.19-1.29.4-.28.67-.49.81-.63s.57-.35 1.29-.63c.72-.28 1.24-.42 1.56-.42.44 0 .8-.44 1.08-1.32.12-.84.28-2.18.48-4.02.2-1.84.24-3.12.12-3.84-.16-.56-.34-1.2-.54-1.92s-.36-1.08-.48-1.08c-.16-.12-.24-.26-.24-.42zm71.66 20.22c.16-.16.88-.3 2.16-.42 1.28-.12 2.42-.18 3.42-.18.56 0 .94.06 1.14.18.2.12.46.32.78.6.56.6.84 1.01.84 1.23 0 .22-.22.43-.66.63-.44.2-.86.3-1.26.3-.28 0-.49.07-.63.21-.14.14-.57.21-1.29.21-.72.16-1.5.35-2.34.57-.84.22-1.3.39-1.38.51-.08.12-.4.18-.96.18-.88 0-1.02.22-.42.66.16.16.36.3.6.42.6.44 1.1 1 1.5 1.68.16.32.34.55.54.69.2.14.38.21.54.21.56 0 .84-.07.84-.21 0-.14.64-.07 1.92.21 1 .16 1.64.31 1.92.45s.64.33 1.08.57c.84 1.04.84 1.56 0 1.56-.44 0-1.37.13-2.79.39s-2.41.39-2.97.39c-.84 0-1.4.44-1.68 1.32-.16.56-.02.84.42.84.12 0 .6-.14 1.44-.42 1.16-.4 2.24-.54 3.24-.42 1.56.16 2.68.66 3.36 1.5.32.28.51.49.57.63.06.14.09.43.09.87-.12 1-.82 1.84-2.1 2.52-.6.28-1.35.7-2.25 1.26-.9.56-1.87 1.14-2.91 1.74-1.4.88-1.74 1.38-1.02 1.5.4 0 1.12-.06 2.16-.18.96-.16 2.58-.38 4.86-.66 2.28-.28 4.06-.36 5.34-.24 1.24.32 2.15.58 2.73.78.58.2 1.29.5 2.13.9.44.32.66.76.66 1.32s-.07.95-.21 1.17c-.14.22-.51.33-1.11.33-.52-.16-.85-.17-.99-.03s-.37.15-.69.03c-.12-.16-.29-.2-.51-.12-.22.08-.69.26-1.41.54-.28.16-.66.27-1.14.33-.48.06-.76.09-.84.09h-.36v.18c0 .16-.07.24-.21.24a.84.84 0 0 1-.42-.12c-.14-.08-.29-.18-.45-.3-.12-.28-.32-.32-.6-.12-.28.2-.42.24-.42.12s.21-.33.63-.63c.42-.3.63-.73.63-1.29l.18-.6-3.12.18c-2 0-3.47.07-4.41.21-.94.14-1.41.14-1.41 0s-.13-.11-.39.09-1.47.3-3.63.3h-2.76c-.44 0-.94.16-1.5.48-.96.4-3.08 1.1-6.36 2.1-1.16.28-1.92.46-2.28.54-.36.08-.74-.02-1.14-.3-.32 0-.72-.25-1.2-.75l-1.35-1.41c-.42-.44-.57-.66-.45-.66 0-.12.39-.04 1.17.24.78.28 1.45.42 2.01.42.72.16 2.18-.04 4.38-.6 2.2-.56 3.3-.92 3.3-1.08 0-.16.08-.16.24 0 .16 0 .65-.15 1.47-.45.82-.3 1.23-.51 1.23-.63.16-.28.07-.92-.27-1.92-.34-1-.65-1.56-.93-1.68-.16 0-.54.14-1.14.42-.96.4-1.74.48-2.34.24-.96-.72-1.74-2.02-2.34-3.9-.4-1.56-.32-2.34.24-2.34.28 0 .42.07.42.21 0 .14.18.25.54.33.36.08.62.12.78.12.16 0 .41.18.75.54.34.36.51.68.51.96 0 .12.28.44.84.96.56.52.98.78 1.26.78.16 0 .66-.22 1.5-.66l1.08-.66v-3.6h-2.58c-1.56.12-2.55.11-2.97-.03-.42-.14-.99-.49-1.71-1.05-.84-.84-1.26-1.48-1.26-1.92 0-.28.1-.24.3.12.2.36.48.54.84.54s.65.03.87.09c.22.06.69.09 1.41.09.56-.12 1.62-.36 3.18-.72s2.34-.62 2.34-.78c.16-.16.31-.76.45-1.8l.21-1.56c-.56-.88-1.22-1.32-1.98-1.32-.8 0-2.36-.5-4.68-1.5-.4-.12-.6-.26-.6-.42h.24c.16-.16.5-.24 1.02-.24 4.84-.68 7.68-1.38 8.52-2.1zm4.5 13.62c-.12-.16-.44-.24-.96-.24s-1.09.11-1.71.33c-.62.22-1.01.49-1.17.81-.16.28-.2 1.13-.12 2.55.08 1.42.26 2.27.54 2.55.16.16.48-.19.96-1.05.48-.86 1.01-1.79 1.59-2.79.58-1 .87-1.72.87-2.16zm-9.6-32.16c.16-.12.3-.15.42-.09s.58.23 1.38.51c.8.28 1.56.64 2.28 1.08.44.4.9.93 1.38 1.59.48.66.58 1.07.3 1.23-.28.24-.5.72-.66 1.44.16 0 .27.07.33.21.06.14.53.29 1.41.45 1.44.4 3.08 1.24 4.92 2.52 4.12 2.72 7.38 4.78 9.78 6.18.44.32.8.58 1.08.78.28.2.52.3.72.3.2 0 .6.28 1.2.84.68.6 1.95 1.43 3.81 2.49 1.86 1.06 3.01 1.59 3.45 1.59.12 0 .18.1.18.3 0 .2-.78.52-2.34.96-2.28.72-3.95 1.19-5.01 1.41-1.06.22-2.03.11-2.91-.33-.28-.16-.77-.59-1.47-1.29-.7-.7-.99-1.13-.87-1.29v-.12c0-.08-.06-.12-.18-.12l-1.26-1.02c-1.88-1.84-4.38-4.04-7.5-6.6-.96-.88-1.96-1.8-3-2.76-1.4-1.44-2.49-2.23-3.27-2.37-.78-.14-1.75.27-2.91 1.23-.68.88-1.35 1.92-2.01 3.12-.66 1.2-1.01 1.84-1.05 1.92-.04.08-.43.69-1.17 1.83a77.31 77.31 0 0 0-1.71 2.73c-.56.88-1.31 1.74-2.25 2.58-.94.84-1.58 1.59-1.92 2.25-.34.66-.55.99-.63.99-.08 0-.26.2-.54.6-.12.28-.65.92-1.59 1.92-.94 1-1.61 1.64-2.01 1.92-.28.16-.98.16-2.1 0-.88-.12-1.32-.26-1.32-.42v-.24c.28-.12.63-.35 1.05-.69.42-.34 1.15-.95 2.19-1.83 1.12-.84 1.86-1.48 2.22-1.92.36-.44 1.1-1.44 2.22-3 3.52-5.24 6.5-10.42 8.94-15.54.84-1.72 1.3-2.75 1.38-3.09.08-.34-.16-.73-.72-1.17-.56-.6-.78-.96-.66-1.08h.42z"/>
    </g>
</svg>
