<svg xmlns="http://www.w3.org/2000/svg" xmlns:xlink="http://www.w3.org/1999/xlink" width="314" height="131" viewBox="0 0 314 131">
    <defs>
        <path id="b" d="M16.1 1.92c3.88 1.36 4.1 2.62.66 3.78-3.92-2.12-7.2-1.36-9.84 2.28C5 13.66 4.04 19.08 4.04 24.24v.6c0 .6.9 2.66 2.7 6.18l4.62.54c4.12-1 6.38-3.12 6.78-6.36l1.92-.42.72 1.38v.48c0 3.64-1.72 5.68-5.16 6.12-2.44.92-3.66 1.52-3.66 1.8-6.72 0-10.08-2.6-10.08-7.8-.32 0-.48-.44-.48-1.32v-.6C.6 7.32 4.72-.34 13.76 1.86c.76.08 1.54.1 2.34.06zm8.94 10.5c3.24.44 5.1 1.4 5.58 2.88h.72c2.64-1.84 4.82-2.76 6.54-2.76h1.8c.72.24 1.08.96 1.08 2.16-2.64.72-4.7 1.52-6.18 2.4-1.2 1.32-1.8 2.28-1.8 2.88 0 2 .12 3.12.36 3.36.08 3.72-.16 6.66-.72 8.82-.2.84-.37 1.3-.51 1.38-.14.08-.37.12-.69.12-.2 0-.36-.02-.48-.06a1.56 1.56 0 0 0-.48-.06c-.52 0-1.36-1.44-2.52-4.32.48-.96.84-3.64 1.08-8.04-.48-3.84-1.86-6.28-4.14-7.32 0-.24-.12-.6-.36-1.08l.72-.36zM53 14.16c4.32.44 6.48 2.12 6.48 5.04.96.12 1.44.48 1.44 1.08 0 .92-4.2 2-12.6 3.24-1.2 0-1.8.48-1.8 1.44 1.32 4.4 3.84 6.6 7.56 6.6 3.12.32 4.68.8 4.68 1.44 0 .36-.36.72-1.08 1.08H54.8c-5.92 0-9.76-2.56-11.52-7.68-.48-1.56-.72-2.64-.72-3.24.72-5.76 3.12-8.64 7.2-8.64 0-.24.36-.36 1.08-.36H53zm-1.44 5.04l1.8-.36c0-.48-.84-.96-2.52-1.44-1.92.44-2.88.92-2.88 1.44v.36h3.6zm16.62-5.4c1.8-.88 3.46-1.32 4.98-1.32 2 0 3.57.71 4.71 2.13 1.14 1.42 1.71 3.19 1.71 5.31 0 .32-.03.8-.09 1.44-.06.64-.09 1.24-.09 1.8 0 .68.06 1.44.18 2.28.6.04.9.32.9.84v.42c-.48.76-.92 1.92-1.32 3.48l.42 2.52c-.52 1.32-1.08 2.04-1.68 2.16-1.44-.72-2.16-1.72-2.16-3l-2.58.42c-5.44 0-8.16-2-8.16-6 0-.08-.01-.19-.03-.33-.02-.14-.01-.31.03-.51 1-3.72 3.26-5.88 6.78-6.48.32-.04.83-.12 1.53-.24.7-.12 1.24-.26 1.62-.42.38-.16.57-.36.57-.6v-.84c0-.36-.23-.67-.69-.93-.46-.26-1.07-.39-1.83-.39-1.72 0-3.58.6-5.58 1.8l-1.68-1.74c0-.2.28-.49.84-.87.56-.38 1.1-.69 1.62-.93zm.24 13.32c0 .48.44.92 1.32 1.32h3c1.32 0 1.98-2.04 1.98-6.12v-.42c-3 0-5.1 1.46-6.3 4.38v.84zm21.9-24.6c.6.52 1.68 1.6 3.24 3.24v.36c0 .72-.2 2.28-.6 4.68h.36c.28 0 1.08-.12 2.4-.36 2.24 0 4.04 1.2 5.4 3.6 0 1.04-2.88 1.64-8.64 1.8l-.36.72v2.16c0 1.68-.06 2.64-.18 2.88-.12.24-.18.48-.18.72l.12 4.44c-.52 1.8 1.84 2.84 7.08 3.12l1.44 2.16c-1.6 1.2-3.76 1.8-6.48 1.8h1.44c-5.12.76-7.52-2.24-7.2-9 0-.76.08-3.36.24-7.8-3.08-.04-4.72-1.28-4.92-3.72 1.52-.72 3.56-1.32 6.12-1.8v-5.4c0-.52.12-1 .36-1.44-.24-.4-.36-.88-.36-1.44.08-.48.32-.72.72-.72zm23.04 11.64c4.32.44 6.48 2.12 6.48 5.04.96.12 1.44.48 1.44 1.08 0 .92-4.2 2-12.6 3.24-1.2 0-1.8.48-1.8 1.44 1.32 4.4 3.84 6.6 7.56 6.6 3.12.32 4.68.8 4.68 1.44 0 .36-.36.72-1.08 1.08h-2.88c-5.92 0-9.76-2.56-11.52-7.68-.48-1.56-.72-2.64-.72-3.24.72-5.76 3.12-8.64 7.2-8.64 0-.24.36-.36 1.08-.36h2.16zm-1.44 5.04l1.8-.36c0-.48-.84-.96-2.52-1.44-1.92.44-2.88.92-2.88 1.44v.36h3.6zm39.06-15.96c1.6-.52 3.22-.76 4.86-.72l3.78 1.2c3.12 2.04 4.68 7.26 4.68 15.66v1.02c0 2-3.18 5.46-9.54 10.38h-3.78c-5.24-3.12-7.86-6.6-7.86-10.44v-3.66c1.44-5.4 3.42-9.16 5.94-11.28 1.2-1.32 1.84-2.04 1.92-2.16zm4.92 4.38c-2.4-.56-4.64.38-6.72 2.82-1.08 1.76-1.92 4.16-2.52 7.2v1.14c.84 5.04 2.64 7.76 5.4 8.16h2.4c4.32-5.6 6.48-9.2 6.48-10.8v-.54c0-5.32-1.68-7.98-5.04-7.98zm12.72 4.8c3.24.44 5.1 1.4 5.58 2.88h.72c2.64-1.84 4.82-2.76 6.54-2.76h1.8c.72.24 1.08.96 1.08 2.16-2.64.72-4.7 1.52-6.18 2.4-1.2 1.32-1.8 2.28-1.8 2.88 0 2 .12 3.12.36 3.36.08 3.72-.16 6.66-.72 8.82-.2.84-.37 1.3-.51 1.38-.14.08-.37.12-.69.12-.2 0-.36-.02-.48-.06a1.56 1.56 0 0 0-.48-.06c-.52 0-1.36-1.44-2.52-4.32.48-.96.84-3.64 1.08-8.04-.48-3.84-1.86-6.28-4.14-7.32 0-.24-.12-.6-.36-1.08l.72-.36zm29.04-9.6c3.12 1.08 4.68 2.52 4.68 4.32-.48.8-.72 1.52-.72 2.16v6.6c0 .16-.36 1.34-1.08 3.54 0 .56.12 1.04.36 1.44-.16 8.4-.88 12.6-2.16 12.6l-2.16-.36c-1.6.24-2.92.36-3.96.36-3.6-1.4-5.4-3.98-5.4-7.74v-.96c0-5.64 3-8.44 9-8.4.84 0 1.44-2.96 1.8-8.88 0-.6-.48-1.68-1.44-3.24.36-.96.72-1.44 1.08-1.44zm-7.14 23.82c.52.84 1.04 1.54 1.56 2.1.76.52 1.3.9 1.62 1.14.32.24.92.36 1.8.36l.72-9.72-.72-.36-2.16.36c-3.52 1.32-4.46 3.36-2.82 6.12zm25.74-12.48c4.32.44 6.48 2.12 6.48 5.04.96.12 1.44.48 1.44 1.08 0 .92-4.2 2-12.6 3.24-1.2 0-1.8.48-1.8 1.44 1.32 4.4 3.84 6.6 7.56 6.6 3.12.32 4.68.8 4.68 1.44 0 .36-.36.72-1.08 1.08h-2.88c-5.92 0-9.76-2.56-11.52-7.68-.48-1.56-.72-2.64-.72-3.24.72-5.76 3.12-8.64 7.2-8.64 0-.24.36-.36 1.08-.36h2.16zm-1.44 5.04l1.8-.36c0-.48-.84-.96-2.52-1.44-1.92.44-2.88.92-2.88 1.44v.36h3.6zm12.48-6.78c3.24.44 5.1 1.4 5.58 2.88h.72c2.64-1.84 4.82-2.76 6.54-2.76h1.8c.72.24 1.08.96 1.08 2.16-2.64.72-4.7 1.52-6.18 2.4-1.2 1.32-1.8 2.28-1.8 2.88 0 2 .12 3.12.36 3.36.08 3.72-.16 6.66-.72 8.82-.2.84-.37 1.3-.51 1.38-.14.08-.37.12-.69.12-.2 0-.36-.02-.48-.06a1.56 1.56 0 0 0-.48-.06c-.52 0-1.36-1.44-2.52-4.32.48-.96.84-3.64 1.08-8.04-.48-3.84-1.86-6.28-4.14-7.32 0-.24-.12-.6-.36-1.08l.72-.36zm56.64-10.86c1.56 1.32 2.34 2.46 2.34 3.42v.42c0 .28-2.38.72-7.14 1.32l-.72 1.14v4.5c-1.04 10.28-2.22 17.64-3.54 22.08h-.06c-1.36 0-2.2-2-2.52-6 2.08-8.6 3.12-14.56 3.12-17.88l-.66-2.64-2.46.36c0-.52-.58-.78-1.74-.78l-2.94.48-5.76-2.04v-.48c.4 0 1.12-.4 2.16-1.2l.84.3c10.2-2 16.56-3 19.08-3zm15.42 11.16c3.88.28 6.14 3.38 6.78 9.3l-.18 4.02c-1.08 4.36-2.72 6.54-4.92 6.54-.72.68-1.72 1.04-3 1.08-2.16-.48-3.9-1.38-5.22-2.7-2.36-2.08-3.38-4.78-3.06-8.1v-.72c0-2.16 2.18-5.26 6.54-9.3l3.06-.12zm-5.88 11.34c-.32 2.76 1.56 4.52 5.64 5.28 2.12-1.56 3.08-3.12 2.88-4.68V22.5c0-1.32-.6-3.24-1.8-5.76l-2.4-.06c-3.2 2.32-4.64 4.78-4.32 7.38zM17.12 61.56c.36.04.54.16.54.36 0 1.44-2.06 2.8-6.18 4.08-1.48 2.4-2.22 4.28-2.22 5.64v2.64c0 1.52 2.64 3.94 7.92 7.26 1 2.24 1.5 4.34 1.5 6.3h-.84l.72 1.26c-3.76 3.56-7.2 5.34-10.32 5.34h-.48C3.92 93.4 2 92.24 2 90.96c0-.28-.18-1.1-.54-2.46l.36-.18c0 1.2 1.78 1.8 5.34 1.8 3.4 0 6.04-1.6 7.92-4.8 0-2.2-2-4.24-6-6.12-.96-1.04-2.1-2.6-3.42-4.68v-2.88c0-4.24 2.3-7.6 6.9-10.08h4.56zm8.4.18c2.64 1.44 3.96 3.48 3.96 6.12 0 2.88-.24 5.04-.72 6.48h.36c.24 0 1.2-.12 2.88-.36 2.52 0 4.44 1.2 5.76 3.6l-.36 1.44c.24 3.32.36 5.36.36 6.12-.24 1.28-.36 2-.36 2.16l.36.72c-.16 3.36-.52 5.04-1.08 5.04H35.6c-1.2-1.36-1.8-2.92-1.8-4.68V85.5c0-1.56.12-3.12.36-4.68 0-2.64-.96-3.96-2.88-3.96 0 .6-.72 1.2-2.16 1.8-1.08 10.56-2.04 15.84-2.88 15.84-1.68-1.6-2.52-3.28-2.52-5.04h-.36c1.92-14.52 2.88-21.96 2.88-22.32 0-1.92-.6-3.48-1.8-4.68 0-.48.36-.72 1.08-.72zM46.1 73.8c1.8-.88 3.46-1.32 4.98-1.32 2 0 3.57.71 4.71 2.13 1.14 1.42 1.71 3.19 1.71 5.31 0 .32-.03.8-.09 1.44-.06.64-.09 1.24-.09 1.8 0 .68.06 1.44.18 2.28.6.04.9.32.9.84v.42c-.48.76-.92 1.92-1.32 3.48l.42 2.52c-.52 1.32-1.08 2.04-1.68 2.16-1.44-.72-2.16-1.72-2.16-3l-2.58.42c-5.44 0-8.16-2-8.16-6 0-.08-.01-.19-.03-.33-.02-.14-.01-.31.03-.51 1-3.72 3.26-5.88 6.78-6.48.32-.04.83-.12 1.53-.24.7-.12 1.24-.26 1.62-.42.38-.16.57-.36.57-.6v-.84c0-.36-.23-.67-.69-.93-.46-.26-1.07-.39-1.83-.39-1.72 0-3.58.6-5.58 1.8l-1.68-1.74c0-.2.28-.49.84-.87.56-.38 1.1-.69 1.62-.93zm.24 13.32c0 .48.44.92 1.32 1.32h3c1.32 0 1.98-2.04 1.98-6.12v-.42c-3 0-5.1 1.46-6.3 4.38v.84zm16.38-14.7c3.24.44 5.1 1.4 5.58 2.88h.72c2.64-1.84 4.82-2.76 6.54-2.76h1.8c.72.24 1.08.96 1.08 2.16-2.64.72-4.7 1.52-6.18 2.4-1.2 1.32-1.8 2.28-1.8 2.88 0 2 .12 3.12.36 3.36.08 3.72-.16 6.66-.72 8.82-.2.84-.37 1.3-.51 1.38-.14.08-.37.12-.69.12-.2 0-.36-.02-.48-.06a1.56 1.56 0 0 0-.48-.06c-.52 0-1.36-1.44-2.52-4.32.48-.96.84-3.64 1.08-8.04-.48-3.84-1.86-6.28-4.14-7.32 0-.24-.12-.6-.36-1.08l.72-.36zm27.96 1.74c4.32.44 6.48 2.12 6.48 5.04.96.12 1.44.48 1.44 1.08 0 .92-4.2 2-12.6 3.24-1.2 0-1.8.48-1.8 1.44 1.32 4.4 3.84 6.6 7.56 6.6 3.12.32 4.68.8 4.68 1.44 0 .36-.36.72-1.08 1.08h-2.88c-5.92 0-9.76-2.56-11.52-7.68-.48-1.56-.72-2.64-.72-3.24.72-5.76 3.12-8.64 7.2-8.64 0-.24.36-.36 1.08-.36h2.16zm-1.44 5.04l1.8-.36c0-.48-.84-.96-2.52-1.44-1.92.44-2.88.92-2.88 1.44v.36h3.6zm30.78 9.537c1-5.719 1.92-9.797 2.76-12.237l-.36-.78c.72-1.84 1.36-4.26 1.92-7.26l-5.063-3.872c3.39-2.899 7.198-4.348 11.423-4.348 3.16 0 5.44 2.66 6.84 7.98 0 2.24-1.82 4.24-5.46 6v1.14c2.4 0 4.22 2.22 5.46 6.66-.68 5.8-2.24 8.7-4.68 8.7-1.44 1.28-2.28 2.24-2.52 2.88l-1.5-.36c-.44 0-1.32.54-2.64 1.62l-2.64-.54c0 .64-.08 1.12-.24 1.44-1.96 0-2.94-2.36-2.94-7.08-.233 0-.353.019-.36.057zm8.46-15.417c5.04-.6 7.14-3.06 6.3-7.38l-1.38-1.92c-6.32-1.2-8.56.64-6.72 5.52 0 .56-.18 1.82-.54 3.78h2.34zm-1.68 5.28c-.68 0-1.26.86-1.74 2.58l.42.84c-.8 2.88-1.2 5.1-1.2 6.66v2.1c6.16.8 9.66-1.4 10.5-6.6l.36-1.68c0-1.68-.78-3.16-2.34-4.44l-2.16.54h-3.84zm25.02-5.88c3.88.28 6.14 3.38 6.78 9.3l-.18 4.02c-1.08 4.36-2.72 6.54-4.92 6.54-.72.68-1.72 1.04-3 1.08-2.16-.48-3.9-1.38-5.22-2.7-2.36-2.08-3.38-4.78-3.06-8.1v-.72c0-2.16 2.18-5.26 6.54-9.3l3.06-.12zm-5.88 11.34c-.32 2.76 1.56 4.52 5.64 5.28 2.12-1.56 3.08-3.12 2.88-4.68V82.5c0-1.32-.6-3.24-1.8-5.76l-2.4-.06c-3.2 2.32-4.64 4.78-4.32 7.38zm18.954 5.133c-.036.04-.054-.07-.054-.333l.054.333zm0 0c.1-.116.343-1.427.726-3.933l.06-2.76.36-4.14c0-.36-.94-1.26-2.82-2.7 0-.44.4-.86 1.2-1.26l1.02-.72c2.88-1.6 4.58-1.26 5.1 1.02l4.08-.42c4.28-.12 6.32 1.94 6.12 6.18v1.62c0 1.4-.14 2.18-.42 2.34v4.02c0 3.84-.96 5.76-2.88 5.76-1.32-2.04-1.98-3.82-1.98-5.34v-5.28c0-.2.12-.14.36.18-.24-.48-.36-1.04-.36-1.68v-.42l.36-2.04-.78-.84c-3 .48-4.5 1.04-4.5 1.68v1.62c0 .64-.05 1.17-.15 1.59-.1.42-.27 1.23-.51 2.43l-.06.3c-.88 4.48-1.46 7.08-1.74 7.8h-.78c-1.046 0-1.848-1.67-2.406-5.007zM201.8 83.4c0 .64 1.02 3.7 3.06 9.18-.88.68-1.56 1.02-2.04 1.02-1.84-2.28-2.86-3.42-3.06-3.42 0 1.04-2.38 1.84-7.14 2.4-4.52-1.28-6.78-4.56-6.78-9.84 0 1.36.46-.9 1.38-6.78l-.36-2.4.66-.36c2.04 0 3.06 1.44 3.06 4.32-.68 4.08-1.02 6.38-1.02 6.9 0 2.52 1.24 3.78 3.72 3.78 3.4-.76 5.1-1.44 5.1-2.04-.28-.52-.42-1.7-.42-3.54 0-.52.04-1.66.12-3.42 0-.96-.24-2.6-.72-4.92 0-.48.17-.85.51-1.11.34-.26.77-.39 1.29-.39 1 0 1.82.38 2.46 1.14.32 1.68.48 3.14.48 4.38v1.62c0 1.72-.1 2.88-.3 3.48zm17.28-13.68c.48.08.72.32.72.72-.24 0-.36.12-.36.36 2.28 1.08 3.96 2.4 5.04 3.96v2.16c-1.12 0-2.44-.96-3.96-2.88-3.36.72-5.04 1.56-5.04 2.52v.36c0 .32 2.04 1.88 6.12 4.68 2.6 1.8 4.08 4 4.44 6.6-1.24 3.36-2.92 4.84-5.04 4.44 0 .44-1.56.8-4.68 1.08-3.76 0-6.28-1.44-7.56-4.32 0 .44-.36-.24-1.08-2.04 0-1.32.72-2.4 2.16-3.24v-.36h1.08v2.16c.72 1.84 2.04 2.84 3.96 3 2.56 1.16 4.84.4 6.84-2.28-.8-.08-3.36-2.08-7.68-6-.6-1-1.08-2.24-1.44-3.72.28-3.32 2.32-5.72 6.12-7.2h.36z"/>
        <filter id="a" width="109.2%" height="129.7%" x="-4.6%" y="-10.6%" filterUnits="objectBoundingBox">
            <feOffset dy="4" in="SourceAlpha" result="shadowOffsetOuter1"/>
            <feGaussianBlur in="shadowOffsetOuter1" result="shadowBlurOuter1" stdDeviation="4"/>
            <feColorMatrix in="shadowBlurOuter1" values="0 0 0 0 0.0156862745 0 0 0 0 0.0509803922 0 0 0 0 0.282352941 0 0 0 1 0"/>
        </filter>
    </defs>
    <g fill="none" fill-rule="evenodd">
        <g transform="translate(4 17)">
            <use fill="#000" filter="url(#a)" xlink:href="#b"/>
            <use fill="#FE7918" xlink:href="#b"/>
        </g>
        <path fill="#FFF" fill-opacity=".8" d="M19.1 17.92c3.88 1.36 4.1 2.62.66 3.78-3.92-2.12-7.2-1.36-9.84 2.28C8 29.66 7.04 35.08 7.04 40.24v.6c0 .6.9 2.66 2.7 6.18l4.62.54c4.12-1 6.38-3.12 6.78-6.36l1.92-.42.72 1.38v.48c0 3.64-1.72 5.68-5.16 6.12-2.44.92-3.66 1.52-3.66 1.8-6.72 0-10.08-2.6-10.08-7.8-.32 0-.48-.44-.48-1.32v-.6c-.8-17.52 3.32-25.18 12.36-22.98.76.08 1.54.1 2.34.06zm8.94 10.5c3.24.44 5.1 1.4 5.58 2.88h.72c2.64-1.84 4.82-2.76 6.54-2.76h1.8c.72.24 1.08.96 1.08 2.16-2.64.72-4.7 1.52-6.18 2.4-1.2 1.32-1.8 2.28-1.8 2.88 0 2 .12 3.12.36 3.36.08 3.72-.16 6.66-.72 8.82-.2.84-.37 1.3-.51 1.38-.14.08-.37.12-.69.12-.2 0-.36-.02-.48-.06a1.56 1.56 0 0 0-.48-.06c-.52 0-1.36-1.44-2.52-4.32.48-.96.84-3.64 1.08-8.04-.48-3.84-1.86-6.28-4.14-7.32 0-.24-.12-.6-.36-1.08l.72-.36zM56 30.16c4.32.44 6.48 2.12 6.48 5.04.96.12 1.44.48 1.44 1.08 0 .92-4.2 2-12.6 3.24-1.2 0-1.8.48-1.8 1.44 1.32 4.4 3.84 6.6 7.56 6.6 3.12.32 4.68.8 4.68 1.44 0 .36-.36.72-1.08 1.08H57.8c-5.92 0-9.76-2.56-11.52-7.68-.48-1.56-.72-2.64-.72-3.24.72-5.76 3.12-8.64 7.2-8.64 0-.24.36-.36 1.08-.36H56zm-1.44 5.04l1.8-.36c0-.48-.84-.96-2.52-1.44-1.92.44-2.88.92-2.88 1.44v.36h3.6zm16.62-5.4c1.8-.88 3.46-1.32 4.98-1.32 2 0 3.57.71 4.71 2.13 1.14 1.42 1.71 3.19 1.71 5.31 0 .32-.03.8-.09 1.44-.06.64-.09 1.24-.09 1.8 0 .68.06 1.44.18 2.28.6.04.9.32.9.84v.42c-.48.76-.92 1.92-1.32 3.48l.42 2.52c-.52 1.32-1.08 2.04-1.68 2.16-1.44-.72-2.16-1.72-2.16-3l-2.58.42c-5.44 0-8.16-2-8.16-6 0-.08-.01-.19-.03-.33-.02-.14-.01-.31.03-.51 1-3.72 3.26-5.88 6.78-6.48.32-.04.83-.12 1.53-.24.7-.12 1.24-.26 1.62-.42.38-.16.57-.36.57-.6v-.84c0-.36-.23-.67-.69-.93-.46-.26-1.07-.39-1.83-.39-1.72 0-3.58.6-5.58 1.8l-1.68-1.74c0-.2.28-.49.84-.87.56-.38 1.1-.69 1.62-.93zm.24 13.32c0 .48.44.92 1.32 1.32h3c1.32 0 1.98-2.04 1.98-6.12v-.42c-3 0-5.1 1.46-6.3 4.38v.84zm21.9-24.6c.6.52 1.68 1.6 3.24 3.24v.36c0 .72-.2 2.28-.6 4.68h.36c.28 0 1.08-.12 2.4-.36 2.24 0 4.04 1.2 5.4 3.6 0 1.04-2.88 1.64-8.64 1.8l-.36.72v2.16c0 1.68-.06 2.64-.18 2.88-.12.24-.18.48-.18.72l.12 4.44c-.52 1.8 1.84 2.84 7.08 3.12l1.44 2.16c-1.6 1.2-3.76 1.8-6.48 1.8h1.44c-5.12.76-7.52-2.24-7.2-9 0-.76.08-3.36.24-7.8-3.08-.04-4.72-1.28-4.92-3.72 1.52-.72 3.56-1.32 6.12-1.8v-5.4c0-.52.12-1 .36-1.44-.24-.4-.36-.88-.36-1.44.08-.48.32-.72.72-.72zm23.04 11.64c4.32.44 6.48 2.12 6.48 5.04.96.12 1.44.48 1.44 1.08 0 .92-4.2 2-12.6 3.24-1.2 0-1.8.48-1.8 1.44 1.32 4.4 3.84 6.6 7.56 6.6 3.12.32 4.68.8 4.68 1.44 0 .36-.36.72-1.08 1.08h-2.88c-5.92 0-9.76-2.56-11.52-7.68-.48-1.56-.72-2.64-.72-3.24.72-5.76 3.12-8.64 7.2-8.64 0-.24.36-.36 1.08-.36h2.16zm-1.44 5.04l1.8-.36c0-.48-.84-.96-2.52-1.44-1.92.44-2.88.92-2.88 1.44v.36h3.6zm39.06-15.96c1.6-.52 3.22-.76 4.86-.72l3.78 1.2c3.12 2.04 4.68 7.26 4.68 15.66v1.02c0 2-3.18 5.46-9.54 10.38h-3.78c-5.24-3.12-7.86-6.6-7.86-10.44v-3.66c1.44-5.4 3.42-9.16 5.94-11.28 1.2-1.32 1.84-2.04 1.92-2.16zm4.92 4.38c-2.4-.56-4.64.38-6.72 2.82-1.08 1.76-1.92 4.16-2.52 7.2v1.14c.84 5.04 2.64 7.76 5.4 8.16h2.4c4.32-5.6 6.48-9.2 6.48-10.8v-.54c0-5.32-1.68-7.98-5.04-7.98zm12.72 4.8c3.24.44 5.1 1.4 5.58 2.88h.72c2.64-1.84 4.82-2.76 6.54-2.76h1.8c.72.24 1.08.96 1.08 2.16-2.64.72-4.7 1.52-6.18 2.4-1.2 1.32-1.8 2.28-1.8 2.88 0 2 .12 3.12.36 3.36.08 3.72-.16 6.66-.72 8.82-.2.84-.37 1.3-.51 1.38-.14.08-.37.12-.69.12-.2 0-.36-.02-.48-.06a1.56 1.56 0 0 0-.48-.06c-.52 0-1.36-1.44-2.52-4.32.48-.96.84-3.64 1.08-8.04-.48-3.84-1.86-6.28-4.14-7.32 0-.24-.12-.6-.36-1.08l.72-.36zm29.04-9.6c3.12 1.08 4.68 2.52 4.68 4.32-.48.8-.72 1.52-.72 2.16v6.6c0 .16-.36 1.34-1.08 3.54 0 .56.12 1.04.36 1.44-.16 8.4-.88 12.6-2.16 12.6l-2.16-.36c-1.6.24-2.92.36-3.96.36-3.6-1.4-5.4-3.98-5.4-7.74v-.96c0-5.64 3-8.44 9-8.4.84 0 1.44-2.96 1.8-8.88 0-.6-.48-1.68-1.44-3.24.36-.96.72-1.44 1.08-1.44zm-7.14 23.82c.52.84 1.04 1.54 1.56 2.1.76.52 1.3.9 1.62 1.14.32.24.92.36 1.8.36l.72-9.72-.72-.36-2.16.36c-3.52 1.32-4.46 3.36-2.82 6.12zm25.74-12.48c4.32.44 6.48 2.12 6.48 5.04.96.12 1.44.48 1.44 1.08 0 .92-4.2 2-12.6 3.24-1.2 0-1.8.48-1.8 1.44 1.32 4.4 3.84 6.6 7.56 6.6 3.12.32 4.68.8 4.68 1.44 0 .36-.36.72-1.08 1.08h-2.88c-5.92 0-9.76-2.56-11.52-7.68-.48-1.56-.72-2.64-.72-3.24.72-5.76 3.12-8.64 7.2-8.64 0-.24.36-.36 1.08-.36h2.16zm-1.44 5.04l1.8-.36c0-.48-.84-.96-2.52-1.44-1.92.44-2.88.92-2.88 1.44v.36h3.6zm12.48-6.78c3.24.44 5.1 1.4 5.58 2.88h.72c2.64-1.84 4.82-2.76 6.54-2.76h1.8c.72.24 1.08.96 1.08 2.16-2.64.72-4.7 1.52-6.18 2.4-1.2 1.32-1.8 2.28-1.8 2.88 0 2 .12 3.12.36 3.36.08 3.72-.16 6.66-.72 8.82-.2.84-.37 1.3-.51 1.38-.14.08-.37.12-.69.12-.2 0-.36-.02-.48-.06a1.56 1.56 0 0 0-.48-.06c-.52 0-1.36-1.44-2.52-4.32.48-.96.84-3.64 1.08-8.04-.48-3.84-1.86-6.28-4.14-7.32 0-.24-.12-.6-.36-1.08l.72-.36zm56.64-10.86c1.56 1.32 2.34 2.46 2.34 3.42v.42c0 .28-2.38.72-7.14 1.32l-.72 1.14v4.5c-1.04 10.28-2.22 17.64-3.54 22.08h-.06c-1.36 0-2.2-2-2.52-6 2.08-8.6 3.12-14.56 3.12-17.88l-.66-2.64-2.46.36c0-.52-.58-.78-1.74-.78l-2.94.48-5.76-2.04v-.48c.4 0 1.12-.4 2.16-1.2l.84.3c10.2-2 16.56-3 19.08-3zm15.42 11.16c3.88.28 6.14 3.38 6.78 9.3l-.18 4.02c-1.08 4.36-2.72 6.54-4.92 6.54-.72.68-1.72 1.04-3 1.08-2.16-.48-3.9-1.38-5.22-2.7-2.36-2.08-3.38-4.78-3.06-8.1v-.72c0-2.16 2.18-5.26 6.54-9.3l3.06-.12zm-5.88 11.34c-.32 2.76 1.56 4.52 5.64 5.28 2.12-1.56 3.08-3.12 2.88-4.68V38.5c0-1.32-.6-3.24-1.8-5.76l-2.4-.06c-3.2 2.32-4.64 4.78-4.32 7.38zM20.12 77.56c.36.04.54.16.54.36 0 1.44-2.06 2.8-6.18 4.08-1.48 2.4-2.22 4.28-2.22 5.64v2.64c0 1.52 2.64 3.94 7.92 7.26 1 2.24 1.5 4.34 1.5 6.3h-.84l.72 1.26c-3.76 3.56-7.2 5.34-10.32 5.34h-.48C6.92 109.4 5 108.24 5 106.96c0-.28-.18-1.1-.54-2.46l.36-.18c0 1.2 1.78 1.8 5.34 1.8 3.4 0 6.04-1.6 7.92-4.8 0-2.2-2-4.24-6-6.12-.96-1.04-2.1-2.6-3.42-4.68v-2.88c0-4.24 2.3-7.6 6.9-10.08h4.56zm8.4.18c2.64 1.44 3.96 3.48 3.96 6.12 0 2.88-.24 5.04-.72 6.48h.36c.24 0 1.2-.12 2.88-.36 2.52 0 4.44 1.2 5.76 3.6l-.36 1.44c.24 3.32.36 5.36.36 6.12-.24 1.28-.36 2-.36 2.16l.36.72c-.16 3.36-.52 5.04-1.08 5.04H38.6c-1.2-1.36-1.8-2.92-1.8-4.68v-2.88c0-1.56.12-3.12.36-4.68 0-2.64-.96-3.96-2.88-3.96 0 .6-.72 1.2-2.16 1.8-1.08 10.56-2.04 15.84-2.88 15.84-1.68-1.6-2.52-3.28-2.52-5.04h-.36c1.92-14.52 2.88-21.96 2.88-22.32 0-1.92-.6-3.48-1.8-4.68 0-.48.36-.72 1.08-.72zM49.1 89.8c1.8-.88 3.46-1.32 4.98-1.32 2 0 3.57.71 4.71 2.13 1.14 1.42 1.71 3.19 1.71 5.31 0 .32-.03.8-.09 1.44-.06.64-.09 1.24-.09 1.8 0 .68.06 1.44.18 2.28.6.04.9.32.9.84v.42c-.48.76-.92 1.92-1.32 3.48l.42 2.52c-.52 1.32-1.08 2.04-1.68 2.16-1.44-.72-2.16-1.72-2.16-3l-2.58.42c-5.44 0-8.16-2-8.16-6 0-.08-.01-.19-.03-.33-.02-.14-.01-.31.03-.51 1-3.72 3.26-5.88 6.78-6.48.32-.04.83-.12 1.53-.24.7-.12 1.24-.26 1.62-.42.38-.16.57-.36.57-.6v-.84c0-.36-.23-.67-.69-.93-.46-.26-1.07-.39-1.83-.39-1.72 0-3.58.6-5.58 1.8l-1.68-1.74c0-.2.28-.49.84-.87.56-.38 1.1-.69 1.62-.93zm.24 13.32c0 .48.44.92 1.32 1.32h3c1.32 0 1.98-2.04 1.98-6.12v-.42c-3 0-5.1 1.46-6.3 4.38v.84zm16.38-14.7c3.24.44 5.1 1.4 5.58 2.88h.72c2.64-1.84 4.82-2.76 6.54-2.76h1.8c.72.24 1.08.96 1.08 2.16-2.64.72-4.7 1.52-6.18 2.4-1.2 1.32-1.8 2.28-1.8 2.88 0 2 .12 3.12.36 3.36.08 3.72-.16 6.66-.72 8.82-.2.84-.37 1.3-.51 1.38-.14.08-.37.12-.69.12-.2 0-.36-.02-.48-.06a1.56 1.56 0 0 0-.48-.06c-.52 0-1.36-1.44-2.52-4.32.48-.96.84-3.64 1.08-8.04-.48-3.84-1.86-6.28-4.14-7.32 0-.24-.12-.6-.36-1.08l.72-.36zm27.96 1.74c4.32.44 6.48 2.12 6.48 5.04.96.12 1.44.48 1.44 1.08 0 .92-4.2 2-12.6 3.24-1.2 0-1.8.48-1.8 1.44 1.32 4.4 3.84 6.6 7.56 6.6 3.12.32 4.68.8 4.68 1.44 0 .36-.36.72-1.08 1.08h-2.88c-5.92 0-9.76-2.56-11.52-7.68-.48-1.56-.72-2.64-.72-3.24.72-5.76 3.12-8.64 7.2-8.64 0-.24.36-.36 1.08-.36h2.16zm-1.44 5.04l1.8-.36c0-.48-.84-.96-2.52-1.44-1.92.44-2.88.92-2.88 1.44v.36h3.6zm30.78 9.537c1-5.719 1.92-9.797 2.76-12.237l-.36-.78c.72-1.84 1.36-4.26 1.92-7.26l-5.063-3.872c3.39-2.899 7.198-4.348 11.423-4.348 3.16 0 5.44 2.66 6.84 7.98 0 2.24-1.82 4.24-5.46 6v1.14c2.4 0 4.22 2.22 5.46 6.66-.68 5.8-2.24 8.7-4.68 8.7-1.44 1.28-2.28 2.24-2.52 2.88l-1.5-.36c-.44 0-1.32.54-2.64 1.62l-2.64-.54c0 .64-.08 1.12-.24 1.44-1.96 0-2.94-2.36-2.94-7.08-.233 0-.353.019-.36.057zm8.46-15.417c5.04-.6 7.14-3.06 6.3-7.38l-1.38-1.92c-6.32-1.2-8.56.64-6.72 5.52 0 .56-.18 1.82-.54 3.78h2.34zm-1.68 5.28c-.68 0-1.26.86-1.74 2.58l.42.84c-.8 2.88-1.2 5.1-1.2 6.66v2.1c6.16.8 9.66-1.4 10.5-6.6l.36-1.68c0-1.68-.78-3.16-2.34-4.44l-2.16.54h-3.84zm25.02-5.88c3.88.28 6.14 3.38 6.78 9.3l-.18 4.02c-1.08 4.36-2.72 6.54-4.92 6.54-.72.68-1.72 1.04-3 1.08-2.16-.48-3.9-1.38-5.22-2.7-2.36-2.08-3.38-4.78-3.06-8.1v-.72c0-2.16 2.18-5.26 6.54-9.3l3.06-.12zm-5.88 11.34c-.32 2.76 1.56 4.52 5.64 5.28 2.12-1.56 3.08-3.12 2.88-4.68V98.5c0-1.32-.6-3.24-1.8-5.76l-2.4-.06c-3.2 2.32-4.64 4.78-4.32 7.38zm18.954 5.133c-.036.04-.054-.07-.054-.333l.054.333zm0 0c.1-.116.343-1.427.726-3.933l.06-2.76.36-4.14c0-.36-.94-1.26-2.82-2.7 0-.44.4-.86 1.2-1.26l1.02-.72c2.88-1.6 4.58-1.26 5.1 1.02l4.08-.42c4.28-.12 6.32 1.94 6.12 6.18v1.62c0 1.4-.14 2.18-.42 2.34v4.02c0 3.84-.96 5.76-2.88 5.76-1.32-2.04-1.98-3.82-1.98-5.34v-5.28c0-.2.12-.14.36.18-.24-.48-.36-1.04-.36-1.68v-.42l.36-2.04-.78-.84c-3 .48-4.5 1.04-4.5 1.68v1.62c0 .64-.05 1.17-.15 1.59-.1.42-.27 1.23-.51 2.43l-.06.3c-.88 4.48-1.46 7.08-1.74 7.8h-.78c-1.046 0-1.848-1.67-2.406-5.007zM204.8 99.4c0 .64 1.02 3.7 3.06 9.18-.88.68-1.56 1.02-2.04 1.02-1.84-2.28-2.86-3.42-3.06-3.42 0 1.04-2.38 1.84-7.14 2.4-4.52-1.28-6.78-4.56-6.78-9.84 0 1.36.46-.9 1.38-6.78l-.36-2.4.66-.36c2.04 0 3.06 1.44 3.06 4.32-.68 4.08-1.02 6.38-1.02 6.9 0 2.52 1.24 3.78 3.72 3.78 3.4-.76 5.1-1.44 5.1-2.04-.28-.52-.42-1.7-.42-3.54 0-.52.04-1.66.12-3.42 0-.96-.24-2.6-.72-4.92 0-.48.17-.85.51-1.11.34-.26.77-.39 1.29-.39 1 0 1.82.38 2.46 1.14.32 1.68.48 3.14.48 4.38v1.62c0 1.72-.1 2.88-.3 3.48zm17.28-13.68c.48.08.72.32.72.72-.24 0-.36.12-.36.36 2.28 1.08 3.96 2.4 5.04 3.96v2.16c-1.12 0-2.44-.96-3.96-2.88-3.36.72-5.04 1.56-5.04 2.52v.36c0 .32 2.04 1.88 6.12 4.68 2.6 1.8 4.08 4 4.44 6.6-1.24 3.36-2.92 4.84-5.04 4.44 0 .44-1.56.8-4.68 1.08-3.76 0-6.28-1.44-7.56-4.32 0 .44-.36-.24-1.08-2.04 0-1.32.72-2.4 2.16-3.24v-.36h1.08v2.16c.72 1.84 2.04 2.84 3.96 3 2.56 1.16 4.84.4 6.84-2.28-.8-.08-3.36-2.08-7.68-6-.6-1-1.08-2.24-1.44-3.72.28-3.32 2.32-5.72 6.12-7.2h.36z"/>
    </g>
</svg>
