<?xml version="1.0" encoding="UTF-8"?>
<svg width="24px" height="24px" viewBox="0 0 24 24" version="1.1" xmlns="http://www.w3.org/2000/svg" xmlns:xlink="http://www.w3.org/1999/xlink">
    <!-- Generator: Sketch 52.2 (67145) - http://www.bohemiancoding.com/sketch -->
    <title>avatar</title>
    <desc>Created with Sketch.</desc>
    <defs>
        <linearGradient x1="1.69403699%" y1="1.50892141%" x2="100%" y2="89.0725184%" id="linearGradient-1">
            <stop stop-color="#FFC478" offset="0%"></stop>
            <stop stop-color="#FF9143" offset="100%"></stop>
        </linearGradient>
        <circle id="path-2" cx="12" cy="12" r="12"></circle>
    </defs>
    <g id="avatar" stroke="none" stroke-width="1" fill="none" fill-rule="evenodd">
        <g>
            <mask id="mask-3" fill="white">
                <use xlink:href="#path-2"></use>
            </mask>
            <use id="mask" fill="url(#linearGradient-1)" xlink:href="#path-2"></use>
            <g id="Icon/avatar_white" mask="url(#mask-3)">
                <g transform="translate(3.000000, 3.000000)" id="ic_avatar_white">
                    <g>
                        <polygon points="0 0 18 0 18 18 0 18"></polygon>
                        <path d="M11.25,6.75 C11.25,7.995 10.245,9 9,9 C7.755,9 6.75,7.995 6.75,6.75 C6.75,5.505 7.755,4.5 9,4.5 C10.245,4.5 11.25,5.505 11.25,6.75 Z M4.5,12.75 C4.5,11.25 7.5,10.425 9,10.425 C10.5,10.425 13.5,11.25 13.5,12.75 L13.5,12.75 C13.5,13.1642136 13.1642136,13.5 12.75,13.5 L5.25,13.5 C4.83578644,13.5 4.5,13.1642136 4.5,12.75 Z" fill="#FFFFFF" fill-rule="nonzero"></path>
                    </g>
                </g>
            </g>
        </g>
    </g>
</svg>