<?xml version="1.0" encoding="UTF-8"?>
<svg width="24px" height="24px" viewBox="0 0 24 24" version="1.1" xmlns="http://www.w3.org/2000/svg" xmlns:xlink="http://www.w3.org/1999/xlink">
    <!-- Generator: Sketch 52.2 (67145) - http://www.bohemiancoding.com/sketch -->
    <title>avatar-locked</title>
    <desc>Created with Sketch.</desc>
    <defs>
        <linearGradient x1="1.69403699%" y1="1.50892141%" x2="100%" y2="89.0725184%" id="linearGradient-1">
            <stop stop-color="#FFC478" offset="0%"></stop>
            <stop stop-color="#FF9143" offset="100%"></stop>
        </linearGradient>
    </defs>
    <g id="avatar-locked" stroke="none" stroke-width="1" fill="none" fill-rule="evenodd">
        <g>
            <circle id="mask" fill="url(#linearGradient-1)" cx="12" cy="12" r="12"></circle>
            <path d="M12,13.425 C12.54675,13.425 13.293,13.536 14.0205,13.74825 C13.701,14.1195 13.5,14.59725 13.5,15.12525 L13.5,16.5 L8.25,16.5 C7.836,16.5 7.5,16.164 7.5,15.75 C7.5,14.25 10.5,13.425 12,13.425 Z M14.25,9.75 C14.25,10.995 13.245,12 12,12 C10.755,12 9.75,10.995 9.75,9.75 C9.75,8.505 10.755,7.5 12,7.5 C13.245,7.5 14.25,8.505 14.25,9.75 Z M17.94825,14.4465 L16.44825,14.4465 L16.44825,13.5 C16.44825,13.08525 16.7835,12.75 17.19825,12.75 C17.613,12.75 17.94825,13.08525 17.94825,13.5 L17.94825,14.4465 Z M18.75,14.5005 L18.75,13.563 C18.75,12.69975 18.0495,12 17.18775,12 C16.32525,12 15.62475,12.69975 15.62475,13.563 L15.62475,14.5005 C15.28125,14.5005 15,14.78175 15,15.12525 L15,17.625 C15,17.96925 15.28125,18.2505 15.62475,18.2505 L18.75,18.2505 C19.0935,18.2505 19.37475,17.96925 19.37475,17.625 L19.37475,15.12525 C19.37475,14.78175 19.0935,14.5005 18.75,14.5005 Z" id="Fill-1" fill="#FFFFFF"></path>
        </g>
    </g>
</svg>