<svg xmlns="http://www.w3.org/2000/svg" width="24" height="24" viewBox="0 0 24 24">
    <defs>
        <linearGradient id="a" x1="60.433%" x2="13.944%" y1="-18.358%" y2="120.902%">
            <stop offset="0%" stop-color="#E7AC5F"/>
            <stop offset="100%" stop-color="#E76536"/>
        </linearGradient>
    </defs>
    <g fill="none" fill-rule="evenodd">
        <path d="M0 0h24v24H0z"/>
        <path fill="url(#a)" d="M12.9 4.445a4.596 4.596 0 0 1 6.49 0 4.583 4.583 0 0 1 0 6.476 4.61 4.61 0 0 1-5.663.654l-3.187 3.172 1.207 1.263a.527.527 0 0 1 0 .746L11 17.5a.53.53 0 0 1-.747 0l-1.208-1.266-.748.746 1.208 1.264a.523.523 0 0 1 0 .744l-.747.743a.53.53 0 0 1-.748 0l-1.207-1.263a1.064 1.064 0 0 1-1.494 0 1.05 1.05 0 0 1 0-1.488l6.928-6.896a4.587 4.587 0 0 1 .662-5.639zm1.415 1.414a2.594 2.594 0 0 1 3.66 0 2.578 2.578 0 0 1 0 3.646 2.6 2.6 0 0 1-3.66 0 2.578 2.578 0 0 1 0-3.646z"/>
    </g>
</svg>
