<svg xmlns="http://www.w3.org/2000/svg" width="24" height="24" viewBox="0 0 24 24">
    <g fill="none" fill-rule="nonzero">
        <path fill="#FF9143" d="M9.186 15.157A3.987 3.987 0 0 1 12 14c1.097 0 2.091.442 2.814 1.157L12 17.97l-2.814-2.814z" opacity=".797"/>
        <path fill="#78819A" d="M7.77 13.745l-1.41-1.419A7.976 7.976 0 0 1 12 10c2.141 0 4.151.847 5.64 2.326l-1.41 1.419A5.977 5.977 0 0 0 12 12a5.977 5.977 0 0 0-4.23 1.745zm-2.828-2.83L3.531 9.5A11.963 11.963 0 0 1 12 6c3.217 0 6.235 1.273 8.47 3.499l-1.412 1.417A9.963 9.963 0 0 0 12 8a9.963 9.963 0 0 0-7.058 2.916z" opacity=".8"/>
    </g>
</svg>
