<svg xmlns="http://www.w3.org/2000/svg" width="24" height="24" viewBox="0 0 24 24">
    <path fill="#BE4634" fill-opacity=".8" fill-rule="nonzero" d="M9.01 15.73A4.237 4.237 0 0 1 12 14.502c1.166 0 2.222.47 2.99 1.23L12 18.72l-2.99-2.99zm-1.505-1.5l-1.498-1.507A8.476 8.476 0 0 1 12 10.25c2.276 0 4.412.9 5.993 2.472l-1.498 1.507A6.351 6.351 0 0 0 12 12.376a6.351 6.351 0 0 0-4.495 1.854zM4.5 11.224L3 9.718A12.713 12.713 0 0 1 12 6c3.419 0 6.626 1.353 9 3.718l-1.5 1.506A10.588 10.588 0 0 0 12 8.125c-2.85 0-5.52 1.127-7.5 3.099z"/>
</svg>
